<svg viewBox="0 0 2000 2000" xmlns="http://www.w3.org/2000/svg"><path d="m544.54 1286.28s61.56-29 155.72-36.21 391.13 10.86 402 10.86 271.93-46.26 297.28-10c6.34 9-8.29 36.35 17 57.86-87.79-4 48.75 15.17 62.85 26.93-71.83 19 150.35 148.28 136.68 162-21.73 21.73-305.72 28.81-508.53 14.33s-315.07 0-452.69 3.62-338.95-3.09-331.7-14c4.45-6.67 244.86-159.34 127.48-146.13 11.45-8.73 62-38.67 28-42 18.37-17.68 65.91-27.26 65.91-27.26z" fill="#6d4224"/><path d="m559.91 771.64c28.75-81.64 43.09-160.76 114.87-145.83s163.76 7.71 110.45-20.67c38.66-32.15 82.53 4 134.45 6.26s92-17.74 141.68-25.78c-77.84 92.16 106-14.93 128.12 18.37-65 8.79 17.67 65.45 72.9 83.82s90.57-8 113.76 36.75-1.1 19.52 27.62 91.86 37.55 75.76 53 120.54c-60.23-28.92 4.86 58.93-4 102.57s-32 91.87-27.61 118.28 9.5 76.57-7.06 96.09-48.6 14.93-64.07 65.46-58.53 104.5-101.61 135.5-60.32 22.59-116.65 68.52c23.32-65.62-154.26 2.83-104.75 46.45-93.89 0-227.09-70.58-199.92-19.52-93.88-19.52-107.84 14.77-142.08-62.16 31.11-61.51-58.44-71.18-88.26-91.85s-116-87.28-119.29-114.84 52.43-134.4 14.88-196.41-43.08-89.57-32-112.54c9.07 70.36 150.73-201.38 95.57-200.87z" fill="#84542b"/><path d="m645 1265.46s17 12 34.89 5.54-57.52-23.1 93.35 24.94 299.86 45.26 299.86 45.26 7.54-14.78 114.1-38.79 122.58-71.13 112.21-30.49 17.91 44.34-50 77.6-100.89 48-126.35 54.5-54.7 2.77-111.27 17.55-86.76 30.49-113.16 24-68.83-10.16-114.1-36.95-64.12-21.25-91.46-45.26-48.07-97.9-48.07-97.9z" fill="#754623"/><path d="m967.56 734.12c-19.07-24.8 164.56-42.5 111.22-56.88 10.67-16.23 9.9-49.46 91.91 3.94 28.6 18.63 45.88 19.55 55.2 31.54-29.22 6 19.78 27.59 34.32 37.57-32 14.38 27 16.28 49.16 23.19 85.83 26.7 67.32 18.33 80.67 83.18-84-32.09 21.13 140.2 21.13 155.46s-32.58 33.37-34.48 52.44-198.37 82-198.37 82l-72.48-85.84-5.72-156.4z" fill="#935d35"/><path d="m538 948.39c-6.4-28.81 104-153.46 64.4-137.12 1.08-16.14 35.49-53.89-3.1-39.35-4.3-23.92 28.78-50.31 43.41-59.31 8.12-5 54.2-5.31 36-17.74 8.41-4.59 21.61-16.69 35.85-22.91 12.46-5.44 51.84 3.53 37.88-9.55 9.84-10.48 20.35-16.14 26.92-16.37 17-.59 177 57.56 139.79-8.51 48.54-20.32 43.29 15.21 90.09 35.1-63.18 11.12 3 20.68 81.34 18.92 0 0-28.68 78.78-74.9 58.31s-2.66-8.51-120.25-6.76-72.88-6.47-92.19 8.74-28.64 8.16-45.61 40.36-5.09 33.63-45.46 47.67-174.17 108.52-174.17 108.52z" fill="#935d35"/><path d="m525.91 974.74c2.58-26.46 90.34-93.08 68.88-105.32 3.51-22.6 84.29-35.13 59.9-51.21 3.89-25.14 83.68-41.12 67.67-58.29 59.91-41.84 98.06-39.63 128.15-41.1-21.29 38.58 104.2 7.93 225.84 7 31-8 128.65-15.68 165.81 74.68-29.85 20 32.67 19.37 62.6 61.27-106.58-1.14 105.08 26.61 107 149.6-23.21-25.89 4.06 103.13-69.77 178.95s-13.29 89.14-60.13 112.56c2.42-30.69-80.79 58.66-118.7 68.64 3.73-17.42-65.85 5.4-136.47 16.15-66.89 10.18-135.1 7.36-129.21 25-49.88-16-165.06-39.28-193-66.22s-53.63-73.86-81.56-88.82-55.42-58.66-81-74.39c-33.98-20.87 19.6-217.64-16.01-208.5z" fill="#bcafa4" stroke="#bcafa4" stroke-miterlimit="10" stroke-width="4"/><path d="m556.54 978.54c148.01-199.54 206.46-204.3 269.63-245.54-40.41 61.45 152.36-.84 231.18 17.09-45.14 37.63 128.27 105 163.77 98 43.29 18.43 82.64 31.66 112.57 73.56s50.31 95.8 51.31 102.78 31.49 87.77-42.33 163.59-66.85 92.78-80.81 103.75-116.72 50.88-154.63 60.85-147.65 40.91-197.53 24.94c24.13-31.06-151.64-2-179.57-28.93s-69.84-79.81-97.77-94.77-46.89-23.94-54.87-52.87-79.11-143.99-20.95-222.45z" fill="#cabdb1"/><path d="m1092.26 944.62c14-38.91 55.54-26 35.13-38.22 18-3 67.78-15.66 85.7-5.83-30.47 13.32 14.49 14.62 28.82 25.09-30.57 5.81 61.68 21.09 88.95 35.54-35.11 1.62 10.81 24.32 25.77 37.29s22.95 11 24.94 38.91 16.88 78-8.94 112.82c-27.42 36.92-42.18 56.29-53.9 60.76-23-19-50.88-30.92-73.83-32.92s-21-11-65.84-46.89-84.8-39.9-101.76-54.87-29.93-26.93-23-63.85 18-50.87 27.94-59.85 10.02-7.98 10.02-7.98z" fill="#f2e9e1"/><path d="m1178.35 941.69s34.8 4.26 51.14 5.32 46.18 8.53 60.38 14.57 33.74 18.82 44 35.16 6.4 15.63 19.89 30.19 32.27-6.22 33.34 5.5 13.21 42.32-8 96.44c-1.4 3.56-38.14 27.7-55.19 16.33s-41.2-15.63-53.63-16.34-50.79-1.06-59.32-4.61-31.32-22.14-44.39-24.87c-17.64-3.68-37.84-13.42-47.24-23.79-11-12.15-25.93-15.63-31.61-22.73s-23.44-28.77-13.5-39.43 22.38-23.08 29.84-27 14.91-14.21 23.44-21 18.11-22.73 27.7-23.79 23.15.05 23.15.05z" fill="#8e8883"/><path d="m1101.82 1019.94c8.64 31.48 73.63 81.46 133.31 68.61 85.43-18.38 84.16-62 78.39-71.84-17.6-30.05-68.42 20.55-100 26.07-31.9 5.57-124.12-68.07-111.7-22.84z" fill="#a8a29e"/><path d="m553.55 1045.38c2.22-26.47 49.94-58.31 34.57-67.85 24.11-6.78 83.26-26.61 66.46-46.06 22.63-9.12 96.07-29.52 75.79-49 39.9-1 91.54-12.71 120.47 10.24s41.9 41.9 38.9 67.84-5 48.88-2 60.85 15 21-7 39.91-71.83 73.82-80.81 83.8-62.85 38.91-79.81 58.86-15 38.91-34.92 42.9-39.9 10-52.87 7-89.76-77.8-78.78-208.49z" fill="#f2e9e1"/><path d="m538.63 1030.56c1.25-12.19 48.73 11.63 59.74-13.94s50.63-41.16 69.46-53.24 47.95-23.79 71.39-24.5 74.94-1.07 84.89 3.9 37.64 25.93 39.42 40.14-15.27 58.6-26.64 68.19-52.21 38.72-64.28 44.4-70.22 26.09-82.76 36.58c-69.32 58-137.66 6-137.66 6s-18.8-56.16-13.56-107.53z" fill="#8e8883"/><path d="m1112.91 1020.36c31.8 44.15 78.31 57.07 112.93 50.55 49.24-9.29 90.93-36.91 72.74-48.08-16.68-10.24-53 23.12-82.27 28.22-29.54 5.16-128.78-65.92-103.4-30.69z" fill="#14110e"/><path d="m808 1113.58c47.61-23.52 68.23-40.7 49.55-50.49 33.65-31.09 25.11-80.09 100.07-85.57 54.06-3.93 72.85 12.35 78.84 19.34s23.2 45.1 64.89 74.24c-44.49-2.67 60.67 59.88 80.25 100.06 9.83 20.15-27.13 54.44-41.09 57.43 8-42.71-88.84 33.08-108 56.58.62-21.48-34 1.43-69 2.15-35.52.73-71.52-20.51-64.65-6.14-62.59-41-111.75-80.15-139.11-84.62s83.56-95.21 48.25-82.98z" fill="#726b65"/><path d="m918.37 1002.64c0 2.5-31.66 80.81-40.82 90.81s21.66.83 21.66.83 52.48-2.49 84.14-1.66 66.65.83 66.65.83 27.49 12.5 20 1.67-11.66-20.83-21.66-52.49-25-51.65-49.15-49.15-64.15-3.33-69.15 0a141.66 141.66 0 0 0 -11.67 9.16z" fill="#8e8883"/><path d="m874.13 1147.63s-9.59 15-15.73 10-18-43.33-10.35-49.85 39.5-26.08 52.16-29.15 67.49-11.51 100.09-7.67 34.52 4.22 56.38 13.81 41 24.16 41.8 28.38 3.84 15.34 2.3 22.24-10 16.11-16.11 19.56-15.82-5.45-18.88-7.37c0 0-20.85 18.82-97.85 20.85s-93.81-20.8-93.81-20.8z" fill="#49403a"/><path d="m861.09 1147.62a102.36 102.36 0 0 1 5.63-22.27 57.73 57.73 0 0 1 5-10.08c3.56-5.56 8.23-10 14.29-11.37 20.32-4.61 35.28-9.21 46.78 5.37 13.08 16.56 18.41 48.32 3.46 47.17s-15.73-9.59-22.63-20.33-4-11.6-11.27-13.14-15.48 1.48-23.92 4.16-17.34 20.49-17.34 20.49z" fill="#14110e"/><path d="m1077.39 1141.48s-1.54-30.3-12.27-38.16c-16.82-12.31-40.66-5.56-52.16 9-13.08 16.57-17.26 36.82-2.3 35.67s19.94-1.72 26.85-12.46 11.71-13.86 20.15-11.18 19.73 17.13 19.73 17.13z" fill="#14110e"/><path d="m926.36 1086.59c1.71-.48 111.22-17.8 111.22-3.11 0 1.34 3.12 15.13-6.67 11.12s-20-15.12-35.59-8.45-32 7.56-54.73 6.23-17.35-4.9-14.23-5.79z" fill="#93837a"/><path d="m390.15 1548.63c19.26.11 35.43-16 50.24-15.83 114.32 1.1 105.76 19 109.89 14 1.35-1.61-1.74-43.34-16-74.92-13.64-30.11-39-50.35-18.83-43.62-23-34.34-71.53-44.11-59.34-47 0 0-133.71-9.59-168.22 41.71 43.42-5.29-34.91 56-29 80 27.56-16.3-36.63 44.73 131.26 45.66z" fill="#8c5b35"/><path d="m492.25 1497.48s44 84.2 8.24 233.36c0 0-10.57 14.1-17.07 18-33.6-296.92-52.34-207.24-47.76-188.76 8.67 35 31 157.92 24.85 194-8.11 3.81-11.27 3.32-18.5 1.77-49.87-245.24-68.44-205.16-76.45-201.15-7.12 3.56 63.34 103.39 60.59 201.15 0 .7-10.76.58-10.76.58s-134.2-226.63-113.39-259.03c100.82-46.61 140.85-63.94 190.25.08z" fill="#a59581"/><path d="m1544.26 1575.24c-19.26.1-35.43-16-50.24-15.83-114.32 1.09-105.77 19-109.9 14-1.34-1.62 1.74-43.35 16-74.93 13.64-30.11 39-50.34 18.83-43.62 23-34.34 71.53-44.11 59.34-47 0 0 133.7-9.58 168.22 41.72-43.42-5.3 34.91 56 29 80-27.51-16.3 36.64 44.72-131.25 45.66z" fill="#8c5b35"/><path d="m1442.16 1524.08s-44 84.21-8.24 233.36c0 0 10.57 14.1 17.07 18 33.59-296.92 52.33-207.24 47.76-188.76-8.67 35-31 157.93-24.85 194 8.1 3.8 11.27 3.31 18.5 1.76 49.87-245.24 68.44-205.15 76.45-201.15 7.12 3.56-63.34 103.39-60.59 201.15 0 .7 10.76.58 10.76.58s134.19-226.65 113.37-259c-100.8-46.62-140.83-63.96-190.23.06z" fill="#a59581"/><path d="m823.34 1179.24c6.91 2 13.69 3.71 20.41 5.4 3.38.81 6.69 1.67 10 2.4s6.66 1.52 10 2.24a17.63 17.63 0 0 1 4.47 2.12c1.43.83 3 1.41 4.48 2.1 3 1.33 6.06 2.59 9.12 3.83q9.17 3.68 18.56 6.75a272.11 272.11 0 0 0 38.15 9.53 230.37 230.37 0 0 0 38.9 3.48 196.58 196.58 0 0 0 75.69-14.54l2.25-.91 2.21-1 4.42-2c2.89-1.45 5.84-2.79 8.67-4.36 1.42-.78 2.86-1.51 4.27-2.31l4.2-2.44a46.59 46.59 0 0 0 4.12-2.59c.66-.47 1.27-1 2-1.46a10.18 10.18 0 0 1 2.19-1.09c3.12-1.17 6.33-2.26 9.45-3.57l4.76-1.87c1.56-.68 3.14-1.36 4.73-2 3.21-1.32 6.33-2.8 9.55-4.22s6.36-3 9.67-4.45c-1.78 3.09-3.63 6.18-5.61 9.17s-4 6-6.27 8.79a179.93 179.93 0 0 1 -14.2 16.55 9.41 9.41 0 0 1 -2.12 1.67c-.77.46-1.6.83-2.38 1.26s-1.55.9-2.31 1.38-1.54.92-2.31 1.37l-4.65 2.7c-1.56.89-3.16 1.71-4.74 2.56-3.13 1.74-6.4 3.24-9.62 4.84l-4.92 2.21-2.46 1.09-2.5 1a213.29 213.29 0 0 1 -41.3 12.26 210.6 210.6 0 0 1 -21.34 3c-7.14.65-14.31 1-21.47.93a251.44 251.44 0 0 1 -42.58-3.8 294.13 294.13 0 0 1 -41.23-10.3q-10.08-3.3-19.92-7.24c-3.27-1.33-6.53-2.68-9.76-4.1l-2.42-1.07c-.8-.36-1.61-.72-2.44-1a17.52 17.52 0 0 1 -4.82-2.2 204.11 204.11 0 0 1 -16.36-14.13 135.71 135.71 0 0 1 -14.54-15.98z"/><path d="m827.2 1020.78c-9.91 31.09-76.87 78.4-136 63.15-84.61-21.83-81.59-65.35-75.42-75 18.81-29.32 67.54 23.3 98.87 30.1 31.67 6.9 126.79-62.94 112.55-18.25z" fill="#a8a29e"/><path d="m816.1 1020.75c-33.56 42.82-80.55 53.85-114.88 45.92-48.83-11.27-89.36-40.55-70.73-51 17.07-9.56 52 25.25 81.06 31.53 29.29 6.38 131.34-60.63 104.55-26.45z" fill="#14110e"/></svg>