<svg viewBox="0 0 2000 2000" xmlns="http://www.w3.org/2000/svg"><path d="m413.28 679.71s74.37 9.1 57.18 138.59c-29.43-41-20.28-.11-9.17 68.76-54.09-29.57 39.42 79.22 41.64 165.87s49.89 182.34 41.61 233.35-17.17 151-17.17 151l-92.54 75s-139.21-140-123.66-180-73.94-27.84-37.45-122.92c35.56 40.94 19.23-26.54-32.65-106.59-23.23-35.85 43.21-138.28-29.77-94.11-37.91-57.86 54.79-131.09 4.75-104.43-4.44-57.76 32.75-116.11 11-84.63-34.71-45.49-10-121.09-10-121.09s-14-19-5.15-27.93 60-33.32 102.19-24.43 99.19 33.56 99.19 33.56z" fill="#6d4224"/><path d="m203 538.91s-33-95.91 28.41-247.73c0 0 13.4-13.2 20.89-16.26-11.79 318.88 22.28 227.17 20.38 206.92-3.58-38.34-7.61-171.7 4.65-208.86 9.16-2.73 12.43-1.71 19.81 1.08 13.63 266.9 39.62 227.53 48.72 224.58 8.08-2.63-50.43-119.26-32-222 .13-.74 11.46 1.1 11.46 1.1s105.68 260.64 78.51 291.54c-113.83 33.17-158.89 45.11-200.83-30.37z" fill="#938373"/><path d="m544.54 1286.28s61.56-29 155.72-36.21 391.13 10.86 402 10.86 271.93-46.26 297.28-10c6.34 9-8.29 36.35 17 57.86-87.79-4 48.75 15.17 62.85 26.93-71.83 19 150.35 148.28 136.68 162-21.73 21.73-357.2-1.47-560-16s-263.65 30.28-401.27 33.86-235.19 7.55-227.95-3.32c4.45-6.67 141.11-170 23.73-156.77 11.45-8.73 62-38.67 28-42 18.42-17.63 65.96-27.21 65.96-27.21z" fill="#6d4224"/><path d="m559.91 771.64c28.75-81.64 43.09-160.76 114.87-145.83s163.76 7.71 110.45-20.67c38.66-32.15 82.53 4 134.45 6.26s92-17.74 141.68-25.78c-77.84 92.16 106-14.93 128.12 18.37-65 8.79 17.67 65.45 72.9 83.82s90.57-8 113.76 36.75-1.1 19.52 27.62 91.86 37.55 75.76 53 120.54c-60.23-28.92 4.86 58.93-4 102.57s-32 91.87-27.61 118.28 9.5 76.57-7.06 96.09-48.6 14.93-64.07 65.46-58.53 104.5-101.61 135.5-60.32 22.59-116.65 68.52c23.32-65.62-154.26 2.83-104.75 46.45-93.89 0-227.09-70.58-199.92-19.52-93.88-19.52-107.84 14.77-142.08-62.16 31.11-61.51-58.44-71.18-88.26-91.85s-116-87.28-119.29-114.84 52.43-134.4 14.88-196.41-43.08-89.57-32-112.54c9.07 70.36 150.73-201.38 95.57-200.87z" fill="#84542b"/><path d="m645 1265.46s17 12 34.89 5.54-57.52-23.1 93.35 24.94 299.86 45.26 299.86 45.26 7.54-14.78 114.1-38.79 122.58-71.13 112.21-30.49 30.8 67.83-37.1 101.09-91.73 75.09-117.19 81.55-54.69 2.77-111.27 17.55-86.75 30.49-113.15 24-68.84-10.16-114.1-37-104.81-86.3-132.15-110.32-29.45-83.33-29.45-83.33z" fill="#754623"/><path d="m967.56 734.12c-19.07-24.8 164.56-42.5 111.22-56.88 10.67-16.23 9.9-49.46 91.91 3.94 28.6 18.63 45.88 19.55 55.2 31.54-29.22 6 19.78 27.59 34.32 37.57-32 14.38 27 16.28 49.16 23.19 85.83 26.7 67.32 18.33 80.67 83.18-84-32.09 21.13 140.2 21.13 155.46s-32.58 33.37-34.48 52.44-198.37 82-198.37 82l-72.48-85.84-5.72-156.4z" fill="#935d35"/><path d="m538 948.39c-6.4-28.81 104-153.46 64.4-137.12 1.08-16.14 35.49-53.89-3.1-39.35-4.3-23.92 28.78-50.31 43.41-59.31 8.12-5 54.2-5.31 36-17.74 8.41-4.59 21.61-16.69 35.85-22.91 12.46-5.44 51.84 3.53 37.88-9.55 9.84-10.48 20.35-16.14 26.92-16.37 17-.59 177 57.56 139.79-8.51 48.54-20.32 43.29 15.21 90.09 35.1-63.18 11.12 3 20.68 81.34 18.92 0 0-28.68 78.78-74.9 58.31s-2.66-8.51-120.25-6.76-72.88-6.47-92.19 8.74-28.64 8.16-45.61 40.36-5.09 33.63-45.46 47.67-174.17 108.52-174.17 108.52z" fill="#935d35"/><path d="m525.91 974.74c2.58-26.46 90.34-93.08 68.88-105.32 3.51-22.6 84.29-35.13 59.9-51.21 3.89-25.14 83.68-41.12 67.67-58.29 59.91-41.84 98.06-39.63 128.15-41.1-21.29 38.58 104.2 7.93 225.84 7 31-8 128.65-15.68 165.81 74.68-29.85 20 32.67 19.37 62.6 61.27-106.58-1.14 105.08 26.61 107 149.6-23.21-25.89 4.06 103.13-69.77 178.95s-13.29 89.14-60.13 112.56c2.42-30.69-79.42 110.81-117.33 120.79 3.73-17.42-65.85 5.4-136.47 16.15-66.89 10.18-135.1 7.35-129.21 25-49.88-16-166.43-91.43-194.36-118.37s-53.63-73.86-81.56-88.82-55.42-58.66-81-74.39c-33.99-20.87 19.59-217.64-16.02-208.5z" fill="#bcafa4" stroke="#bcafa4" stroke-miterlimit="10" stroke-width="4"/><path d="m556.54 978.54c148.01-199.54 206.46-204.3 269.63-245.54-40.41 61.45 152.36-.84 231.18 17.09-45.14 37.63 128.27 105 163.77 98 43.29 18.43 82.64 31.66 112.57 73.56s50.31 95.8 51.31 102.78 31.49 87.77-42.33 163.59-66.85 92.78-80.81 103.75-111.32 103.83-149.23 113.81-147.63 40.92-197.53 24.96c24.13-31.06-157-55-185-81.89s-69.84-79.81-97.77-94.77-46.89-23.94-54.87-52.87-79.08-144.01-20.92-222.47z" fill="#cabdb1"/><path d="m1092.26 944.62c14-38.91 55.54-26 35.13-38.22 18-3 67.78-15.66 85.7-5.83-30.47 13.32 14.49 14.62 28.82 25.09-30.57 5.81 61.68 21.09 88.95 35.54-35.11 1.62 10.81 24.32 25.77 37.29s22.95 11 24.94 38.91 16.88 78-8.94 112.82c-27.42 36.92-42.18 56.29-53.9 60.76-23-19-50.88-30.92-73.83-32.92s-21-11-65.84-46.89-84.8-39.9-101.76-54.87-29.93-26.93-23-63.85 18-50.87 27.94-59.85 10.02-7.98 10.02-7.98z" fill="#f2e9e1"/><path d="m1179.1 941.31s34.81 4.26 51.15 5.33 46.17 8.52 60.38 14.56 33.74 18.82 44 35.16 6.39 15.63 19.89 30.19 32.27-6.22 33.33 5.5 13.22 42.32-8 96.44c-1.39 3.56-38.14 27.7-55.18 16.33s-41.2-15.62-53.64-16.33-50.79-1.07-59.31-4.62-31.33-22.14-44.4-24.86c-17.63-3.68-37.84-13.43-47.24-23.8-11-12.14-25.92-15.63-31.61-22.73s-23.44-28.77-13.49-39.43 22.37-23.08 29.83-27 14.92-14.21 23.44-20.95 18.12-22.74 27.71-23.8 23.14.01 23.14.01z" fill="#8e8883"/><path d="m1111.77 1010.65c-10 61 11.79-4 72.1 9.62 86.33 19.52 146.87 57.35 130.46 19.65-24-55.12-60-68.93-91.36-77.33-31.68-8.48-103.49 1.18-111.2 48.06z" fill="#a8a29e"/><path d="m553.55 1045.38c2.22-26.47 49.94-58.31 34.57-67.85 24.11-6.78 83.26-26.61 66.46-46.06 22.63-9.12 96.07-29.52 75.79-49 39.9-1 91.54-12.71 120.47 10.24s41.9 41.9 38.9 67.84-5 48.88-2 60.85 15 21-7 39.91-71.83 73.82-80.81 83.8-62.85 38.91-79.81 58.86-15 38.91-34.92 42.9-39.9 10-52.87 7-89.76-77.8-78.78-208.49z" fill="#f2e9e1"/><path d="m538.63 1030.56c1.25-12.19 48.73 11.63 59.74-13.94s50.63-41.16 69.46-53.24 47.95-23.79 71.39-24.5 74.94-1.07 84.89 3.9 37.64 25.93 39.42 40.14-15.27 58.6-26.64 68.19-52.21 38.72-64.28 44.4-70.22 26.09-82.76 36.58c-69.32 58-137.66 6-137.66 6s-18.8-56.16-13.56-107.53z" fill="#8e8883"/><path d="m1114.24 1013.58c-9.17 55.5 31.7-30.16 106.27-14.65 66 13.73 75.91 78.66 81.26 41.75 5.16-35.6-55.54-63.81-84.58-71.58-29.33-7.85-95.77 1.09-102.95 44.48z" fill="#14110e"/><path d="m808.14 1114c47.61-23.52 68.24-40.71 49.55-50.49 33.65-31.14 25.12-80.12 100.07-85.57 54.06-3.93 72.85 12.35 78.84 19.34s23.21 45.1 64.9 74.23c-44.49-2.66 60.66 59.89 80.25 100.07 9.82 20.15-27.13 54.44-41.1 57.43 8-42.71-77.4 149.72-96.6 173.22.63-21.48-33.95 1.43-69 2.15-35.52.73-71.52-20.51-64.65-6.14-62.59-41-123.2-196.79-150.56-201.26s83.61-95.2 48.3-82.98z" fill="#726b65"/><path d="m918.37 1002.64c0 2.5-31.66 80.81-40.82 90.81s21.66.83 21.66.83 52.48-2.49 84.14-1.66 66.65.83 66.65.83 27.49 12.5 20 1.67-11.66-20.83-21.66-52.49-25-51.65-49.15-49.15-64.15-3.33-69.15 0a141.66 141.66 0 0 0 -11.67 9.16z" fill="#8e8883"/><path d="m874.13 1147.63s-9.59 15-15.73 10-18-43.33-10.35-49.85 39.5-26.08 52.16-29.15 67.49-11.51 100.09-7.67 34.52 4.22 56.38 13.81 41 24.16 41.8 28.38 3.84 15.34 2.3 22.24-10 16.11-16.11 19.56-15.82-5.45-18.88-7.37c0 0-20.85 18.82-97.85 20.85s-93.81-20.8-93.81-20.8z" fill="#49403a"/><path d="m861.09 1147.62a102.36 102.36 0 0 1 5.63-22.27 57.73 57.73 0 0 1 5-10.08c3.56-5.56 8.23-10 14.29-11.37 20.32-4.61 35.28-9.21 46.78 5.37 13.08 16.56 18.41 48.32 3.46 47.17s-15.73-9.59-22.63-20.33-4-11.6-11.27-13.14-15.48 1.48-23.92 4.16-17.34 20.49-17.34 20.49z" fill="#14110e"/><path d="m1077.39 1141.48s-1.54-30.3-12.27-38.16c-16.82-12.31-40.66-5.56-52.16 9-13.08 16.57-17.26 36.82-2.3 35.67s19.94-1.72 26.85-12.46 11.71-13.86 20.15-11.18 19.73 17.13 19.73 17.13z" fill="#14110e"/><path d="m926.36 1086.59c1.71-.48 111.22-17.8 111.22-3.11 0 1.34 3.12 15.13-6.67 11.12s-20-15.12-35.59-8.45-32 7.56-54.73 6.23-17.35-4.9-14.23-5.79z" fill="#93837a"/><path d="m290.91 544.55c22.43-.72 41.77 17.5 59 16.88 133.17-4.82 122.64-25.38 127.61-19.73 1.62 1.84-.68 50.56-16.36 87.79-15 35.51-43.88 59.87-20.58 51.41-25.73 40.73-82 53.61-67.68 56.58 0 0-155.49 15.32-197.3-43.39 50.76 4.83-42.41-64.13-36.29-92.27 32.69 18.18-43.99-50.98 151.6-57.27z" fill="#8c5b35"/><path d="m1544.26 1575.24c-19.26.1-35.43-16-50.24-15.83-114.32 1.09-105.77 19-109.9 14-1.34-1.62 1.74-43.35 16-74.93 13.64-30.11 39-50.34 18.83-43.62 23-34.34 71.53-44.11 59.34-47 0 0 133.7-9.58 168.22 41.72-43.42-5.3 34.91 56 29 80-27.51-16.3 36.64 44.72-131.25 45.66z" fill="#8c5b35"/><path d="m1442.16 1524.08s-44 84.21-8.24 233.36c0 0 10.57 14.1 17.07 18 33.59-296.92 52.33-207.24 47.76-188.76-8.67 35-31 157.93-24.85 194 8.1 3.8 11.27 3.31 18.5 1.76 49.87-245.24 68.44-205.15 76.45-201.15 7.12 3.56-63.34 103.39-60.59 201.15 0 .7 10.76.58 10.76.58s134.19-226.65 113.37-259c-100.8-46.62-140.83-63.96-190.23.06z" fill="#a59581"/><path d="m823 1014.1c10 61-11.8-4-72.1 9.62-86.33 19.52-146.87 57.35-130.46 19.65 24-55.13 60-68.93 91.35-77.33 31.67-8.48 103.47 1.18 111.21 48.06z" fill="#a8a29e"/><path d="m820.5 1017c9.18 55.5-31.7-30.16-106.26-14.65-66 13.73-75.92 78.66-81.26 41.75-5.16-35.6 55.53-63.81 84.57-71.59 29.33-7.82 95.78 1.13 102.95 44.49z" fill="#14110e"/><path d="m843.47 1192.27s219.21 39.15 262.27 0c0 0 5.87 107.65-101.78 160.49-51.13 25.11-83.72 4.28-104.26-26-22.7-33.41-30.7-78.36-32.7-85.56-4-13.7-9.83-46.97-23.53-48.93z" fill="#14110e"/><path d="m1105.79 1194.58v-.13c0-.47 0-.87 0-1.19v-.16c0-.08 0-.16 0-.23v-.18a1.21 1.21 0 0 1 0-.18v-.24c-43.06 39.15-262.27 0-262.27 0 9.57 1.37 15.32 18 19.25 32.6 22.62 1.67 52.53 3.11 62.07 2.69 15.91-.71 123.35 1.06 132.54.7s25.09-.7 28.63-1.76c1.73-.53 9.46-1.82 17.11-3.25.2-1.08.38-2.14.55-3.18 0-.11 0-.23.05-.35.26-1.59.49-3.14.69-4.62v-.1a160.31 160.31 0 0 0 1.36-16.12c0-.89 0-1.7.06-2.42v-.08c-.03-.67-.03-1.27-.04-1.8z" fill="#efefef"/><path d="m984.7 1319.05s-41.12-23.71-88.82 1.77q1.85 3 3.82 6c20.54 30.26 53.13 51.09 104.26 26a187.71 187.71 0 0 0 52.49-37.56c-24.39-6.52-51.28-8.49-71.75 3.79z" fill="#da4e62"/></svg>