<svg viewBox="0 0 2000 2000" xmlns="http://www.w3.org/2000/svg"><path d="m544.54 1286.28s61.56-29 155.72-36.21 391.13 10.86 402 10.86 271.93-46.26 297.28-10c6.34 9-8.29 36.35 17 57.86-87.79-4 48.75 15.17 62.85 26.93-71.83 19 150.35 148.28 136.68 162-21.73 21.73-305.72 28.81-508.53 14.33s-315.07 0-452.69 3.62-338.95-3.09-331.7-14c4.45-6.67 244.86-159.34 127.48-146.13 11.45-8.73 62-38.67 28-42 18.37-17.68 65.91-27.26 65.91-27.26z" fill="#6d4224"/><path d="m559.91 771.64c28.75-81.64 43.09-160.76 114.87-145.83s163.76 7.71 110.45-20.67c38.66-32.15 82.53 4 134.45 6.26s92-17.74 141.68-25.78c-77.84 92.16 106-14.93 128.12 18.37-65 8.79 17.67 65.45 72.9 83.82s90.57-8 113.76 36.75-1.1 19.52 27.62 91.86 37.55 75.76 53 120.54c-60.23-28.92 4.86 58.93-4 102.57s-32 91.87-27.61 118.28 9.5 76.57-7.06 96.09-48.6 14.93-64.07 65.46-58.53 104.5-101.61 135.5-60.32 22.59-116.65 68.52c23.32-65.62-154.26 2.83-104.75 46.45-93.89 0-227.09-70.58-199.92-19.52-93.88-19.52-107.84 14.77-142.08-62.16 31.11-61.51-58.44-71.18-88.26-91.85s-116-87.28-119.29-114.84 52.43-134.4 14.88-196.41-43.08-89.57-32-112.54c9.07 70.36 150.73-201.38 95.57-200.87z" fill="#84542b"/><path d="m645 1265.46s17 12 34.89 5.54-57.52-23.1 93.35 24.94 299.86 45.26 299.86 45.26 7.54-14.78 114.1-38.79 122.58-71.13 112.21-30.49 17.91 44.34-50 77.6-100.89 48-126.35 54.5-54.7 2.77-111.27 17.55-86.76 30.49-113.16 24-68.83-10.16-114.1-36.95-64.12-21.25-91.46-45.26-48.07-97.9-48.07-97.9z" fill="#754623"/><path d="m967.56 734.12c-19.07-24.8 164.56-42.5 111.22-56.88 10.67-16.23 9.9-49.46 91.91 3.94 28.6 18.63 45.88 19.55 55.2 31.54-29.22 6 19.78 27.59 34.32 37.57-32 14.38 27 16.28 49.16 23.19 85.83 26.7 67.32 18.33 80.67 83.18-84-32.09 21.13 140.2 21.13 155.46s-32.58 33.37-34.48 52.44-198.37 82-198.37 82l-72.48-85.84-5.72-156.4z" fill="#935d35"/><path d="m538 948.39c-6.4-28.81 104-153.46 64.4-137.12 1.08-16.14 35.49-53.89-3.1-39.35-4.3-23.92 28.78-50.31 43.41-59.31 8.12-5 54.2-5.31 36-17.74 8.41-4.59 21.61-16.69 35.85-22.91 12.46-5.44 51.84 3.53 37.88-9.55 9.84-10.48 20.35-16.14 26.92-16.37 17-.59 177 57.56 139.79-8.51 48.54-20.32 43.29 15.21 90.09 35.1-63.18 11.12 3 20.68 81.34 18.92 0 0-28.68 78.78-74.9 58.31s-2.66-8.51-120.25-6.76-72.88-6.47-92.19 8.74-28.64 8.16-45.61 40.36-5.09 33.63-45.46 47.67-174.17 108.52-174.17 108.52z" fill="#935d35"/><path d="m525.91 974.74c2.58-26.46 90.34-93.08 68.88-105.32 3.51-22.6 84.29-35.13 59.9-51.21 3.89-25.14 83.68-41.12 67.67-58.29 59.91-41.84 98.06-39.63 128.15-41.1-21.29 38.58 104.2 7.93 225.84 7 31-8 128.65-15.68 165.81 74.68-29.85 20 32.67 19.37 62.6 61.27-106.58-1.14 105.08 26.61 107 149.6-23.21-25.89 4.06 103.13-69.77 178.95s-13.29 89.14-60.13 112.56c2.42-30.69-80.79 58.66-118.7 68.64 3.73-17.42-65.85 5.4-136.47 16.15-66.89 10.18-135.1 7.36-129.21 25-49.88-16-165.06-39.28-193-66.22s-53.63-73.86-81.56-88.82-55.42-58.66-81-74.39c-33.98-20.87 19.6-217.64-16.01-208.5z" fill="#bcafa4" stroke="#bcafa4" stroke-miterlimit="10" stroke-width="4"/><path d="m556.54 978.54c148.01-199.54 206.46-204.3 269.63-245.54-40.41 61.45 152.36-.84 231.18 17.09-45.14 37.63 128.27 105 163.77 98 43.29 18.43 82.64 31.66 112.57 73.56s50.31 95.8 51.31 102.78 31.49 87.77-42.33 163.59-66.85 92.78-80.81 103.75-116.72 50.88-154.63 60.85-147.65 40.91-197.53 24.94c24.13-31.06-151.64-2-179.57-28.93s-69.84-79.81-97.77-94.77-46.89-23.94-54.87-52.87-79.11-143.99-20.95-222.45z" fill="#cabdb1"/><path d="m1092.26 944.62c14-38.91 55.54-26 35.13-38.22 18-3 67.78-15.66 85.7-5.83-30.47 13.32 14.49 14.62 28.82 25.09-30.57 5.81 61.68 21.09 88.95 35.54-35.11 1.62 10.81 24.32 25.77 37.29s22.95 11 24.94 38.91 16.88 78-8.94 112.82c-27.42 36.92-42.18 56.29-53.9 60.76-23-19-50.88-30.92-73.83-32.92s-21-11-65.84-46.89-84.8-39.9-101.76-54.87-29.93-26.93-23-63.85 18-50.87 27.94-59.85 10.02-7.98 10.02-7.98z" fill="#f2e9e1"/><path d="m1179.1 941.31s34.81 4.26 51.15 5.33 46.17 8.52 60.38 14.56 33.74 18.82 44 35.16 6.39 15.63 19.89 30.19 32.27-6.22 33.33 5.5 13.22 42.32-8 96.44c-1.39 3.56-38.14 27.7-55.18 16.33s-41.2-15.62-53.64-16.33-50.79-1.07-59.31-4.62-31.33-22.14-44.4-24.86c-17.63-3.68-37.84-13.43-47.24-23.8-11-12.14-25.92-15.63-31.61-22.73s-23.44-28.77-13.49-39.43 22.37-23.08 29.83-27 14.92-14.21 23.44-20.95 18.12-22.74 27.71-23.8 23.14.01 23.14.01z" fill="#8e8883"/><path d="m1137.06 1009.21c-1.32 55.11 44.88 95.24 99.81 99.82 78.65 6.55 101.83-67.8 82.67-99-28-45.71-61.5-53.44-90.24-57-29.03-3.59-91.24 13.83-92.24 56.18z" fill="#a8a29e"/><path d="m553.55 1045.38c2.22-26.47 49.94-58.31 34.57-67.85 24.11-6.78 83.26-26.61 66.46-46.06 22.63-9.12 96.07-29.52 75.79-49 39.9-1 91.54-12.71 120.47 10.24s41.9 41.9 38.9 67.84-5 48.88-2 60.85 15 21-7 39.91-71.83 73.82-80.81 83.8-62.85 38.91-79.81 58.86-15 38.91-34.92 42.9-39.9 10-52.87 7-89.76-77.8-78.78-208.49z" fill="#f2e9e1"/><path d="m538.63 1030.56c1.25-12.19 48.73 11.63 59.74-13.94s50.63-41.16 69.46-53.24 47.95-23.79 71.39-24.5 74.94-1.07 84.89 3.9 37.64 25.93 39.42 40.14-15.27 58.6-26.64 68.19-52.21 38.72-64.28 44.4-70.22 26.09-82.76 36.58c-69.32 58-137.66 6-137.66 6s-18.8-56.16-13.56-107.53z" fill="#8e8883"/><path d="m810.48 1010.23c1.32 55.44-45.14 95.8-100.41 100.41-79.11 6.59-102.72-39.77-74-87.23 27.89-46.15 44.63-69.47 80.13-72.52 29.27-2.51 93.27 16.74 94.28 59.34z" fill="#a8a29e"/><path d="m805.87 1009.82c1.21 50.76-41.34 87.73-91.94 91.94-72.45 6-94.07-36.41-67.8-79.87 25.54-42.26 40.86-63.62 73.37-66.4 26.84-2.31 85.5 15.32 86.37 54.33z" fill="#14110e"/><path d="m1140.78 1009.73c-1.21 51 41.55 88.17 92.41 92.41 72.81 6.07 94.26-62.76 76.53-91.7-25.93-42.31-56.94-49.47-83.54-52.74-26.87-3.3-84.47 12.83-85.4 52.03z" fill="#14110e"/><path d="m808.14 1114c47.61-23.52 68.24-40.71 49.55-50.49 33.65-31.14 25.12-80.12 100.07-85.57 54.06-3.93 72.85 12.35 78.84 19.34s23.21 45.1 64.9 74.23c-44.49-2.66 60.66 59.89 80.25 100.07 9.82 20.15-27.13 54.44-41.1 57.43 8-42.71-88.84 33.08-108 56.58.63-21.48-33.95 1.43-69 2.15-35.53.73-71.52-20.51-64.65-6.14-62.6-41-111.76-80.15-139.12-84.62s83.57-95.2 48.26-82.98z" fill="#726b65"/><g fill="#fff"><path d="m1245 975.71s-16-2.41-13.23 6 4.14 9.31 15 14.21 13.45 13.85 19.59 19.93 11.39 10.71 14 16.6 4.87 11.8 5.48 13 12 3 13.31-2.2 1.66-10.08-1.09-15.19-1.12-9.84-10.38-19.46-11.41-13.77-19.3-19.44-14-12-17.63-12.2a15.61 15.61 0 0 1 -5.75-1.25z"/><path d="m723.72 965.18c-6 .3-9 5.15-7.06 10s2.37 8.51 6 8.66 9.39 1.9 12-4.51 2.79-7.07-.7-10-4.23-4.45-10.24-4.15z"/><path d="m708.22 989.69c-3.2 4.51-18.28 18.88-23.29 30-3.7 8.21-13.1 37.55-13.1 37.55s-8.87 2.33-9.75-.14-.07-25.84 14.8-50.46c4.51-7.47 14.85-19.82 16.2-21 10.97-9.64 18.34-.46 15.14 4.05z"/></g><path d="m803.8 1180.47c7.59-.85 15-2.17 22.78-2.79a76.15 76.15 0 0 1 23.66 1.67c1 .21 1.94.47 2.91.72s1.91.59 2.84 1c1.85.75 3.64 1.6 5.43 2.44 3.59 1.63 7.07 3.44 10.47 5.36l2.53 1.46 1.38.86 1.32.9a53.89 53.89 0 0 1 4.82 3.9c3 2.71 5.7 5.56 8.31 8.38 5.19 5.61 10.07 11.27 15.53 15.63a41.51 41.51 0 0 0 4.16 2.94c.72.41 1.43.81 2.16 1.16s1.41.65 2.33 1c3.44 1.42 6.93 2.72 10.42 4a171.69 171.69 0 0 0 21.31 6 106.09 106.09 0 0 0 21.63 2.4c14.36 0 28.57-4.32 41.83-10.65s25.82-14.62 38.22-23.23l9.32-6.51 4.7-3.25c1.59-1.09 3.11-2.15 4.83-3.25 3.36-2.18 6.88-4 10.41-5.89a39.21 39.21 0 0 1 5.55-2.13c1.89-.62 3.79-1.16 5.69-1.66a109 109 0 0 1 23.13-3.5 92.13 92.13 0 0 1 23 1.73 110.51 110.51 0 0 0 -43.56 9.12c-1.68.74-3.34 1.5-5 2.32s-3.21 1.7-4.86 2.44a65.61 65.61 0 0 0 -9.48 5.13c-1.47.95-3.06 2.06-4.6 3.11l-4.66 3.22-9.31 6.5c-12.5 8.68-25.39 17.24-39.48 24a128.54 128.54 0 0 1 -22 8.26 93.19 93.19 0 0 1 -23.61 3.26 115 115 0 0 1 -23.51-2.59 179.49 179.49 0 0 1 -22.45-6.36c-3.64-1.3-7.27-2.65-10.84-4.12-.84-.33-1.9-.78-2.88-1.26s-1.92-1-2.85-1.54a50.52 50.52 0 0 1 -5.13-3.61c-6.41-5.14-11.44-11.08-16.54-16.57-2.54-2.75-5.07-5.42-7.7-7.78a44.15 44.15 0 0 0 -4-3.26l-1-.7-1-.65-2.39-1.37c-3.21-1.82-6.47-3.51-9.78-5-1.65-.75-3.36-1.36-5-2s-3.31-1.41-5-2.1a68.26 68.26 0 0 0 -10.28-3.36 89 89 0 0 0 -10.87-1.85c-3.71-.42-7.49-.64-11.29-.89s-7.81-.59-11.6-1.04z" fill="#14110e"/><path d="m945 1203.63c18-.24 42.73.24 56.41 1s43.83 6.38 43.83 6.38-41.68 28.89-52 29.37-47.53 2.4-57.38-1.68-43-26.36-46.6-29 37.74-5.83 55.74-6.07z" fill="#14110e"/><path d="m918.37 1002.64c0 2.5-31.66 80.81-40.82 90.81s21.66.83 21.66.83 52.48-2.49 84.14-1.66 66.65.83 66.65.83 27.49 12.5 20 1.67-11.66-20.83-21.66-52.49-25-51.65-49.15-49.15-64.15-3.33-69.15 0a141.66 141.66 0 0 0 -11.67 9.16z" fill="#8e8883"/><path d="m874.13 1147.63s-9.59 15-15.73 10-18-43.33-10.35-49.85 39.5-26.08 52.16-29.15 67.49-11.51 100.09-7.67 34.52 4.22 56.38 13.81 41 24.16 41.8 28.38 3.84 15.34 2.3 22.24-10 16.11-16.11 19.56-15.82-5.45-18.88-7.37c0 0-20.85 18.82-97.85 20.85s-93.81-20.8-93.81-20.8z" fill="#49403a"/><path d="m861.09 1147.62a102.36 102.36 0 0 1 5.63-22.27 57.73 57.73 0 0 1 5-10.08c3.56-5.56 8.23-10 14.29-11.37 20.32-4.61 35.28-9.21 46.78 5.37 13.08 16.56 18.41 48.32 3.46 47.17s-15.73-9.59-22.63-20.33-4-11.6-11.27-13.14-15.48 1.48-23.92 4.16-17.34 20.49-17.34 20.49z" fill="#14110e"/><path d="m1077.39 1141.48s-1.54-30.3-12.27-38.16c-16.82-12.31-40.66-5.56-52.16 9-13.08 16.57-17.26 36.82-2.3 35.67s19.94-1.72 26.85-12.46 11.71-13.86 20.15-11.18 19.73 17.13 19.73 17.13z" fill="#14110e"/><path d="m705.69 1056.51c15.91 0 38.61-20.11 44.24-27.35s6.44-12.47 8.85-14.88 19.3 7.64 20.11 14.47-3.62 21.72-16.89 31-29.77 23.73-41.83 22.93-29.76 0-31-4.83 12.5-21.34 16.52-21.34z" fill="#231e1a"/><path d="m1238.19 1055.05c-16.14 0-39.17-20.4-44.88-27.74s-6.53-12.65-9-15.09-19.59 7.75-20.4 14.68 3.67 22 17.13 31.42 30.19 24.07 42.43 23.25 30.19 0 31.42-4.89-12.62-21.63-16.7-21.63z" fill="#231e1a"/><path d="m926.36 1086.59c1.71-.48 111.22-17.8 111.22-3.11 0 1.34 3.12 15.13-6.67 11.12s-20-15.12-35.59-8.45-32 7.56-54.73 6.23-17.35-4.9-14.23-5.79z" fill="#93837a"/><path d="m390.15 1548.63c19.26.11 35.43-16 50.24-15.83 114.32 1.1 105.76 19 109.89 14 1.35-1.61-1.74-43.34-16-74.92-13.64-30.11-39-50.35-18.83-43.62-23-34.34-71.53-44.11-59.34-47 0 0-133.71-9.59-168.22 41.71 43.42-5.29-34.91 56-29 80 27.56-16.3-36.63 44.73 131.26 45.66z" fill="#8c5b35"/><path d="m492.25 1497.48s44 84.2 8.24 233.36c0 0-10.57 14.1-17.07 18-33.6-296.92-52.34-207.24-47.76-188.76 8.67 35 31 157.92 24.85 194-8.11 3.81-11.27 3.32-18.5 1.77-49.87-245.24-68.44-205.16-76.45-201.15-7.12 3.56 63.34 103.39 60.59 201.15 0 .7-10.76.58-10.76.58s-134.2-226.63-113.39-259.03c100.82-46.61 140.85-63.94 190.25.08z" fill="#a59581"/><path d="m1544.26 1575.24c-19.26.1-35.43-16-50.24-15.83-114.32 1.09-105.77 19-109.9 14-1.34-1.62 1.74-43.35 16-74.93 13.64-30.11 39-50.34 18.83-43.62 23-34.34 71.53-44.11 59.34-47 0 0 133.7-9.58 168.22 41.72-43.42-5.3 34.91 56 29 80-27.51-16.3 36.64 44.72-131.25 45.66z" fill="#8c5b35"/><path d="m1442.16 1524.08s-44 84.21-8.24 233.36c0 0 10.57 14.1 17.07 18 33.59-296.92 52.33-207.24 47.76-188.76-8.67 35-31 157.93-24.85 194 8.1 3.8 11.27 3.31 18.5 1.76 49.87-245.24 68.44-205.15 76.45-201.15 7.12 3.56-63.34 103.39-60.59 201.15 0 .7 10.76.58 10.76.58s134.19-226.65 113.37-259c-100.8-46.62-140.83-63.96-190.23.06z" fill="#a59581"/></svg>