<svg viewBox="0 0 737.58 737.58" xmlns="http://www.w3.org/2000/svg" xmlns:xlink="http://www.w3.org/1999/xlink"><radialGradient id="a" cx="354.16" cy="444.93" gradientTransform="matrix(.02 1 -1.71 .04 1109.45 74.76)" gradientUnits="userSpaceOnUse" r="460.53"><stop offset=".25" stop-color="#01cde0"/><stop offset=".37" stop-color="#01c9dc"/><stop offset=".48" stop-color="#01bed2"/><stop offset=".56" stop-color="#01b2c6"/></radialGradient><path d="m98.82 583.56s87.41-73 224.53-78.61 210.79 27.85 211.85 27.85 96.75 43 99.31 45.82 16.66 13.75 18.07 19-9.32 51.9-167.24 67.38-212.26 7-300.63-9.92-96.82-58.08-85.89-71.52z" fill="url(#a)"/><path d="m184.92 494.2c21 11.1 42.79-1.68 55.29-3.29s90.61.76 90.61.76l10.74 6.49 23.37 1.36 7.76 4.35 20.46-.34 4.86-4.71 27.4 6.71 65.38-24.74s11.88-10.13 23.66-7.38 18.12 5.79 18.12 5.79l4.56 1.33 7.3 4.64s3.61-1.83 1.71 3.93-1.45 31-1.45 31l1.9 2.34-.05 11-6.57 2.1-5 17-19.07 10.1-3.69 24.67s-4.9-25.6-42.46-24.11c.55 18.83-11 6.39-91.12 26.89-93.88 24.01-51.49-39.09-125.63-24.76 7.64 14.47-4.4 18.7-8.84 21.32-11.3 6.65-26.71-38.46-26.71-38.46s-2.29-1.07-8.14-5.67-9.31-13.86-9.31-13.86l-11.1-11.18s-9.9-26.48-3.98-23.28z" fill="#684229"/><path d="m436.62 238.86.34-30.81s1-3.24 3-.67.75 39.85.75 39.85v101.66l1.52 96.7 1 78.16-8 1.67-1.1-10.22 1-130.6z" fill="#946544"/><g fill="none" stroke="#1e1d1a" stroke-miterlimit="10"><path d="m443.76 254.79s52.43 197.81 76.6 261.84"/><path d="m447.26 252.45s54.61 182.56 79.82 263"/><path d="m439.68 251.09s47.87 198.85 73.14 268.69"/></g><path d="m409.69 253.43 21-10.48 27.81-3.38s-2.74 6.31 2.75 23c5.65 17.19 16.49 24.83 16.49 24.83s-20.27 3.17-28.29-1.78-25.66 6.47-27.14 9.86-10.82-22.19-10.82-22.19z" fill="#d6d6d6"/><path d="m438.59 400.92c.87-.14 51-1.65 51-1.65l22.57-.94s3.55 1.88.24 3.33-55.87 2.82-55.87 2.82l-23.54.69z" fill="#bf855c"/><path d="m401.9 403.68 103.31-.9s5.67 9.89-.07 14-27.68 10.8-31.66 14-11 18.34-18.37 18.65-18.61-.93-26.64-12a46.34 46.34 0 0 1 -5-8s-13.93.72-18-4-2.58-9-2.81-11.45-.76-10.3-.76-10.3z" fill="#bcbdc1"/><path d="m402.6 417.63c7.58 3.29 16.26 10.61 18.93 7.33s2.52-6.06 2.52-6.06 1.52 8.51 2.82 10.54 17.85 15.46 26.8 8.22 11.81-13.57 17.94-14.93 26.87-2.68 29.34-8.18c2.12-4.72 4.76-2.55 6.58-5.25 0 0 .71 5.56-1.66 6.94-12.7 7.39-23.16 9.41-29.53 12.69s-13.72 18.31-18.54 19.72-15.42-.48-18.89-2.21c-5.88-2.94-11.24-10.25-11.24-10.25s-1.79-2.94-4-6.55c-5.01-1.36-20 2.41-21.07-12.01z" fill="#9da0a6"/><path d="m390.45 302.35 89.55-7.5s-5.19 47.09 2.05 66.56 15 26.33 15 26.33l-50.15 1.56-45.32 2.83a35.92 35.92 0 0 1 -14.72-31.45c1.24-21.12 3.59-58.33 3.59-58.33z" fill="#bebebf"/><path d="m413.94 296.7c11.76.42 43.74-3.24 43.74-3.24l26.1-1.65 2.87.95s0 2.59-2.35 2.33-27.49 2.21-27.49 2.21l-38 2.46s-9 .49-10.7.8c-4.9.9-7.19-4.33 5.83-3.86z" fill="#bf855c"/><g fill="none" stroke-miterlimit="10"><path d="m369.22 181.9s3.59 66 66.44 62.23" stroke="#c9b57f"/><path d="m368.18 182.79s-5.18 81.79 66.82 61.5" stroke="#c9b57f"/><path d="m367 183.37s-8.28 98.34 67.71 60.76" stroke="#c9b57f"/></g><path d="m422.11 244.52c.78.27 35.63-7.62 35.63-7.62l5.87-.14s2.37 1.32-.46 2-18.32 4.24-18.32 4.24l-19.71 2.86.74-1.47z" fill="#b27c57"/><path d="m370.75 219.36s5.49 235.5 29.66 299.53" fill="none" stroke="#1e1d1a" stroke-miterlimit="10"/><path d="m374.24 217s7.68 220.23 32.89 300.66" fill="none" stroke="#1e1d1a" stroke-miterlimit="10"/><path d="m366.67 215.67s1.69 235.94 27 305.78" fill="none" stroke="#1e1d1a" stroke-miterlimit="10"/><path d="m366.53 195.13.13-47.12.14-6.72s3.28-3.14 3.28-.18a23.87 23.87 0 0 0 .22 4.76l.4 43.66 1 78.57 1.3 137.67.83 109.62-8.83 1.52-2.6-3.95.56-38.31 1.85-105.47z" fill="#946544"/><path d="m320.15 262.54c6.79-1.24 29.74-3 29.74-3l62.05-10.46s9.18-1.44 17.13-3.54c4-1.07-4.11-1.89-4.11-1.89l-37.26 5.35-39.2 6.66s-24.13 2.9-28.86 3.76c-1.23.19-2.34 3.64.51 3.12z" fill="#bf855c"/><path d="m319.92 264.11s-40.68 65.22-25.71 98.11c4 8.65 9.67 16.21 11.2 17s17.72-8.94 35.89-11.84 17.36-4.53 45.55-.76 54.56 8.16 56.84 5.38c-11.72-6-16.62-12.81-21.18-24.31-10.2-25.76-10.05-44.62-7.87-55.86s7.19-31.8 15.69-46.41z" fill="#c3c4c7"/><path d="m315.91 391.08c6.15-.88 130.42-8.44 130.42-8.44s6.45 1.31.82 5-86.08 5.54-113.41 7.17c0 0-17.2 1.28-19 1.28-2.15-.01-2.74-4.44 1.17-5.01z" fill="#bf855c"/><path d="m314.68 395.82c9.69-1.08 127-8 127-8l2.35.69s-1.38 12.21-4.88 15.11l-40 14.83-21.26 20s-23.73 5.56-33-11.54a76.36 76.36 0 0 0 -5.48-8.52s-17 3.75-23.64.65c-2.5-1.16-1-5-4.72-7.33s-6.44-8.89 3.63-15.89z" fill="#c3c4c7"/><path d="m308.67 408.11s18.15 7.57 21.49 5.7 6-3.25 6.48-6 1.27-6.57 1.48-1.06 1.88 11.71 5.88 13.9 15 5.56 20.15 5.07 15.5-.07 19.51-6.06 8-9.3 13.74-11.62 18.82-4.56 23.54-6.48 9.72-3 13.17-5.64 7.2-7.84 8.67-6.84c2.77 1.91 3 1.29 1.48 3.74s-.92 7.54-5 10-20.22 11-29.09 13.11-9.3 1.34-11.49 3.17-10.68 22.71-30 19.8-20.51-7.1-22-10.92-6.11-7.67-7-9.45-12.12 1.06-16.13.85-6.42 1.48-8.11-1 1.24 2.34-2.18-3.8-1-2.09-3-3.52-2.3-2.35-2.3-2.35z" fill="#9da0a6"/><path d="m363.51 223.45s-49.65 229.32-73.81 293.35" fill="none" stroke="#1e1d1a" stroke-miterlimit="10"/><path d="m360 221.12s-51.81 214.05-77 294.48" fill="none" stroke="#1e1d1a" stroke-miterlimit="10"/><path d="m367.59 219.75s-45.08 230.36-70.35 300.19" fill="none" stroke="#1e1d1a" stroke-miterlimit="10"/><path d="m342.9 187.25s-18.43 10.55-18.43 31 2.37 31.78 3.08 34-1.27-7.43 8.28-13.54 27.73-10.22 45.73-7.21 30.9 6.6 37.27 8.16c-2.81-3.61-5.17-7.09-6.79-9.53-10.23-15.37-10.46-16.45-11.75-39.16-.33-5.78-.07-16.24-.07-16.24z" fill="#e0e0e0"/><path d="m266.82 168.41s30.5 59.76 101.9 12.29" fill="none" stroke="#c9b57f" stroke-miterlimit="10"/><path d="m266.39 169.71s28.93 84.06 101.89 12.29" fill="none" stroke="#c9b57f" stroke-miterlimit="10"/><path d="m265.63 170.84s33.52 107.74 104.56 10.31" fill="none" stroke="#c9b57f" stroke-miterlimit="10"/><path d="m347.47 184.14 45.84-9.76 9.75-1.95s4.73.68.69 3.06-30.14 6-30.14 6l-28 6.57-5.6.74s-2.7-1.36-.55-2.4a53.22 53.22 0 0 1 8.01-2.26z" fill="#bf855c"/><path d="m124.3 356.08-13.39-24.34s-2.16-2.29 0-3.22 3 2.32 3.89 4 24.25 39.88 24.25 39.88l87.95 139.37-9.17 1.06z" fill="#946544"/><path d="m192.05 447.39s-34.17-16.11-43.3-24.57c-10.31-9.55-16-23.73-13.34-54.62a156.24 156.24 0 0 1 2.9-20.67l-28.63 2s-28.2 41-18.33 68.32 13.93 30.67 30.48 33.22 36.3-.81 36.3-.81z" fill="#cfcfcf"/><path d="m129.47 455.71s1.93 12.43.91 17.28 7.09 3.2 8.33 1.15 6.5-1.7 9.26 2.76.28 12.3 15.7 5.06 27.48-13 27.48-13 10.36-1.16 7.07-7.24-3.75-9.5-3.75-9.5z" fill="#c3c4c7"/><path d="m124.41 455.27c1-.07 69-2.73 69-2.73h6.78s3.24-.58 3.24-1.73c0 0-.2-2.37-1.8-2.37s-44.63 1.43-44.63 1.43l-33.5 2s-3.75-.79-3.45 2.12c.11 1.47 4.36 1.28 4.36 1.28z" fill="#bf855c"/><path d="m273.37 213.73c-.72 26.57-16.65 235.59 38 310.39" fill="none" stroke="#1e1d1a" stroke-miterlimit="10"/><path d="m271.87 212.39c.35 24.73-3.32 232.06 50.33 305.82" fill="none" stroke="#1e1d1a" stroke-miterlimit="10"/><path d="m259.5 165.61.31-66.19s-.06-3 2.38-2.65 1.16 2.74 1.45 3.12.59 66.48.59 66.48l.76 74.71 1.83 141.07-1 136.41-10 5.37-1-7.42 3-177.88z" fill="#946544"/><path d="m238.22 173.55c3.46-1.2 40.68-9.52 41.16-9.72 1.77-.75 2.88.93 1.28 1.95s-41.3 10.6-41.87 10.56-1.24-2.56-.57-2.79z" fill="#bf855c"/><path d="m208.91 387.2 103.09-7.5s6.23 10.54.74 15.45-27 13.63-30.81 17.42-9.89 20.89-17.28 21.69-18.63.15-27.28-11.54a51.64 51.64 0 0 1 -5.44-8.53s-13.87 1.67-18.24-3.24-3.09-9.71-3.46-12.42-1.32-11.33-1.32-11.33z" fill="#c3c4c7"/><path d="m210.4 402.51c7.76 3.15 16.84 10.66 19.33 6.89a11.43 11.43 0 0 0 2.16-6.84s2 9.27 3.42 11.43 18.7 15.89 27.23 7.36 11-15.68 17.06-17.56 26.67-4.64 28.82-10.86c1.85-5.33 4.61-3.11 6.27-6.19 0 0 1 6.08-1.27 7.75-12.25 8.93-22.58 11.81-28.75 15.82s-12.65 21-17.38 22.88-15.42.44-19-1.25c-6-2.86-11.81-10.57-11.81-10.57s-2-3.12-4.38-7c-5.05-1.14-19.8 3.96-21.7-11.86z" fill="#9da0a6"/><path d="m237 387.81c.67-.2-4.85 9.89 3.22 14s10.32 1.68 13.39-1.89 8.17-8.67 10.32-10 .5 3.2-.72 4.42c-5.21 5.21 0 3-9.87 9.87s-15.34 5.55-15.34 5.55-6-8.87-6-12.57 5-9.38 5-9.38z" fill="#9da0a6"/><path d="m202.62 382.77c7.4-.64 116.88-10.6 116.88-10.6s6.47 5.55-2.29 6.31c0 0-95.63 9.17-108.4 8.72 0 0-5.05.49-6.92-.1-1.43-.46-2.4-4.1.73-4.33z" fill="#bf855c"/><path d="m239 245.91 60.68-13.24s6.08.12 1.82 3.73-71.21 15.06-71.21 15.06l-7.63 1.91s-4.94-2.87-1.14-3.63 17.48-3.83 17.48-3.83z" fill="#bf855c"/><path d="m264 214.16s-39.47 225.65-63.63 289.68" fill="none" stroke="#1e1d1a" stroke-miterlimit="10"/><path d="m193.65 502.64c25.2-80.42 66.85-290.81 66.85-290.81" fill="none" stroke="#1e1d1a" stroke-miterlimit="10"/><path d="m268.08 210.47s-34.9 226.68-60.17 296.53" fill="none" stroke="#1e1d1a" stroke-miterlimit="10"/><path d="m227.33 244.23s-5.79-18.23-5.33-23.11c.57-6.22 6.74-18 8.39-21.37l10.86-21.35 1-2.08s13.81-4.06 15.77-5.21 7-2.3 7-2.3a29.7 29.7 0 0 0 5.8-1.05 19.94 19.94 0 0 1 5.58-.59s.1 20.44 2 26.92a282 282 0 0 0 10.52 28.91s3.48 7.72 3.72 7.88-21-11.23-29.92-10.75c-8.24.45-26 5.67-31.21 12.42a20.81 20.81 0 0 0 -4.18 11.68z" fill="#e0e0e0"/><path d="m225.16 251.93s-20 44.63-22.12 65.82-5.17 39.55 5.62 46.86c4.67 3.17 6.55 2.11 7.78 1.7s2.5-10.17 17.59-15.2 35.6-4.06 48.39 0 19.64 4.81 19.64 4.81 2.86-7.63-.69-14.23c-19-35.41-11.48-68.28-9.35-98.09.13-1.81.55-4.92.55-4.92z" fill="#cfcfcf"/><path d="m544.69 520.11 1.9 2.34-.05 11-6.57 2.1-5 17-19.07 10.09-3.69 24.67s-4.9-25.6-42.46-24.11c.55 18.83-11 6.39-91.12 26.89-93.88 24.01-51.49-39.09-125.63-24.76 7.64 14.47-4.4 18.7-8.84 21.32-11.3 6.65-26.71-38.46-26.71-38.46s-2.29-1.07-8.14-5.67-9.31-13.86-9.31-13.86-9.58-6.07-10.93-9.66a25.42 25.42 0 0 1 -1.56-5.52s116.56 9.44 172.12 9.17 185.06-2.54 185.06-2.54z" fill="#56321e"/><path d="m184.45 501.92s178.29 14 287.38 7.78c15.19-.87 23.67-21.09 35.51-22.84 13.89-2.05 30.38 14.2 37.66 10.67l.16 23s-50.34 1.2-181.55 4c-41.68.88-161.12-3.3-175.06-8.13a71.19 71.19 0 0 1 -4.1-14.48z" fill="#734a2d"/><circle cx="321.26" cy="548.24" fill="#633f26" r="10.36"/><circle cx="321.25" cy="548.39" fill="#3f2716" r="8.25"/><circle cx="321.25" cy="548.39" fill="#fff0cc" r="6.73"/><circle cx="347.79" cy="548.1" fill="#633f26" r="10.36"/><circle cx="347.78" cy="548.26" fill="#3f2716" r="8.25"/><circle cx="347.78" cy="548.26" fill="#fff0cc" r="6.73"/><circle cx="373.41" cy="548.36" fill="#633f26" r="10.36"/><circle cx="373.4" cy="548.51" fill="#3f2716" r="8.25"/><circle cx="373.4" cy="548.51" fill="#fff0cc" r="6.73"/><circle cx="436.48" cy="545.58" fill="#633f26" r="10.38"/><circle cx="436.49" cy="545.73" fill="#3f2716" r="8.27"/><circle cx="436.49" cy="545.73" fill="#fff0cc" r="6.74"/><circle cx="464.21" cy="545.93" fill="#633f26" r="10.3"/><circle cx="464.22" cy="546.08" fill="#3f2716" r="8.2"/><circle cx="464.22" cy="546.08" fill="#fff0cc" r="6.69"/><circle cx="488.27" cy="546.06" fill="#633f26" r="9.64"/><circle cx="488.27" cy="546.2" fill="#3f2716" r="7.68"/><circle cx="488.27" cy="546.2" fill="#fff0cc" r="6.26"/><path d="m546 364.2s-2.15-13.54 20.77-34.15l9.39-10.28-11.77 28.1-7.55 10.54-8.64 7.28z" fill="#cfcfcf"/><path d="m566.78 330.05 9.39-10.28-11.77 28.1-7.55 10.54s1.39-12.22 9.93-28.36z" fill="#515151"/><path d="m576 370.75c-.68.14-10.41-1.49-12.25-1.7a3.43 3.43 0 0 1 -2.09-1.74 60.9 60.9 0 0 0 6.45-9.62 18.45 18.45 0 0 1 3.19-4.83c11.43-8.3 18.3-22 18.3-22l-12.11 6.87s-16 10.14-21 12.93c-3.75 2.07-8 10.07-9.88 14.11l-1.48.17s-5.51-2.51-7.28-1.49a14.72 14.72 0 0 0 -3.4 3.06s-.27 2 .82 2.18 4.35.27 5.91 1.56 3.27 2.72 5 2.86 10.14.88 12.65.41 5.51-1.5 6.19-1.23 10.55 5.78 12.25 4.36-.59-6.03-1.27-5.9z" fill="#f4f4f4"/><ellipse cx="537.99" cy="365.9" fill="#161616" rx="1.04" ry=".79" transform="matrix(.98195871 -.18909544 .18909544 .98195871 -59.48 108.32)"/><ellipse cx="538.19" cy="365.68" fill="#fcfcfc" rx=".33" ry=".21"/><path d="m535.36 366.44s-3.68 2.16-3.75 2.24-.08.32.21.32 4.67-.89 4.73-.87.09-2.01-1.19-1.69z" fill="#e53a1f"/><path d="m544.77 371.31 17.62 1.69s-9.78 2.36-16.35-.41-1.27-1.28-1.27-1.28z" fill="#c1bec9"/><path d="m565.2 371.76 12.74 3.35s.41 1.63-1 1.72-7.11-.68-9.33-2.81-2.41-2.26-2.41-2.26z" fill="#c1bec9"/><path d="m561.64 371.62s3.51 2.27 3.56 2.28 3.1.44 3.48 0 .86 1.13-.35 1.28a10.74 10.74 0 0 1 -3.51-.72s-3.78-2.68-3.81-2.83.63-.01.63-.01z" fill="#e53a1f"/><path d="m576 370.73c-.68.13-10.41-1.5-12.25-1.7a3.44 3.44 0 0 1 -2.09-1.75 61.2 61.2 0 0 0 6.45-9.61 18.2 18.2 0 0 1 3.19-4.83c11.43-8.3 18.3-22 18.3-22l-12.11 6.87s-6.39 4.06-12.37 7.75l10.74-25.64-9.39 10.28c-22.92 20.61-20.77 34.15-20.77 34.15l.76.52-1.35.16s-5.51-2.52-7.28-1.5a14.72 14.72 0 0 0 -3.4 3.06s0 .16 0 .38c-1.06.63-3 1.8-3.1 1.86s-.08.32.2.32 2-.35 3.33-.61a.75.75 0 0 0 .42.23c1.08.2 4.35.27 5.91 1.56s3.27 2.73 5 2.86l1.17.1c6.44 1.82 14.71-.16 14.71-.16l.21-.08 2.22 1.6a10.74 10.74 0 0 0 3.51.72.89.89 0 0 0 .58-.28 19.66 19.66 0 0 0 8 1.89 1 1 0 0 0 .87-.48c1.31-1.67-.81-5.8-1.46-5.67zm-11.11 3.17-2-1.25.83-.34a2.88 2.88 0 0 1 1.29-.08c.1 0 .38.18.77.38l1.52 1.39.09.09a18.85 18.85 0 0 1 -2.5-.19z" fill="none" stroke="#5e5e5e" stroke-miterlimit="10" stroke-width=".2"/><path d="m558.71 366.06c-.81-.09 3.82 2.09 3.26 1.22a61.2 61.2 0 0 0 6.45-9.61 18.2 18.2 0 0 1 3.19-4.83c11.43-8.3 18.3-22 18.3-22l-12.11 6.88s-17.26 28.55-19.09 28.34z" fill="#515151"/><path d="m514.43 258.67v8.09s2.58 3.12 7-.62 2.86-4.28 2.86-4.28-5.3-3.8-7.48-4.68-2.38 1.49-2.38 1.49z" fill="#cfcfcf"/><path d="m505.8 247.53s-8.77 2.1-12 5.91-4.75 5.71-5.64 7c0 0-5 9.24-5 9.78 0 0 6.19-2 7.82-4s5.3-6.51 6.79-6.55 9.72-1.67 10-2.14c0 0 4.14-1.29 3.6-2.52s-5.57-7.48-5.57-7.48z" fill="#e5e5e5"/><path d="m488.13 260.44s-5 9.24-5 9.78c0 0 6.19-2 7.82-4s5.3-6.51 6.79-6.55 9.72-1.67 10-2.14c0 0 4.14-1.29 3.6-2.52a27 27 0 0 0 -2.26-3.24c-.78-1-5.53-.68-9.74 4-3.62 3.99-10.77 4.02-11.21 4.67z" fill="#828282"/><path d="m509.4 246.1s9.13-8.49 13.94-9.15a86.41 86.41 0 0 1 8.66-.95s10.09.77 10.49 1.11c0 0-5 4-7.46 4.29s-8.07.9-8.92 2.11-6.64 7.08-7.16 7.05c0 0-3.3 2.72-4 1.63s-5.55-6.09-5.55-6.09z" fill="#e5e5e5"/><path d="m532 236s10.09.77 10.49 1.11c0 0-5 4-7.46 4.29s-8.07.9-8.92 2.11-6.64 7.08-7.16 7.05c0 0-3.3 2.72-4 1.63-.28-.45-3.65-1-2.57-2.32 1.23-1.51 2.94-4.47 9.92-6.58 5.58-1.65 8.87-7.24 9.7-7.29z" fill="#828282"/><path d="m511.71 246.24a3.63 3.63 0 0 1 -2-2c-.61-1.56-3-5.64-6.39-3.4l-1.63 2.39.61 1s1.43.27 1.7.75a10.11 10.11 0 0 1 1.09 2.92c-.07.47 2.44 5.3 3.19 6.52s5.91 5.1 6.18 5.23 3.6 0 3.4-1.76-.88-6.8-3.06-8.77-3.09-2.88-3.09-2.88z" fill="#f4f4f4"/><path d="m502.4 242.82s-2.73 1.26-2.81 1.76c0 0-.3.59.23.49.61-.59 3.22-.82 3.47-1s-.89-1.25-.89-1.25z" fill="#d0202b"/><path d="m504.9 241.67c.12.29-.09.48-.38.59s-.57.13-.69-.16a.58.58 0 0 1 1.07-.43z"/><ellipse cx="504.11" cy="241.82" fill="#fff" rx=".17" ry=".12"/><path d="m518.24 264.18-.83-2.18-2.41-3.45s-.24-.76-.46-.4.8 1.49.8 1.49l1.68 2.5v2.52z" fill="#d0202b"/><path d="m520.22 263-1.65-1.66-2.16-3.61s-.59-.53-.18-.58 1 1.34 1 1.34l1.6 2.55 2.3 1z" fill="#d0202b"/><path d="m532.58 236.16c-1.56.05-4 .27-8.92 1-4 .55-10.84 6.31-13.38 8.54a3.66 3.66 0 0 1 -.64-1.07c-.63-1.61-3.08-5.81-6.58-3.5l-1.63 2.39c-.84.42-2.19 1.15-2.25 1.51 0 0-.31.61.24.51a7.4 7.4 0 0 1 2.86-.84c.44.1 1.27.35 1.48.7a12.35 12.35 0 0 1 1.11 2.85c-2.18.6-8.89 2.65-11.69 5.91-3.36 3.92-4.9 5.88-5.81 7.21 0 0-5.18 9.53-5.11 10.09 0 0 6.37-2.1 8.05-4.13s5.46-6.72 7-6.76 10-1.72 10.29-2.21a14.27 14.27 0 0 0 2.67-1.15c1.69 1.44 3.79 3 4.2 3.28v7.4s2.66 3.22 7.21-.63 2.94-4.42 2.94-4.42-4-2.9-6.6-4.29a27.07 27.07 0 0 0 -1.27-5.75 15.43 15.43 0 0 0 2.35-1.57c.55 0 6.52-6 7.39-7.28s6.66-1.87 9.2-2.17 7.68-4.42 7.68-4.42c-.37-.36-10.79-1.2-10.79-1.2z" fill="none" stroke="#898888" stroke-miterlimit="10" stroke-width=".2"/><path d="m168.59 245.91s-4.83-8.1 4.56-27.12l3.38-9-.36 21-2.17 8.66-3.66 6.86z" fill="#cfcfcf"/><path d="m173.15 218.79 3.38-9-.36 21-2.17 8.66s-2.19-8.17-.85-20.66z" fill="#515151"/><path d="m189.42 242.45c-.4.26-7 1.7-8.26 2a2.38 2.38 0 0 1 -1.78-.58 41.72 41.72 0 0 0 1.67-7.79 12.56 12.56 0 0 1 .81-3.9c5.18-8.22 6.07-18.76 6.07-18.76l-6 7.48s-7.63 10.56-10.13 13.63c-1.87 2.28-2.51 8.46-2.71 11.53l-.91.49s-4.16-.2-5 .9a10.21 10.21 0 0 0 -1.39 2.83s.33 1.33 1.07 1.18 2.86-.94 4.19-.51 2.78.9 3.94.54 6.7-2 8.19-3 3.14-2.36 3.64-2.36 8.22 1 8.94-.34-1.94-3.6-2.34-3.34z" fill="#f4f4f4"/><ellipse cx="163.9" cy="249.05" fill="#161616" rx=".72" ry=".54" transform="matrix(.84188774 -.5396527 .5396527 .84188774 -108.49 127.84)"/><ellipse cx="163.97" cy="248.85" fill="#fcfcfc" rx=".23" ry=".14" transform="matrix(.92874486 -.37071954 .37071954 .92874486 -80.58 78.54)"/><path d="m162.36 250.06s-1.8 2.32-1.83 2.39 0 .22.21.15 2.76-1.76 2.81-1.76-.46-1.31-1.19-.78z" fill="#e53a1f"/><path d="m169.61 250.77 11.69-3.43s-5.66 4-10.56 3.92-1.13-.49-1.13-.49z" fill="#c1bec9"/><path d="m182.78 245.85 9-1.11s.68.94-.2 1.35-4.71 1.39-6.68.59-2.12-.83-2.12-.83z" fill="#c1bec9"/><path d="m180.47 246.67 2.86.55s2.08-.52 2.23-.87.84.51.1.91a7.18 7.18 0 0 1 -2.42.43s-3.1-.75-3.16-.83.39-.19.39-.19z" fill="#e53a1f"/><path d="m189.41 242.43c-.4.26-7 1.7-8.25 2a2.35 2.35 0 0 1 -1.79-.58 41.54 41.54 0 0 0 1.63-7.75 12.68 12.68 0 0 1 .81-3.9c5.19-8.22 6.07-18.75 6.07-18.75l-6 7.48s-3.06 4.22-5.93 8.1l.32-19.12-3.38 9c-9.39 19-4.56 27.12-4.56 27.12l.62.14-.82.45s-4.17-.21-5 .9a10.08 10.08 0 0 0 -1.39 2.82s0 .11.08.25c-.52.67-1.49 1.93-1.5 2s0 .22.21.15 1.18-.73 2-1.24a.53.53 0 0 0 .33 0c.75-.14 2.85-.93 4.18-.51s2.78.91 3.94.54l.78-.24c4.58-.47 9.36-3.85 9.36-3.85l.11-.1 1.83.45a7.18 7.18 0 0 0 2.42-.43.59.59 0 0 0 .3-.33 13.48 13.48 0 0 0 5.62-.84.71.71 0 0 0 .43-.53c.37-1.38-2.03-3.47-2.42-3.23zm-6.28 4.87-1.58-.3.44-.43a2.07 2.07 0 0 1 .81-.38h.58l1.31.53h.09c-.66.33-1.63.57-1.65.58z" fill="none" stroke="#5e5e5e" stroke-miterlimit="10" stroke-width=".2"/><path d="m177.18 243.86c-.54.15 3 .36 2.39-.05a41.54 41.54 0 0 0 1.67-7.79 12.68 12.68 0 0 1 .81-3.9c5.18-8.22 6.07-18.75 6.07-18.75l-6 7.48s-3.72 22.68-4.94 23.01z" fill="#515151"/></svg>