<svg xmlns="http://www.w3.org/2000/svg" xmlns:xlink="http://www.w3.org/1999/xlink" width="347.5" height="355.026" viewBox="0 0 347.5 355.026">
  <defs>
    <filter id="Pfad_1403" x="0" y="0" width="347.5" height="355.026" filterUnits="userSpaceOnUse">
      <feOffset dy="3" input="SourceAlpha"/>
      <feGaussianBlur stdDeviation="3" result="blur"/>
      <feFlood flood-opacity="0.161"/>
      <feComposite operator="in" in2="blur"/>
      <feComposite in="SourceGraphic"/>
    </filter>
  </defs>
  <g id="schatzkarte_4_" data-name="schatzkarte (4)" transform="translate(9.5 6)">
    <g transform="matrix(1, 0, 0, 1, -9.5, -6)" filter="url(#Pfad_1403)">
      <path id="Pfad_1403-2" data-name="Pfad 1403" d="M323.745,163.527l9.137-9.428a13.174,13.174,0,0,0,3.617-9.158V88.488c0-6.511-4.848-11.789-10.827-11.789H253.108a12.426,12.426,0,0,0-10.859,6.778l-3.05,5.67a5.371,5.371,0,0,1-8.463,1.609L220.1,81.089a16.54,16.54,0,0,0-11.128-4.39L8,76.821v52.721L7,402.354c0,6.511,4.348,11.371,10.327,11.371H43.206a10.43,10.43,0,0,0,8.48-4.536l6.131-8.646a4.2,4.2,0,0,1,6.562-.551l10.63,10.985a8.8,8.8,0,0,0,6.326,2.748h16.7a10.535,10.535,0,0,0,9.516-6.5l6.323-14.233a4.473,4.473,0,0,1,7.968-.749l10.44,15.831a12.166,12.166,0,0,0,10.114,5.65H324.673c5.98,0,10.827-5.278,10.827-11.789l1-213.455a12.94,12.94,0,0,0-5.237-10.554l-6.728-4.8A6.482,6.482,0,0,1,323.745,163.527Z" transform="translate(2 -70.7)" fill="#fff0c0"/>
    </g>
  </g>
</svg>
