<svg height="129.576" viewBox="0 0 347 129.576" width="347" xmlns="http://www.w3.org/2000/svg" xmlns:xlink="http://www.w3.org/1999/xlink"><filter id="a" filterUnits="userSpaceOnUse" height="129.576" width="347" x="0" y="0"><feOffset dy="3"/><feGaussianBlur result="blur" stdDeviation="3"/><feFlood flood-opacity=".161"/><feComposite in2="blur" operator="in"/><feComposite in="SourceGraphic"/></filter><g filter="url(#a)" transform="translate(0 -.003)"><path d="m323.745 114.168 9.137-4.068c2.309-1.028 3.617-2.457 3.617-3.952v-24.362c0-2.81-4.848-5.087-10.827-5.087h-72.564c-4.468 0-8.6 1.113-10.859 2.925l-3.049 2.446c-1.758 1.411-5.792 1.741-8.463.694l-10.637-4.17a31.3 31.3 0 0 0 -11.133-1.894l-200.746-.037v22.737l-.721 83.752c0 2.81 4.848 5.087 10.827 5.087h25.879a17.073 17.073 0 0 0 8.48-1.957l6.131-3.731a8.166 8.166 0 0 1 6.562-.238l10.63 4.741a16.026 16.026 0 0 0 6.326 1.186h16.7c4.054 0 7.751-1.09 9.516-2.8l6.323-6.142c1.536-1.492 5.911-1.67 7.968-.323l10.44 6.831c2.339 1.531 6.1 2.438 10.114 2.438h182.277c5.98 0 10.827-2.278 10.827-5.087v-58.221c0-1.836-1.969-3.548-5.237-4.554l-6.728-2.071c-3.047-.938-3.435-2.966-.79-4.143z" fill="#fff0c0" transform="translate(1.5 -70.66)"/></g></svg>