<svg height="188" viewBox="0 0 347.5 188" width="347.5" xmlns="http://www.w3.org/2000/svg" xmlns:xlink="http://www.w3.org/1999/xlink"><filter id="a" filterUnits="userSpaceOnUse" height="188" width="347.5" x="0" y="0"><feOffset dy="3"/><feGaussianBlur result="blur" stdDeviation="3"/><feFlood flood-opacity=".161"/><feComposite in2="blur" operator="in"/><feComposite in="SourceGraphic"/></filter><g filter="url(#a)"><path d="m323.745 113.143 9.137-3.957c2.309-1 3.617-2.39 3.617-3.844v-23.7c0-2.733-4.848-4.948-10.827-4.948h-72.564c-4.468 0-8.6 1.083-10.859 2.845l-3.05 2.38c-1.758 1.372-5.792 1.694-8.463.675l-10.636-4.052a32.093 32.093 0 0 0 -11.133-1.842l-200.967.05v22.129l-1 143.047c0 2.733 4.348 4.773 10.327 4.773h25.879a17.463 17.463 0 0 0 8.48-1.9l6.131-3.629a8.375 8.375 0 0 1 6.562-.231l10.63 4.611a16.422 16.422 0 0 0 6.326 1.154h16.7c4.054 0 7.751-1.06 9.516-2.728l6.323-5.976c1.536-1.452 5.911-1.624 7.968-.314l10.44 6.645c2.339 1.489 6.1 2.371 10.114 2.371h182.277c5.98 0 10.827-2.215 10.827-4.948l1-118.134c0-1.786-1.969-3.451-5.237-4.43l-6.728-2.014c-3.047-.915-3.435-2.888-.79-4.033z" fill="#fff0c0" transform="translate(2 -70.7)"/></g></svg>