<svg xmlns="http://www.w3.org/2000/svg" xmlns:xlink="http://www.w3.org/1999/xlink" width="347.5" height="188" viewBox="0 0 347.5 188">
  <defs>
    <filter id="Pfad_1403" x="0" y="0" width="347.5" height="188" filterUnits="userSpaceOnUse">
      <feOffset dy="3" input="SourceAlpha"/>
      <feGaussianBlur stdDeviation="3" result="blur"/>
      <feFlood flood-opacity="0.161"/>
      <feComposite operator="in" in2="blur"/>
      <feComposite in="SourceGraphic"/>
    </filter>
  </defs>
  <g id="schatzkarte_4_" data-name="schatzkarte (4)" transform="translate(9.5 6)">
    <g transform="matrix(1, 0, 0, 1, -9.5, -6)" filter="url(#Pfad_1403)">
      <path id="Pfad_1403-2" data-name="Pfad 1403" d="M323.745,113.143l9.137-3.957c2.309-1,3.617-2.39,3.617-3.844v-23.7c0-2.733-4.848-4.948-10.827-4.948H253.108c-4.468,0-8.6,1.083-10.859,2.845l-3.05,2.38c-1.758,1.372-5.792,1.694-8.463.675L220.1,78.542A32.093,32.093,0,0,0,208.967,76.7L8,76.75V98.879L7,241.926c0,2.733,4.348,4.773,10.327,4.773H43.206a17.463,17.463,0,0,0,8.48-1.9l6.131-3.629a8.375,8.375,0,0,1,6.562-.231l10.63,4.611a16.422,16.422,0,0,0,6.326,1.154h16.7c4.054,0,7.751-1.06,9.516-2.728L113.874,238c1.536-1.452,5.911-1.624,7.968-.314l10.44,6.645c2.339,1.489,6.1,2.371,10.114,2.371H324.673c5.98,0,10.827-2.215,10.827-4.948l1-118.134c0-1.786-1.969-3.451-5.237-4.43l-6.728-2.014C321.488,116.261,321.1,114.288,323.745,113.143Z" transform="translate(2 -70.7)" fill="#fff0c0"/>
    </g>
  </g>
</svg>
