<svg xmlns="http://www.w3.org/2000/svg" xmlns:xlink="http://www.w3.org/1999/xlink" width="347" height="423.749" viewBox="0 0 347 423.749">
  <defs>
    <filter id="Pfad_1403" x="0" y="0" width="347" height="423.749" filterUnits="userSpaceOnUse">
      <feOffset dy="3" input="SourceAlpha"/>
      <feGaussianBlur stdDeviation="3" result="blur"/>
      <feFlood flood-opacity="0.161"/>
      <feComposite operator="in" in2="blur"/>
      <feComposite in="SourceGraphic"/>
    </filter>
  </defs>
  <g id="schatzkarte_4_" data-name="schatzkarte (4)" transform="translate(9 6)">
    <g transform="matrix(1, 0, 0, 1, -9, -6)" filter="url(#Pfad_1403)">
      <path id="Pfad_1403-2" data-name="Pfad 1403" d="M323.745,194.353l9.137-12.775A21.653,21.653,0,0,0,336.5,169.17v-76.5c0-8.822-4.848-15.975-10.827-15.975H253.108c-4.468,0-8.6,3.5-10.859,9.184l-3.05,7.682c-1.758,4.429-5.792,5.467-8.463,2.18L220.1,82.648c-3.123-3.843-7.061-5.949-11.128-5.949L8,76.864V148.3L7.5,467.039c0,8.822,4.348,15.408,10.327,15.408H43.706c3.319,0,6.451-2.27,8.48-6.146l6.182-.762c1.605-3.068,4.657-3.415,6.562-.747l10.578,3.932a7.938,7.938,0,0,0,6.326,3.724h16.7c4.054,0,7.751-3.421,9.516-8.806l6.375-8.333c1.536-4.686,5.911-5.243,7.968-1.015l10.388,10.5c2.339,4.806,6.1,7.655,10.114,7.655H325.173c5.98,0,10.827-7.152,10.827-15.975l.5-238.307c0-5.764-1.969-11.141-5.237-14.3l-6.728-6.5C321.488,204.418,321.1,198.05,323.745,194.353Z" transform="translate(1.5 -70.7)" fill="#fff0c0"/>
    </g>
  </g>
</svg>
