<svg height="355.026" viewBox="0 0 347.5 355.026" width="347.5" xmlns="http://www.w3.org/2000/svg" xmlns:xlink="http://www.w3.org/1999/xlink"><filter id="a" filterUnits="userSpaceOnUse" height="355.026" width="347.5" x="0" y="0"><feOffset dy="3"/><feGaussianBlur result="blur" stdDeviation="3"/><feFlood flood-opacity=".161"/><feComposite in2="blur" operator="in"/><feComposite in="SourceGraphic"/></filter><g filter="url(#a)"><path d="m323.745 163.527 9.137-9.428a13.174 13.174 0 0 0 3.617-9.158v-56.453c0-6.511-4.848-11.789-10.827-11.789h-72.564a12.426 12.426 0 0 0 -10.859 6.778l-3.05 5.67a5.371 5.371 0 0 1 -8.463 1.609l-10.636-9.667a16.54 16.54 0 0 0 -11.128-4.39l-200.972.122v52.721l-1 272.812c0 6.511 4.348 11.371 10.327 11.371h25.879a10.43 10.43 0 0 0 8.48-4.536l6.131-8.646a4.2 4.2 0 0 1 6.562-.551l10.63 10.985a8.8 8.8 0 0 0 6.326 2.748h16.7a10.535 10.535 0 0 0 9.516-6.5l6.323-14.233a4.473 4.473 0 0 1 7.968-.749l10.44 15.831a12.166 12.166 0 0 0 10.114 5.65h182.277c5.98 0 10.827-5.278 10.827-11.789l1-213.455a12.94 12.94 0 0 0 -5.237-10.554l-6.728-4.8a6.482 6.482 0 0 1 -.79-9.599z" fill="#fff0c0" transform="translate(2 -70.7)"/></g></svg>