<svg xmlns="http://www.w3.org/2000/svg" xmlns:xlink="http://www.w3.org/1999/xlink" width="347" height="129.576" viewBox="0 0 347 129.576">
  <defs>
    <filter id="Pfad_1403" x="0" y="0" width="347" height="129.576" filterUnits="userSpaceOnUse">
      <feOffset dy="3" input="SourceAlpha"/>
      <feGaussianBlur stdDeviation="3" result="blur"/>
      <feFlood flood-opacity="0.161"/>
      <feComposite operator="in" in2="blur"/>
      <feComposite in="SourceGraphic"/>
    </filter>
  </defs>
  <g id="schatzkarte_4_" data-name="schatzkarte (4)" transform="translate(1.5 -70.663)">
    <g transform="matrix(1, 0, 0, 1, -1.5, 70.66)" filter="url(#Pfad_1403)">
      <path id="Pfad_1403-2" data-name="Pfad 1403" d="M323.745,114.168l9.137-4.068c2.309-1.028,3.617-2.457,3.617-3.952V81.786c0-2.81-4.848-5.087-10.827-5.087H253.108c-4.468,0-8.6,1.113-10.859,2.925L239.2,82.07c-1.758,1.411-5.792,1.741-8.463.694L220.1,78.594A31.3,31.3,0,0,0,208.967,76.7L8.221,76.663V99.4L7.5,183.152c0,2.81,4.848,5.087,10.827,5.087H44.206a17.073,17.073,0,0,0,8.48-1.957l6.131-3.731a8.166,8.166,0,0,1,6.562-.238l10.63,4.741a16.026,16.026,0,0,0,6.326,1.186h16.7c4.054,0,7.751-1.09,9.516-2.8l6.323-6.142c1.536-1.492,5.911-1.67,7.968-.323l10.44,6.831c2.339,1.531,6.1,2.438,10.114,2.438H325.673c5.98,0,10.827-2.278,10.827-5.087V124.936c0-1.836-1.969-3.548-5.237-4.554l-6.728-2.071C321.488,117.373,321.1,115.345,323.745,114.168Z" transform="translate(1.5 -70.66)" fill="#fff0c0"/>
    </g>
  </g>
</svg>
