<svg height="423.749" viewBox="0 0 347 423.749" width="347" xmlns="http://www.w3.org/2000/svg" xmlns:xlink="http://www.w3.org/1999/xlink"><filter id="a" filterUnits="userSpaceOnUse" height="423.749" width="347" x="0" y="0"><feOffset dy="3"/><feGaussianBlur result="blur" stdDeviation="3"/><feFlood flood-opacity=".161"/><feComposite in2="blur" operator="in"/><feComposite in="SourceGraphic"/></filter><g filter="url(#a)"><path d="m323.745 194.353 9.137-12.775a21.653 21.653 0 0 0 3.618-12.408v-76.5c0-8.822-4.848-15.975-10.827-15.975h-72.565c-4.468 0-8.6 3.5-10.859 9.184l-3.05 7.682c-1.758 4.429-5.792 5.467-8.463 2.18l-10.636-13.093c-3.123-3.843-7.061-5.949-11.128-5.949l-200.972.165v71.436l-.5 318.739c0 8.822 4.348 15.408 10.327 15.408h25.879c3.319 0 6.451-2.27 8.48-6.146l6.182-.762c1.605-3.068 4.657-3.415 6.562-.747l10.578 3.932a7.938 7.938 0 0 0 6.326 3.724h16.7c4.054 0 7.751-3.421 9.516-8.806l6.375-8.333c1.536-4.686 5.911-5.243 7.968-1.015l10.388 10.5c2.339 4.806 6.1 7.655 10.114 7.655h182.278c5.98 0 10.827-7.152 10.827-15.975l.5-238.307c0-5.764-1.969-11.141-5.237-14.3l-6.728-6.5c-3.047-2.949-3.435-9.317-.79-13.014z" fill="#fff0c0" transform="translate(1.5 -70.7)"/></g></svg>