<svg viewBox="0 0 711.64 711.64" xmlns="http://www.w3.org/2000/svg"><path d="m475.52 654.5h-203.52a8.28 8.28 0 0 1 -8.25-7.64l-16.17-211a8.28 8.28 0 0 1 8.25-8.91h235.86a8.28 8.28 0 0 1 8.25 8.91l-16.17 211a8.28 8.28 0 0 1 -8.25 7.64z" fill="#c5722e"/><path d="m494.88 501.88h-242.21l-5.74-74.92h253.69z" fill="#b6672a"/><path d="m509.81 480.07h-272.07a6.52 6.52 0 0 1 -6.34-5l-14.21-57.49a6.53 6.53 0 0 1 6.34-8.1h300.47a6.53 6.53 0 0 1 6.34 8.1l-14.21 57.49a6.52 6.52 0 0 1 -6.32 5z" fill="#c5722e"/><g fill="#d58143"><circle cx="274.3" cy="566.5" r="16.12"/><circle cx="302.68" cy="566.5" r="16.12"/><circle cx="331.72" cy="566.5" r="16.12"/><circle cx="360.09" cy="566.5" r="16.12"/><circle cx="388.47" cy="566.5" r="16.12"/><circle cx="417.51" cy="566.5" r="16.12"/><circle cx="445.45" cy="566.5" r="16.12"/><circle cx="473.82" cy="566.5" r="16.12"/><path d="m491.41 547.44h-235.23l-.28-4.2 235.86-.07z"/><path d="m488.17 589.25h-228.83l-.28-4.21 229.46-.06z"/></g><path d="m520 406.52h-300.5a6.53 6.53 0 0 0 -6.34 8.1l14.21 57.49a6.52 6.52 0 0 0 6.34 5h13.29l12.78 166.79a8.28 8.28 0 0 0 8.22 7.6h203.49a8.28 8.28 0 0 0 8.25-7.64l12.78-166.79h13.26a6.52 6.52 0 0 0 6.34-5l14.21-57.49a6.54 6.54 0 0 0 -6.33-8.06z" fill="none" stroke="#9f561f" stroke-miterlimit="10" stroke-width="3"/></svg>