<svg viewBox="0 0 711.64 711.64" xmlns="http://www.w3.org/2000/svg"><path d="m475.52 654.5h-203.52a8.28 8.28 0 0 1 -8.25-7.64l-16.17-211a8.28 8.28 0 0 1 8.25-8.91h235.86a8.28 8.28 0 0 1 8.25 8.91l-16.17 211a8.28 8.28 0 0 1 -8.25 7.64z" fill="#c5722e"/><path d="m494.88 501.88h-242.21l-5.74-74.92h253.69z" fill="#b6672a"/><path d="m509.81 480.07h-272.07a6.52 6.52 0 0 1 -6.34-5l-14.21-57.49a6.53 6.53 0 0 1 6.34-8.1h300.47a6.53 6.53 0 0 1 6.34 8.1l-14.21 57.49a6.52 6.52 0 0 1 -6.32 5z" fill="#c5722e"/><g fill="#d58143"><path d="m488.62 583.49-19.41-19.42a6.65 6.65 0 0 0 -9.41 0l-20.19 20.19a6.65 6.65 0 0 1 -9.41 0l-20.2-20.19a6.65 6.65 0 0 0 -9.41 0l-20.14 20.14a6.66 6.66 0 0 1 -9.42 0l-20.13-20.14a6.65 6.65 0 0 0 -9.41 0l-20.16 20.16a6.66 6.66 0 0 1 -9.42 0l-20.16-20.16a6.65 6.65 0 0 0 -9.41 0l-23.18 22.43c-.21-2.15-1.47-19.17-1.47-19.17l24.65-24.65a6.65 6.65 0 0 1 9.41 0l20.16 20.16a6.66 6.66 0 0 0 9.42 0l20.16-20.16a6.65 6.65 0 0 1 9.41 0l20.1 20.14a6.66 6.66 0 0 0 9.42 0l20.14-20.14a6.65 6.65 0 0 1 9.41 0l20.19 20.19a6.65 6.65 0 0 0 9.41 0l20.19-20.19a6.65 6.65 0 0 1 9.41 0l20.93 20.94z"/><path d="m492.26 535.44h-237.02l-.32-4.2 237.69-.07z"/><path d="m487.69 595.25h-227.88l-.32-4.21 228.55-.06z"/></g><path d="m520 406.52h-300.5a6.53 6.53 0 0 0 -6.34 8.1l14.21 57.49a6.52 6.52 0 0 0 6.34 5h13.29l12.78 166.79a8.28 8.28 0 0 0 8.22 7.6h203.49a8.28 8.28 0 0 0 8.25-7.64l12.78-166.79h13.26a6.52 6.52 0 0 0 6.34-5l14.21-57.49a6.54 6.54 0 0 0 -6.33-8.06z" fill="none" stroke="#9f561f" stroke-miterlimit="10" stroke-width="3"/></svg>