<svg viewBox="0 0 737.58 711.64" xmlns="http://www.w3.org/2000/svg"><path d="m475.52 654.5h-203.52a8.28 8.28 0 0 1 -8.25-7.64l-16.17-211a8.28 8.28 0 0 1 8.25-8.91h235.86a8.28 8.28 0 0 1 8.25 8.91l-16.17 211a8.28 8.28 0 0 1 -8.25 7.64z" fill="#c5722e"/><path d="m494.88 501.88h-242.21l-5.74-74.92h253.69z" fill="#b6672a"/><path d="m509.81 480.07h-272.07a6.52 6.52 0 0 1 -6.34-5l-14.21-57.49a6.53 6.53 0 0 1 6.34-8.1h300.47a6.53 6.53 0 0 1 6.34 8.1l-14.21 57.49a6.52 6.52 0 0 1 -6.32 5z" fill="#c5722e"/><g fill="#d58143"><path d="m490.29 557.44h-233.08l-.28-4.2 233.71-.07z"/><path d="m487.01 604.25h-226.49l-.33-4.21 227.17-.06z"/><path d="m487.78 594.46-9.14-8.36a24.19 24.19 0 0 0 -32.81 0 42.1 42.1 0 0 1 -57.1 0 24.19 24.19 0 0 0 -32.81 0 42.12 42.12 0 0 1 -57.15 0 24.2 24.2 0 0 0 -32.85 0l-6.35 5.8-1.72-22.39a42.08 42.08 0 0 1 53 3.3 24.21 24.21 0 0 0 32.86 0 42.11 42.11 0 0 1 57.14 0 24.19 24.19 0 0 0 32.81 0 42.09 42.09 0 0 1 55.85-1.1z"/></g><path d="m520 406.52h-300.5a6.53 6.53 0 0 0 -6.34 8.1l14.21 57.49a6.52 6.52 0 0 0 6.34 5h13.29l12.78 166.79a8.28 8.28 0 0 0 8.22 7.6h203.49a8.28 8.28 0 0 0 8.25-7.64l12.78-166.79h13.26a6.52 6.52 0 0 0 6.34-5l14.21-57.49a6.54 6.54 0 0 0 -6.33-8.06z" fill="none" stroke="#9f561f" stroke-miterlimit="10" stroke-width="3"/></svg>