<svg viewBox="0 0 711.64 711.64" xmlns="http://www.w3.org/2000/svg"><path d="m475.52 654.5h-203.52a8.28 8.28 0 0 1 -8.25-7.64l-16.17-211a8.28 8.28 0 0 1 8.25-8.91h235.86a8.28 8.28 0 0 1 8.25 8.91l-16.17 211a8.28 8.28 0 0 1 -8.25 7.64z" fill="#c5722e"/><path d="m494.88 501.88h-242.21l-5.74-74.92h253.69z" fill="#b6672a"/><path d="m509.81 480.07h-272.07a6.52 6.52 0 0 1 -6.34-5l-14.21-57.49a6.53 6.53 0 0 1 6.34-8.1h300.47a6.53 6.53 0 0 1 6.34 8.1l-14.21 57.49a6.52 6.52 0 0 1 -6.32 5z" fill="#c5722e"/><path d="m488.83 581.79h-230.04l-2.27-30.59h234.58z" fill="#d58143"/><path d="m491.6 544.6-235.64.22-.46-6.06h236.55z" fill="#d58143"/><path d="m520 406.52h-300.5a6.53 6.53 0 0 0 -6.34 8.1l14.21 57.49a6.52 6.52 0 0 0 6.34 5h13.29l12.78 166.79a8.28 8.28 0 0 0 8.22 7.6h203.49a8.28 8.28 0 0 0 8.25-7.64l12.78-166.79h13.26a6.52 6.52 0 0 0 6.34-5l14.21-57.49a6.54 6.54 0 0 0 -6.33-8.06z" fill="none" stroke="#9f561f" stroke-miterlimit="10" stroke-width="3"/></svg>