<svg height="24" viewBox="0 0 24 24" width="24" xmlns="http://www.w3.org/2000/svg"><path d="m99.783 87.74a12 12 0 1 0 12 12 12 12 0 0 0 -12-12zm7.3 2.865a10.333 10.333 0 0 1 1.521 1.406 7.333 7.333 0 0 1 1.426 2.091l-3.795 3.19a7.382 7.382 0 0 0 -1.121-1.939 8.513 8.513 0 0 0 -1.824-1.6zm-16.165 1.427a10.333 10.333 0 0 1 1.521-1.406l3.8 3.3a8.537 8.537 0 0 0 -1.824 1.6 7.4 7.4 0 0 0 -1.121 1.939l-3.8-3.341a7.341 7.341 0 0 1 1.424-2.092zm1.582 16.868a10.682 10.682 0 0 1 -1.52-1.4 7.251 7.251 0 0 1 -1.425-2.091l4.037-3.214a7.363 7.363 0 0 0 1.121 1.939 8.5 8.5 0 0 0 1.824 1.6zm1.092-9.162a6.189 6.189 0 1 1 6.191 6.188 6.189 6.189 0 0 1 -6.191-6.186zm13.556 9.18-3.858-3.194a8.5 8.5 0 0 0 1.824-1.6 7.363 7.363 0 0 0 1.121-1.939l3.856 3.231a7.313 7.313 0 0 1 -1.425 2.091 10.4 10.4 0 0 1 -1.521 1.407z" fill="#f00c38" transform="translate(-87.78 -87.74)"/></svg>