<svg height="166.274" viewBox="0 0 193.808 166.274" width="193.808" xmlns="http://www.w3.org/2000/svg" xmlns:xlink="http://www.w3.org/1999/xlink"><filter id="a" filterUnits="userSpaceOnUse" height="166.274" width="193.808" x="0" y="0"><feOffset dy="3"/><feGaussianBlur result="blur" stdDeviation="3"/><feFlood flood-opacity=".161"/><feComposite in2="blur" operator="in"/><feComposite in="SourceGraphic"/></filter><g filter="url(#a)" transform="translate(-.004 .001)"><path d="m3.535 29.691c9.82-17.043 27.658-41.1 62.652-23.6 37.413 18.709 32.474 83.592 21.154 121.246-.693 2.332-3.088 40.1-29.423 12.53-14.3-14.938-23.952-14.182-37.92-33.709s-26.284-59.437-16.463-76.467z" fill="#b79a21" transform="matrix(-.40673664 -.91354546 .91354546 -.40673664 47.87 154.27)"/></g><path d="m0 24.464c18.1-27.354 38.159-29.064 59.438-18.303 20.409 10.324 29.385 36.432 29.262 60.039-27.27-63.4-53.214-68.939-88.7-41.736z" fill="#a3860d" transform="matrix(-.40673664 -.91354546 .91354546 -.40673664 45.065 148.138)"/><path d="m20.359 66.482a95.2 95.2 0 0 1 -9.505-14.812l-2.03-3.958-1.8-4.047c-1.084-2.748-2.194-5.5-3.063-8.333s-1.778-5.685-2.647-8.559a43.856 43.856 0 0 1 -1.264-8.825c0-1.5-.113-2.988 0-4.488s.227-3 .429-4.488c.113-.744.139-1.488.315-2.219l.5-2.206c.391-1.462.769-2.912 1.261-4.336a.34.34 0 0 1 .63 0c.416 1.488.681 2.937.958 4.374s.429 2.862.731 4.273.492 2.811.693 4.21l.756 4.173c.366 2.786.946 5.534 1.16 8.358.416 2.786.681 5.635 1.374 8.383a124.205 124.205 0 0 0 4.866 16.388 108.15 108.15 0 0 0 7.141 15.73.3.3 0 0 1 -.126.429.315.315 0 0 1 -.379-.047z" fill="#e5e1d3" transform="matrix(-.40673664 -.91354546 .91354546 -.40673664 80.896 130.005)"/><path d="m3.918 47.8c6.382-17.646 9.164-34.135 24.947-26.735s16.779 6.631 30.091 11.7 19.527 3.921 25.666 2.723 11.837 5.736 11.837 5.736 5.547-8.446-.983-16.7c-7.9-9.959-2.962 1.412-25.212-10.64s-12.834-10.584-28.125-10.084-4.576-8.547-20.8-.328c-17.346 8.819-17.308 10.534-20.17 18.816s.605 4.172-.756 15.026 3.505 10.486 3.505 10.486z" fill="#726739" transform="matrix(-.40673664 -.91354546 .91354546 -.40673664 65.815 147.493)"/><path d="m0 8.107s1.261-13.262 15.594-5.862 6.87 6.593 16.249 10.455-1.185 4.349 15.934 4.349 15.644 8.383 24.027 0 10.363-13.328 14.309-13.87 5.761.92 6.719 4.185-2.219 13.35-2.219 13.35 1.424-1.261-8.938 2.7-9.681 7.4-20.233 7.4c-3.1 0-5.421 1.261-12.329-1.261s-2.521-8.635-12.833-3.694-14.787-10.564-25.452-4.74c-5.773.741-10.828-13.012-10.828-13.012z" fill="#726739" transform="matrix(-.40673664 -.91354546 .91354546 -.40673664 115.47 120.544)"/><g fill="#595029"><path d="m0 10.4a37.653 37.653 0 0 1 4.866-5.253 25.552 25.552 0 0 1 5.975-4.072 11.522 11.522 0 0 1 3.559-1.021 6.3 6.3 0 0 1 3.656.618 18.91 18.91 0 0 0 6.69 2.118c2.332.3 4.689.34 7.047.416a32.638 32.638 0 0 1 7.2.58 59.857 59.857 0 0 1 13.237 5.5l-.063.113c-2.231-.794-4.463-1.6-6.707-2.345a63.319 63.319 0 0 0 -6.76-1.982c-4.45-.832-9.417-.441-14.068-1.664a40.341 40.341 0 0 1 -6.807-2.282c-2.143-.882-4.488-.063-6.5.945a34.691 34.691 0 0 0 -5.854 3.782c-1.853 1.437-3.631 3-5.383 4.6z" transform="matrix(-.40673664 -.91354546 .91354546 -.40673664 65.591 134.071)"/><path d="m54.156 11.4a65.023 65.023 0 0 0 -13.7-2.37 22.237 22.237 0 0 0 -6.883.5 18.669 18.669 0 0 1 -7.1 0 38.727 38.727 0 0 1 -6.807-1.967 32.876 32.876 0 0 0 -3.29-1.021c-.567-.139-1.059-.214-1.664-.315a15.855 15.855 0 0 1 -1.777-.391 60.373 60.373 0 0 1 -12.935-5.723v-.113c2.193.832 4.374 1.677 6.58 2.521a67.345 67.345 0 0 0 6.681 2.03c.555.126 1.109.24 1.651.328a17.276 17.276 0 0 1 1.79.353 31.415 31.415 0 0 1 3.378 1.261c2.193.845 4.311 1.8 6.543 2.433a12.354 12.354 0 0 0 6.833.189 21.758 21.758 0 0 1 7.034-1.147 34.542 34.542 0 0 1 13.716 3.353z" transform="matrix(-.40673664 -.91354546 .91354546 -.40673664 68.373 101.136)"/><path d="m43.655.113a22.564 22.564 0 0 1 -8.106 9.593 18.254 18.254 0 0 1 -5.912 2.294c-2.03.5-3.946 1.261-5.988 1.929a9.2 9.2 0 0 1 -3.24.441 7 7 0 0 1 -3.227-1.059 13.668 13.668 0 0 1 -1.261-.983 11.433 11.433 0 0 0 -1.185-.87 10.665 10.665 0 0 0 -2.672-1.258 16.389 16.389 0 0 0 -5.988-.567 27.317 27.317 0 0 0 -6.076 1.132v-.126a21.683 21.683 0 0 1 6.026-1.839 15.972 15.972 0 0 1 6.417.214 11.345 11.345 0 0 1 3.051 1.261 10.148 10.148 0 0 1 1.349.971 10.716 10.716 0 0 0 1.172.9 6.971 6.971 0 0 0 5.559.908 39.08 39.08 0 0 0 6.038-1.5 18.582 18.582 0 0 0 5.446-2.8 36.758 36.758 0 0 0 8.584-8.754z" transform="matrix(-.40673664 -.91354546 .91354546 -.40673664 110.612 80.62)"/><path d="m33.747 16.04a10.967 10.967 0 0 0 -2.862-4.223 7.45 7.45 0 0 0 -4.513-1.717 10.451 10.451 0 0 0 -2.521.189 16.889 16.889 0 0 1 -2.672.441 3.139 3.139 0 0 1 -1.425-.189 2.168 2.168 0 0 1 -1.084-1.082 14.848 14.848 0 0 1 -.782-2.622 5.988 5.988 0 0 0 -.971-2.193 7.173 7.173 0 0 0 -1.9-1.639 11.888 11.888 0 0 0 -4.667-1.805 23.952 23.952 0 0 0 -10.35.986v-.126a21.266 21.266 0 0 1 5.042-1.677 17.509 17.509 0 0 1 5.446-.29 11.913 11.913 0 0 1 5.257 1.8 7.312 7.312 0 0 1 2.13 1.967 7.476 7.476 0 0 1 1.009 2.71c.151.908.176 1.815.378 2.521a1.626 1.626 0 0 0 1.777 1.16c1.74 0 3.341-1.059 5.244-1.147a6.391 6.391 0 0 1 5.217 1.896 8.219 8.219 0 0 1 2.3 4.939z" transform="matrix(-.40673664 -.91354546 .91354546 -.40673664 119.626 116.374)"/></g></svg>