<svg height="174.463" viewBox="0 0 156.173 174.463" width="156.173" xmlns="http://www.w3.org/2000/svg"><path d="m46.446 217.487c-5.918-18.815-11.582-48.3 25.074-62.286 39.2-14.946 83.795 32.711 103.925 66.623 1.264 2.112 27.54 29.487-10.7 30.258-20.737.4-26.692 8.029-50.578 5.134s-61.79-20.916-67.721-39.729z" fill="#72e2fc" transform="matrix(.42261826 -.90630779 .90630779 .42261826 -155.89786873879 103.64933685085)"/><path d="m44.672 211.507c-7.915-31.94 4.426-47.91 26.806-56.331 21.5-8.08 46.86 3.009 64.221 19.106-65.32-22.9-87.031-7.448-91.027 37.225z" fill="#5ccee0" transform="matrix(.42261826 -.90630779 .90630779 .42261826 -155.8592736927 103.62099214365)"/><path d="m116.9 236.964a94.931 94.931 0 0 1 -17.4-3.022l-4.249-1.264-4.223-1.416c-2.769-1.062-5.551-2.112-8.244-3.389s-5.4-2.529-8.118-3.793a45.593 45.593 0 0 1 -7.435-5.058c-1.125-1-2.289-1.96-3.338-3.022s-2.061-2.213-3.035-3.363c-.468-.582-1-1.113-1.429-1.732l-1.264-1.884a43.234 43.234 0 0 1 -2.327-3.92.316.316 0 0 1 .139-.443.329.329 0 0 1 .291 0c1.378.7 2.63 1.492 3.869 2.263s2.415 1.618 3.654 2.352 2.428 1.543 3.591 2.352l3.591 2.276c2.314 1.618 4.742 3.06 6.967 4.818a84.3 84.3 0 0 0 7.195 4.678 126.053 126.053 0 0 0 15.414 7.587 109.458 109.458 0 0 0 16.438 5.4.316.316 0 0 1 -.089.62z" fill="#fff" transform="matrix(.42261826 -.90630779 .90630779 .42261826 -141.84686482921 106.208302839)"/><path d="m42.6 183.726s108.388 27.818 140.227 46.574c-15.806-27.38-115.317-70.877-126.735-69.119a35.619 35.619 0 0 0 -13.492 22.545z" fill="#e9fcff" opacity=".46" transform="matrix(.42261826 -.90630779 .90630779 .42261826 -153.74657737545 104.51126810737)"/><path d="m94.136 181.15a.835.835 0 0 0 -.3.531 12.518 12.518 0 0 0 .784 2.529l.822 2.453-1.922-.91a22.556 22.556 0 0 0 -2.074-.91.885.885 0 0 0 -.392.089.582.582 0 0 0 -.329.253.923.923 0 0 0 -.1.746.759.759 0 0 0 .2.291 17.587 17.587 0 0 0 2.01 1.012l2.617 1.264.759.354.531 1.581.517 1.567-1.151-.518c-.632-.291-1.264-.531-1.264-.544a.822.822 0 0 0 -.582.139.784.784 0 0 0 -.291.936.531.531 0 0 0 .266.367c.1.063.986.493 1.985.936l1.8.822.594 1.732.594 1.732-.278-.139-3.2-1.618-3.465-1.758a1.618 1.618 0 0 1 -.518-.329s-.152-.531-.341-1.113-.468-1.5-.645-2.048a10.912 10.912 0 0 0 -.784-2.289.809.809 0 0 0 -.847-.19.8.8 0 0 0 -.544.872c0 .1.228.809.48 1.593a21.649 21.649 0 0 1 .645 2.213l-.48-.24c-2.719-1.378-4.565-2.289-4.691-2.3a.847.847 0 0 0 -.86.961c.089.4.1.4 1.922 1.264l2.529 1.264.822.43-.847.253-1.96.607c-1.176.354-1.264.4-1.441.632a.9.9 0 0 0 -.1.721.809.809 0 0 0 .86.531c.126 0 .948-.253 1.833-.531l2.681-.835 1.087-.341.329.177 3.2 1.758 3.325 1.694.417.215-1.77.607-1.77.607-1.758-.948c-.961-.506-1.833-.948-1.922-.974a.834.834 0 0 0 -.759.2.86.86 0 0 0 -.2.86c.089.24.291.392 1.4.974.594.316 1.087.594 1.087.607s-.721.253-1.593.531l-1.568.506-.4-.2-2.529-1.264c-2.365-1.189-2.44-1.264-2.794-1.062a.835.835 0 0 0 -.468.594.9.9 0 0 0 .253.733c.076.063.948.531 1.935 1.024s1.808.91 1.821.936-.948.354-2.339.835a13.041 13.041 0 0 0 -2.529.936.91.91 0 0 0 -.2.809.9.9 0 0 0 .721.544 11.707 11.707 0 0 0 2.529-.784l2.352-.784s-.392.872-.885 1.9-.91 1.973-.923 2.074a.809.809 0 0 0 .3.759.822.822 0 0 0 1.138-.164c0-.076.531-1.075 1.075-2.213s1.087-2.3 1.264-2.529l.24-.493 1.568-.531 1.581-.518-.518 1.1c-.278.62-.518 1.189-.544 1.264a.91.91 0 0 0 .253.721.822.822 0 0 0 1.138 0s.468-.923.948-1.947l.847-1.871 1.264-.43c.683-.228 1.53-.506 1.884-.607l.645-.2-.278.594-3.135 6.654-.215.468-2.63.91c-1.871.632-2.668.923-2.756.986a.784.784 0 0 0 -.266.923.759.759 0 0 0 .62.531h.19l1.935-.658 1.947-.645-.354.721c-.493 1.024-1.707 3.642-1.884 4.034a.882.882 0 0 0 0 .948.835.835 0 0 0 1 .24c.278-.164.341-.278 1.479-2.719l1.151-2.453.721 2.023a19.9 19.9 0 0 0 .784 2.086 1.264 1.264 0 0 0 .531.215.91.91 0 0 0 .784-.481c.126-.291.152-.228-.872-3.212l-.948-2.769.62-1.264 1.656-3.553c.569-1.264 1.087-2.327 1.138-2.453l.114-.228.594 1.758.594 1.745-.936 1.8c-.518.986-.961 1.859-.974 1.947a.936.936 0 0 0 .215.67 1.113 1.113 0 0 0 .556.253 1.049 1.049 0 0 0 .569-.215 5.056 5.056 0 0 0 .493-.822c.215-.392.48-.9.594-1.125l.215-.4.531 1.581.544 1.568-1.264 2.592c-.885 1.732-1.34 2.655-1.353 2.769a.809.809 0 0 0 1.378.658c0-.063.531-.961 1.062-1.985l.948-1.871.835 2.377c.936 2.643.86 2.529 1.264 2.643a.8.8 0 0 0 1-.341c.19-.341.215-.177-.657-2.82l-.8-2.377 1.884.9a9.951 9.951 0 0 0 2.086.91.784.784 0 0 0 .809-.683.872.872 0 0 0 -.291-.759c-.076 0-1.264-.645-2.693-1.264l-2.529-1.264-.544-1.568-.544-1.581.392.177a16.857 16.857 0 0 0 2.074.885.948.948 0 0 0 .582-.19.986.986 0 0 0 .278-.544 1.062 1.062 0 0 0 -.215-.632 18.739 18.739 0 0 0 -1.96-.961l-1.859-.835-.607-1.758-.607-1.745.809.4c1.783.885 6.562 3.313 6.6 3.338a8.36 8.36 0 0 1 .291.847c.126.443.367 1.264.531 1.732s.4 1.328.569 1.821c.291.974.341 1.087.569 1.264a.8.8 0 0 0 .91 0 .91.91 0 0 0 .341-.7 25.42 25.42 0 0 0 -.733-2.466c-.139-.455-.291-.948-.329-1.125l-.089-.316 1.012.506 2.44 1.264a14.313 14.313 0 0 0 1.618.759.822.822 0 0 0 .809-.4.86.86 0 0 0 -.126-.948 27.061 27.061 0 0 0 -2.529-1.328c-1.34-.67-2.4-1.264-2.4-1.264l1.985-.62 1.985-.62.152-.152a.859.859 0 0 0 .215-.354.544.544 0 0 0 0-.443.746.746 0 0 0 -.531-.544 3.254 3.254 0 0 0 -.733.089l-2.832.872-2.314.721-.759-.379c-1.631-.809-6.638-3.338-6.765-3.414l-.126-.076 1.745-.594 1.732-.607.139.076c2.769 1.467 3.566 1.884 3.7 1.9a.91.91 0 0 0 .7-.266.809.809 0 0 0 0-1.087 11.552 11.552 0 0 0 -1.264-.708l-1.125-.594 1.568-.544 1.555-.556.645.329 2.6 1.34c1.176.607 2.036 1.024 2.124 1.037a.746.746 0 0 0 .658-.228.771.771 0 0 0 .228-.746c-.089-.379-.139-.417-2.175-1.467l-1.871-.974a22.981 22.981 0 0 1 2.327-.822 24.992 24.992 0 0 0 2.529-.872.809.809 0 0 0 -.493-1.492c-.1 0-.986.291-2.529.822l-2.377.809.923-1.884a16.73 16.73 0 0 0 .923-2.074.809.809 0 0 0 -1.378-.632s-.67 1.264-1.366 2.719l-1.264 2.617-1.543.506-1.543.493.506-1.125a8.85 8.85 0 0 0 .531-1.264.974.974 0 0 0 -.19-.582 1.024 1.024 0 0 0 -.531-.278.974.974 0 0 0 -.657.228 12.14 12.14 0 0 0 -1.062 2.187l-.733 1.606-1.694.582c-1.5.506-1.833.607-1.707.48s.493-1.024 1.075-2.263l1.745-3.717.683-1.454 2.706-.936 2.719-.948.1-.164a.632.632 0 0 0 .089-.721c-.1-.278-.114-.3-.278-.4a.948.948 0 0 0 -.354-.139 8.8 8.8 0 0 0 -2.124.632l-1.909.658.228-.493 1.176-2.529c.518-1.1.961-2.086.974-2.175a.872.872 0 0 0 -.228-.733.809.809 0 0 0 -1.138 0c-.076.076-.493.936-1.935 4.021-.266.556-.493 1.024-.506 1.037s-.329-.86-.721-1.973l-.67-1.985-.139-.126a1.455 1.455 0 0 0 -.341-.177.544.544 0 0 0 -.443 0 .759.759 0 0 0 -.544.544v.2l.961 2.82.961 2.82-.1.228-1.758 3.793-1.656 3.54-.62-1.745-.721-1.821.164-.3c1.783-3.363 1.77-3.325 1.72-3.68a.86.86 0 0 0 -.826-.662.8.8 0 0 0 -.556.278s-.341.582-.645 1.151l-.556 1.05s-.266-.7-.556-1.555l-.531-1.543 1.264-2.529a29.182 29.182 0 0 0 1.264-2.731.9.9 0 0 0 -.2-.658 1.037 1.037 0 0 0 -.556-.266.973.973 0 0 0 -.607.253s-.531.948-1.049 1.973l-.923 1.846-.847-2.44c-.948-2.719-.872-2.529-1.264-2.706a.759.759 0 0 0 -.7.025z" fill="#fff" transform="matrix(.42261826 -.90630779 .90630779 .42261826 -144.54425428517 97.2467048529)"/></svg>