<svg height="200.274" viewBox="0 0 183.096 200.274" width="183.096" xmlns="http://www.w3.org/2000/svg" xmlns:xlink="http://www.w3.org/1999/xlink"><filter id="a" filterUnits="userSpaceOnUse" height="200.274" width="183.096" x="0" y="0"><feOffset dy="3"/><feGaussianBlur result="blur" stdDeviation="3"/><feFlood flood-opacity=".161"/><feComposite in2="blur" operator="in"/><feComposite in="SourceGraphic"/></filter><g filter="url(#a)" transform="matrix(1.00182 -.00136 .00136 1.00182 4.23503 8.11831)"><path d="m64.28 275.424 28.138 28.309 37.735 8.123 20.356-13.042 14.232-22.468 5.869-17.932 4.9-36.814-3.983-33.412-3.983-24.878-33.015 4.238-19.633 9.98-19.896 15.466-16.431 22.468-12.829 29.031z" fill="#b5b5b5" transform="matrix(.9 .44 -.44 .9 87.93 -168.96)"/></g><path d="m87.509 209.338 15.281-6.818 21.972-13.382 30.974-9.866 8.789 22.624 10.561 19.7-3.986-33.408-3.983-24.878-33.017 4.239-19.633 9.98-19.9 15.466-16.428 22.467-12.829 29.031z" fill="#e8e8e8" transform="matrix(.899 .438 -.438 .899 92.488749 -160.696417)"/><path d="m98.686 199.88-12.871 3.912-10.476 16.6-7.669 25.474 8.463 13.056 1.2-25.53 9.1-16.359z" fill="#fff" transform="matrix(.899 .438 -.438 .899 86.686903 -146.536819)"/><path d="m64.28 243.352 28.138 28.309 37.735 8.123 20.356-13.042 14.232-22.468-1.191-4.054-7.711 4.522-16.5-4.621-23.787 15.225-12.885 5.954z" fill="#757575" transform="matrix(.899 .438 -.438 .899 78.055104 -132.050692)"/></svg>