<svg height="163.735" viewBox="0 0 177.262 163.735" width="177.262" xmlns="http://www.w3.org/2000/svg"><path d="m133.2 249c-23.457 22.423-43.172 19.674-61.336 4.64-17.429-14.409-20.354-41.621-15.075-64.315 12.367 67.113 36.232 78.134 76.411 59.675z" fill="#b737b4" transform="matrix(.588 .809 -.809 .588 180.227762 -107.193459)"/><path d="m109.915 171.414a93.517 93.517 0 0 1 6.041 16.327l1.044 4.245.884 4.313c.449 2.884.925 5.8 1.17 8.721s.5 5.878.735 8.844a41.241 41.241 0 0 1 -.694 8.871c-.3 1.456-.571 2.925-.98 4.354s-.912 2.844-1.442 4.231c-.286.694-.49 1.361-.83 2.068l-1.003 2.012a39.586 39.586 0 0 1 -2.3 3.864.367.367 0 0 1 -.5.1.422.422 0 0 1 -.15-.272 44.14 44.14 0 0 1 0-4.436c0-1.442.15-2.871.163-4.3s.1-2.816.19-4.218l.163-4.177c.19-5.538 1.265-11.034 1.265-16.667.082-2.8-.082-5.606-.218-8.422l-.313-4.231-.476-4.218a109.2 109.2 0 0 0 -3.32-16.749.34.34 0 0 1 .231-.422.354.354 0 0 1 .34.162z" fill="#e8bdaf" transform="matrix(.588 .809 -.809 .588 197.140797 -95.006079)"/><path d="m78.259 214.585c5.66-3.048 12-4.9 17.035.354 5.864 8.857 1.143 14.45-3.66 19.048s-9.81.354-13.728-2.381c-5.471-3.783-4.406-12.831.353-17.021z" fill="#eef2ed" transform="matrix(.588 .809 -.809 .588 177.92025 -96.6849)"/><path d="m78.458 214.714c1.361-.762 2.721-1.456 4.177-2.109a18.028 18.028 0 0 1 4.558-1.456 9.416 9.416 0 0 1 4.966.449 10.3 10.3 0 0 1 4.082 2.884l.1.1a15.47 15.47 0 0 1 2.34 7.021 12.137 12.137 0 0 1 -.272 3.646 15.457 15.457 0 0 1 -1.361 3.388 30.028 30.028 0 0 1 -4.272 5.81 8.49 8.49 0 0 1 -3.034 2.408 7.1 7.1 0 0 1 -4.082.408 17.919 17.919 0 0 1 -6.8-3.252l-1.449-1.011a9.523 9.523 0 0 1 -1.51-1.361 8.64 8.64 0 0 1 -1.973-3.456 11.429 11.429 0 0 1 .408-7.483 15.2 15.2 0 0 1 4.123-5.987zm.136.19a10.326 10.326 0 0 0 -2.082 2.721 11.142 11.142 0 0 0 -1.034 3.265 12.245 12.245 0 0 0 .708 6.422 7.374 7.374 0 0 0 1.633 2.531 9.96 9.96 0 0 0 1.143.966l1.442 1.02a17.687 17.687 0 0 0 5.728 3.143 5.959 5.959 0 0 0 5.578-1.728 22.327 22.327 0 0 0 4.69-5.044 10.994 10.994 0 0 0 1.279-3.157 8.463 8.463 0 0 0 0-3.361 15.307 15.307 0 0 0 -2.953-6l.109.136a12.49 12.49 0 0 0 -3.435-2.328 11.116 11.116 0 0 0 -4.082-.912 15.185 15.185 0 0 0 -4.449.558 20.286 20.286 0 0 0 -4.272 1.769z" fill="#cecece" transform="matrix(.588 .809 -.809 .588 177.943882 -97.033424)"/><path d="m79.914 216.264c3.864-4.517 8.028-4.694 10.313 1.361 1.66 4.408 3.633 5.946 1.075 9.892-2.721 4.177-9.524 5.442-11.647.844-2.355-5.43-2.816-8.546.259-12.097z" fill="#eef2ed" transform="matrix(.588 .809 -.809 .588 178.274866 -95.373687)"/><path d="m80.024 216.391a28.109 28.109 0 0 1 2.259-2.34 6.245 6.245 0 0 1 3.1-1.619 4.395 4.395 0 0 1 3.633 1.143 7.47 7.47 0 0 1 1.973 2.993c.408 1.116.585 2.041.952 3.075a32.517 32.517 0 0 1 .98 3.143 5.878 5.878 0 0 1 -.177 3.388 10.423 10.423 0 0 1 -1.592 2.993 8.545 8.545 0 0 1 -6.055 3.361 6.9 6.9 0 0 1 -3.742-.694 5.932 5.932 0 0 1 -2.721-2.884 14.967 14.967 0 0 1 -1.456-6.572 8.164 8.164 0 0 1 .912-3.32 14.111 14.111 0 0 1 1.934-2.667zm.177.15a6.925 6.925 0 0 0 -1.469 2.721 6.3 6.3 0 0 0 0 2.98 38.639 38.639 0 0 0 2.286 5.66 4.082 4.082 0 0 0 4 2.381 8.422 8.422 0 0 0 5.225-2.014c1.361-1.279 2.721-3.347 1.973-5.279a13.946 13.946 0 0 0 -1.442-2.789l-.816-1.361-.735-1.361c-.966-1.728-2.014-3.211-3.742-3.442a4.653 4.653 0 0 0 -2.8.612 8.544 8.544 0 0 0 -2.476 1.891z" fill="#cecece" transform="matrix(.588 .809 -.809 .588 178.323186 -95.661027)"/><path d="m81.749 218.443c1.605-1.878 3.347-1.946 4.3.558.694 1.823 1.51 2.476.449 4.082s-3.959 2.259-4.857.34c-.981-2.191-1.171-3.483.108-4.98z" fill="#666" transform="matrix(.588 .809 -.809 .588 177.734121 -93.598397)"/><path d="m81.851 218.562c.313-.34.585-.694.9-1.088a2.871 2.871 0 0 1 1.361-.966 2.2 2.2 0 0 1 1.959.463 3.088 3.088 0 0 1 .925 1.469c.15.558.122.884.218 1.361s.19.912.272 1.361a3.007 3.007 0 0 1 0 1.551 6.041 6.041 0 0 1 -.6 1.361 3.687 3.687 0 0 1 -2.721 1.81 3.429 3.429 0 0 1 -1.946-.313 2.993 2.993 0 0 1 -1.442-1.537 4.9 4.9 0 0 1 -.395-3.007 5.443 5.443 0 0 1 1.469-2.463zm.177.15a2.041 2.041 0 0 0 -.49 1.17 1.987 1.987 0 0 0 .313 1.129c.381.653.776 1.361 1.129 2.1a1.116 1.116 0 0 0 .952.626 3.5 3.5 0 0 0 1.932-.435 1.633 1.633 0 0 0 .9-1.891 5.333 5.333 0 0 0 -.735-1.061c-.3-.327-.626-.83-.83-1.088l-.558-.735c-.163-.177-.2-.34-.463-.5a1.918 1.918 0 0 0 -2.15.735z" fill="#cecece" transform="matrix(.588 .809 -.809 .588 177.802149 -93.892643)"/><path d="m96.89 231.4c-1.048.435-2.191.653-2.993-.354-.884-1.66 0-2.558.966-3.293s1.728.109 2.381.653a2.014 2.014 0 0 1 -.354 2.993z" fill="#eef2ed" transform="matrix(.588 .809 -.809 .588 177.39128 -87.69281)"/><path d="m96.918 231.5a6.04 6.04 0 0 1 -1.605.544 1.687 1.687 0 0 1 -1.619-.748 2.721 2.721 0 0 1 .177-2.558 6.558 6.558 0 0 1 .83-.993 1.361 1.361 0 0 1 1.361-.408 3.171 3.171 0 0 1 1.184.694 2 2 0 0 1 .8 1.184 2.517 2.517 0 0 1 -1.129 2.286zm0 0a1.918 1.918 0 0 0 .517-2.109 1.646 1.646 0 0 0 -.639-.8 3.075 3.075 0 0 0 -.9-.626.952.952 0 0 0 -.912.15 3.483 3.483 0 0 0 -.939.776 1.361 1.361 0 0 0 -.313 1.1 2.585 2.585 0 0 0 .463.993 2.272 2.272 0 0 0 1.2.694 2.721 2.721 0 0 0 1.524-.231z" fill="#cecece" transform="matrix(.588 .809 -.809 .588 177.427622 -87.755079)"/><path d="m96.235 230.717c-.762.735-1.5.694-1.8-.395-.218-.816-.544-1.116 0-1.769s1.769-.789 2.068 0a1.883 1.883 0 0 1 -.268 2.164z" fill="#eef2ed" transform="matrix(.588 .809 -.809 .588 177.361709 -87.401788)"/><path d="m96.289 230.868c-.3.245-.517.6-1.034.68a.8.8 0 0 1 -.694-.272 1.279 1.279 0 0 1 -.313-.6l-.177-1.156a1.524 1.524 0 0 1 .408-1.156 1.578 1.578 0 0 1 1.184-.544 1.2 1.2 0 0 1 1.2.816 2.435 2.435 0 0 1 .1 1.225 1.918 1.918 0 0 1 -.674 1.007zm0 0a.98.98 0 0 0 .272-.98c-.1-.313-.218-.653-.34-.98a.989.989 0 0 0 -1.361-.218.816.816 0 0 0 -.449.844c.1.313.354.68.49 1.007a1.05 1.05 0 0 0 .5.626 1.034 1.034 0 0 0 .83-.381z" fill="#cecece" transform="matrix(.588 .809 -.809 .588 177.402242 -87.463394)"/><path d="m95.573 229.829c-.313.313-.626.286-.748-.163s-.218-.463 0-.735.735-.34.857 0a.769.769 0 0 1 -.109.898z" fill="#4c4c4c" transform="matrix(.588 .809 -.809 .588 177.278677 -87.094164)"/><path d="m95.63 229.94c-.136.1-.163.313-.449.395a.49.49 0 0 1 -.571-.435 2.363 2.363 0 0 1 .191-1.1.68.68 0 0 1 .571-.327.667.667 0 0 1 .68.449.8.8 0 0 1 0 .585 1.252 1.252 0 0 1 -.422.435zm0 0a.286.286 0 0 0 0-.395.952.952 0 0 1 -.2-.34.449.449 0 0 0 -.286 0 .221.221 0 0 0 -.2.258c.041.109.231.259.3.381s0 .082 0 .191.245-.027.34-.15z" fill="#eef2ed" transform="matrix(.588 .809 -.809 .588 177.328993 -87.167826)"/><path d="m100.888 225.792c-1.048.449-2.191.653-2.993-.354-.871-1.66 0-2.558.966-3.293s1.742.109 2.381.653a2.014 2.014 0 0 1 -.354 2.993z" fill="#eef2ed" transform="matrix(.588 .809 -.809 .588 179.876371 -87.714947)"/><path d="m100.923 225.885a6.68 6.68 0 0 1 -1.619.558 1.714 1.714 0 0 1 -1.619-.762 2.721 2.721 0 0 1 .163-2.558 6.516 6.516 0 0 1 .844-.993 1.361 1.361 0 0 1 1.361-.408 3.061 3.061 0 0 1 1.184.694 1.918 1.918 0 0 1 .8 1.184 2.476 2.476 0 0 1 -1.116 2.286zm0 0a1.891 1.891 0 0 0 .517-2.109 1.537 1.537 0 0 0 -.626-.789 3.252 3.252 0 0 0 -.9-.64.939.939 0 0 0 -.925.163 3.593 3.593 0 0 0 -.925.762 1.361 1.361 0 0 0 -.327 1.1 2.585 2.585 0 0 0 .463 1.048 2.191 2.191 0 0 0 1.184.694 2.721 2.721 0 0 0 1.537-.286z" fill="#cecece" transform="matrix(.588 .809 -.809 .588 179.909773 -87.781261)"/><path d="m100.2 225.161c-.748.721-1.5.68-1.8-.408-.218-.8-.531-1.116 0-1.769s1.755-.789 2.068 0a1.9 1.9 0 0 1 -.268 2.177z" fill="#eef2ed" transform="matrix(.588 .809 -.809 .588 179.829373 -87.422386)"/><path d="m100.258 225.258c-.286.245-.517.6-1.02.68a.844.844 0 0 1 -.708-.259 1.361 1.361 0 0 1 -.313-.612l-.177-1.157a1.551 1.551 0 0 1 .422-1.143 1.5 1.5 0 0 1 1.17-.558 1.184 1.184 0 0 1 1.2.816 2.3 2.3 0 0 1 .109 1.225 1.932 1.932 0 0 1 -.683 1.008zm0 0a1.007 1.007 0 0 0 .272-.98l-.34-.98c-.109-.449-.857-.558-1.442-.218a.83.83 0 0 0 -.449.844c.1.313.367.68.5 1.007a1.035 1.035 0 0 0 .49.626 1.02 1.02 0 0 0 .925-.34z" fill="#cecece" transform="matrix(.588 .809 -.809 .588 179.880865 -87.49443)"/><path d="m99.554 224.218c-.327.313-.626.3-.748-.163s-.231-.463 0-.735.735-.327.857 0a.8.8 0 0 1 -.109.898z" fill="#4c4c4c" transform="matrix(.588 .809 -.809 .588 179.756858 -87.122406)"/><path d="m99.6 224.33c-.122.1-.163.313-.449.395a.49.49 0 0 1 -.571-.435 2.283 2.283 0 0 1 .19-1.089.709.709 0 0 1 1.265.109.966.966 0 0 1 0 .585 1.157 1.157 0 0 1 -.435.435zm0 0a.272.272 0 0 0 0-.395 1.034 1.034 0 0 1 -.218-.34.517.517 0 0 0 -.3 0c-.122 0-.245.15-.19.259a3.3 3.3 0 0 0 .3.381c.1.109 0 .1 0 .191s.272-.014.367-.136z" fill="#eef2ed" transform="matrix(.588 .809 -.809 .588 179.806219 -87.199083)"/><path d="m91.79 235.172c-1.048.435-2.191.653-2.993-.354-.884-1.66 0-2.558.966-3.293s1.742.109 2.381.653a2.014 2.014 0 0 1 -.354 2.993z" fill="#eef2ed" transform="matrix(.588 .809 -.809 .588 175.211326 -88.382057)"/><path d="m91.829 235.265a6.573 6.573 0 0 1 -1.606.558 1.714 1.714 0 0 1 -1.619-.762 2.721 2.721 0 0 1 .163-2.558 5.918 5.918 0 0 1 .844-.993 1.361 1.361 0 0 1 1.361-.408 3.171 3.171 0 0 1 1.184.694 2 2 0 0 1 .8 1.184 2.517 2.517 0 0 1 -1.129 2.286zm0 0a1.918 1.918 0 0 0 .517-2.109 1.565 1.565 0 0 0 -.639-.789 2.9 2.9 0 0 0 -.9-.639.952.952 0 0 0 -.912.15 3.756 3.756 0 0 0 -.939.776 1.361 1.361 0 0 0 -.313 1.1 2.585 2.585 0 0 0 .463 1.048 2.19 2.19 0 0 0 1.184.694 2.722 2.722 0 0 0 1.51-.286z" fill="#cecece" transform="matrix(.588 .809 -.809 .588 175.247226 -88.441532)"/><path d="m91.1 234.527c-.762.735-1.5.694-1.8-.395-.218-.8-.531-1.116 0-1.769s1.755-.789 2.054 0a1.872 1.872 0 0 1 -.254 2.164z" fill="#eef2ed" transform="matrix(.588 .809 -.809 .588 175.164328 -88.089496)"/><path d="m91.158 234.638a1.986 1.986 0 0 1 -1.034.68.8.8 0 0 1 -.694-.272 1.279 1.279 0 0 1 -.313-.6l-.177-1.157a1.673 1.673 0 0 1 1.592-1.7 1.2 1.2 0 0 1 1.2.816 2.286 2.286 0 0 1 .1 1.225 1.918 1.918 0 0 1 -.667 1.007zm0 0a.952.952 0 0 0 .272-.98c-.1-.313-.218-.653-.34-.98a.989.989 0 0 0 -1.361-.218.816.816 0 0 0 -.449.844c.1.313.354.68.49 1.007a1.05 1.05 0 0 0 .5.626.993.993 0 0 0 .83-.34z" fill="#cecece" transform="matrix(.588 .809 -.809 .588 175.215011 -88.160952)"/><path d="m90.444 233.6c-.313.313-.612.286-.748-.163s-.218-.463 0-.735.735-.327.857 0a.772.772 0 0 1 -.109.898z" fill="#4c4c4c" transform="matrix(.588 .809 -.809 .588 175.08924 -87.791355)"/><path d="m90.5 233.71c-.122.1-.163.313-.449.395a.49.49 0 0 1 -.571-.435 2.363 2.363 0 0 1 .19-1.1.68.68 0 0 1 .571-.327.653.653 0 0 1 .68.449.8.8 0 0 1 0 .585 1.252 1.252 0 0 1 -.421.433zm0 0a.3.3 0 0 0 0-.408.953.953 0 0 1 -.2-.34.517.517 0 0 0 -.3 0c-.122 0-.245.15-.19.259s.218.259.286.381 0 .082 0 .191.272-.014.367-.122z" fill="#eef2ed" transform="matrix(.588 .809 -.809 .588 175.140953 -87.864796)"/><path d="m99.882 235.529c-.816.34-1.714.517-2.327-.272-.694-1.361 0-1.986.748-2.558s1.361.082 1.85.5a1.565 1.565 0 0 1 -.272 2.327z" fill="#eef2ed" transform="matrix(.588 .809 -.809 .588 176.722483 -85.542556)"/><path d="m99.938 235.626a5.973 5.973 0 0 1 -1.252.476 1.361 1.361 0 0 1 -1.361-.6 2.2 2.2 0 0 1 .177-2.041 6.922 6.922 0 0 1 .626-.789 1.143 1.143 0 0 1 1.143-.354 2.6 2.6 0 0 1 .952.558 1.565 1.565 0 0 1 .639.966 1.986 1.986 0 0 1 -.924 1.784zm0 0a1.361 1.361 0 0 0 .327-1.619c-.1-.259-.177-.327-.476-.571a2.516 2.516 0 0 0 -.667-.49.694.694 0 0 0 -.653.1 2.8 2.8 0 0 0 -.735.571 1.075 1.075 0 0 0 -.245.844 2.231 2.231 0 0 0 .381.789 1.81 1.81 0 0 0 2.1.422z" fill="#cecece" transform="matrix(.588 .809 -.809 .588 176.753608 -85.617106)"/><path d="m99.332 235.038c-.585.558-1.157.531-1.361-.327-.177-.612-.422-.857 0-1.361s1.361-.612 1.606 0a1.452 1.452 0 0 1 -.245 1.688z" fill="#eef2ed" transform="matrix(.588 .809 -.809 .588 176.689767 -85.308594)"/><path d="m99.393 235.153c-.231.177-.381.476-.8.558a.8.8 0 0 1 -.844-.694 3.105 3.105 0 0 0 -.1-.925 1.238 1.238 0 0 1 .313-.925 1.279 1.279 0 0 1 .952-.476 1.021 1.021 0 0 1 .993.68 1.483 1.483 0 0 1 -.517 1.782zm0 0a.694.694 0 0 0 .163-.748l-.286-.748c0-.272-.558-.395-1.02-.163a.585.585 0 0 0 -.34.626 8.422 8.422 0 0 0 .408.762 1.361 1.361 0 0 0 .34.463.694.694 0 0 0 .694-.245z" fill="#cecece" transform="matrix(.588 .809 -.809 .588 176.740746 -85.386447)"/><path d="m98.829 234.315c-.245.231-.476.218-.571-.136s-.177-.354 0-.571.571-.258.667 0a.613.613 0 0 1 -.096.707z" fill="#4c4c4c" transform="matrix(.588 .809 -.809 .588 176.633156 -85.081992)"/><path d="m98.9 234.425c-.109.068-.109.259-.354.34a.408.408 0 0 1 -.5-.354c.082-.245 0-.612.177-.912a.571.571 0 0 1 .476-.3.585.585 0 0 1 .612.395.639.639 0 0 1 0 .49c-.155.205-.332.205-.411.341zm0 0a.19.19 0 0 0 0-.3.544.544 0 0 1 -.19-.245s.082 0 0 0a.34.34 0 0 0 -.2 0c-.1 0-.19.082-.15.163s.19.19.258.272 0 0 0 .122.163.027.245-.068z" fill="#eef2ed" transform="matrix(.588 .809 -.809 .588 176.677004 -85.164553)"/><path d="m98.347 216.685c.6 1.048.98 2.231 0 3.211-1.646 1.143-2.721.272-3.619-.612s-.109-1.837.395-2.6a2.136 2.136 0 0 1 3.225 0z" fill="#eef2ed" transform="matrix(.588 .809 -.809 .588 180.91827 -89.906415)"/><path d="m98.438 216.717a6.45 6.45 0 0 1 .776 1.633 1.864 1.864 0 0 1 -.585 1.81 2.816 2.816 0 0 1 -2.721.15 5.975 5.975 0 0 1 -1.143-.762 1.456 1.456 0 0 1 -.612-1.361 3.524 3.524 0 0 1 .585-1.361 2.082 2.082 0 0 1 1.143-.993 2.721 2.721 0 0 1 2.558.884zm0 0a2.068 2.068 0 0 0 -2.313-.3 1.742 1.742 0 0 0 -.762.776 3.646 3.646 0 0 0 -.571 1.048 1.048 1.048 0 0 0 .3.966 3.849 3.849 0 0 0 .939.884 1.592 1.592 0 0 0 1.211.2 3.02 3.02 0 0 0 1.075-.612 2.231 2.231 0 0 0 .571-1.361 3.034 3.034 0 0 0 -.5-1.565z" fill="#cecece" transform="matrix(.588 .809 -.809 .588 180.929178 -89.993471)"/><path d="m97.74 217c.871.708.925 1.5-.2 1.946-.816.34-1.1.721-1.864.245s-1.061-1.769-.2-2.191a1.915 1.915 0 0 1 2.264 0z" fill="#eef2ed" transform="matrix(.588 .809 -.809 .588 180.855159 -89.579888)"/><path d="m97.838 217.036c.286.272.694.476.83.993a.857.857 0 0 1 -.19.762 1.361 1.361 0 0 1 -.6.408l-1.184.34a1.551 1.551 0 0 1 -1.265-.3 1.619 1.619 0 0 1 -.735-1.157 1.252 1.252 0 0 1 .707-1.361 2.49 2.49 0 0 1 1.279-.272 2.041 2.041 0 0 1 1.157.585zm0 0a1.061 1.061 0 0 0 -1.075-.19l-1.007.49c-.49.177-.5 1.007 0 1.578a.871.871 0 0 0 .952.354 10.337 10.337 0 0 0 1.007-.64c.313-.2.531-.354.612-.626a1.116 1.116 0 0 0 -.49-.912z" fill="#cecece" transform="matrix(.588 .809 -.809 .588 180.849311 -89.696802)"/><path d="m96.8 217.361c.367.3.381.626-.082.816s-.463.3-.776.1-.449-.735-.082-.912.652-.236.94-.004z" fill="#4c4c4c" transform="matrix(.588 .809 -.809 .588 180.830284 -89.255188)"/><path d="m96.914 217.384c.109.122.34.15.463.422a.517.517 0 0 1 -.381.639c-.327 0-.776.191-1.17 0a.748.748 0 0 1 -.422-.558.68.68 0 0 1 .395-.762.8.8 0 0 1 .6 0 1.2 1.2 0 0 1 .517.259zm0 0a.3.3 0 0 0 -.422 0 1.605 1.605 0 0 1 -.34.259v.068a.667.667 0 0 0 0 .313.233.233 0 0 0 .313.177c.122-.068.245-.259.367-.354s.1-.082.19-.109-.014-.218-.15-.3z" fill="#eef2ed" transform="matrix(.588 .809 -.809 .588 180.819432 -89.358574)"/><path d="m103.12 228.639c.476.83.762 1.755 0 2.5-1.279.9-2.123.218-2.816-.463s-.082-1.442.3-2.027a1.674 1.674 0 0 1 2.517-.014z" fill="#eef2ed" transform="matrix(.588 .809 -.809 .588 178.583194 -85.682083)"/><path d="m103.214 228.693a5.251 5.251 0 0 1 .639 1.265 1.429 1.429 0 0 1 -.449 1.456 2.3 2.3 0 0 1 -2.163.1 5.21 5.21 0 0 1 -.912-.585 1.184 1.184 0 0 1 -.517-1.129 2.79 2.79 0 0 1 .463-1.075 1.66 1.66 0 0 1 .925-.8 2.123 2.123 0 0 1 2.014.776zm0 0a1.537 1.537 0 0 0 -1.755-.177 1.483 1.483 0 0 0 -.571.585 2.8 2.8 0 0 0 -.422.789.708.708 0 0 0 .19.694 2.722 2.722 0 0 0 .708.708 1.116 1.116 0 0 0 .925.15 2.489 2.489 0 0 0 .8-.5 2 2 0 0 0 .449-1.007 2.122 2.122 0 0 0 -.381-1.2z" fill="#cecece" transform="matrix(.588 .809 -.809 .588 178.59881 -85.77627)"/><path d="m102.645 228.886c.667.558.708 1.17-.163 1.524-.639.258-.857.558-1.442.19s-.83-1.361-.163-1.7a1.489 1.489 0 0 1 1.768-.014z" fill="#eef2ed" transform="matrix(.588 .809 -.809 .588 178.533193 -85.429376)"/><path d="m102.748 228.933c.231.2.558.34.694.776a.844.844 0 0 1 -.626.966l-.952.231a1.361 1.361 0 0 1 -1.02-.218 1.252 1.252 0 0 1 -.6-.939 1.034 1.034 0 0 1 .571-1.129 1.836 1.836 0 0 1 1.02-.177 1.646 1.646 0 0 1 .912.49zm0 0a.762.762 0 0 0 -.816-.1l-.762.395c-.3.1-.354.68 0 1.129.163.218.463.408.708.286s.517-.381.776-.531a.909.909 0 0 0 .449-.422.776.776 0 0 0 -.395-.721z" fill="#cecece" transform="matrix(.588 .809 -.809 .588 178.529401 -85.536657)"/><path d="m101.917 229.174c.286.231.3.49-.068.639s-.354.231-.6.082a.4.4 0 0 1 0-.721c.351-.15.436-.191.668 0z" fill="#4c4c4c" transform="matrix(.588 .809 -.809 .588 178.519956 -85.173717)"/><path d="m102.022 229.212c.1.109.286.1.408.34a.435.435 0 0 1 -.313.558 1.99 1.99 0 0 1 -.966-.068.6.6 0 0 1 -.367-.449.612.612 0 0 1 .34-.68.694.694 0 0 1 .5 0c.207.054.302.231.398.299zm0 0a.2.2 0 0 0 -.313.082.5.5 0 0 1 -.231.218.367.367 0 0 0 0 .231c0 .1.136.19.2.136s.19-.231.272-.313 0 0 .136 0 0-.231-.109-.3z" fill="#eef2ed" transform="matrix(.588 .809 -.809 .588 178.518445 -85.286365)"/><path d="m82.217 142.065c3.8-2.041 8.055-3.279 11.429.245 3.932 5.946.776 9.7-2.449 12.79s-6.585.231-9.225-1.592c-3.66-2.558-2.952-8.627.245-11.443z" fill="#eef2ed" transform="matrix(.588 .809 -.809 .588 199.910163 -110.312391)"/><path d="m82.4 142.2c.939-.49 1.837-1.007 2.721-1.469a13.158 13.158 0 0 1 3.075-1.143 6.368 6.368 0 0 1 3.483.231 6.8 6.8 0 0 1 2.871 2.027l.1.109a9.837 9.837 0 0 1 .313 9.66 21.768 21.768 0 0 1 -2.721 4.082 5.782 5.782 0 0 1 -2.136 1.714 5.1 5.1 0 0 1 -2.912.313 12.109 12.109 0 0 1 -4.694-2.2l-.966-.667a6.518 6.518 0 0 1 -1.1-1.048 6.368 6.368 0 0 1 -1.361-2.49 7.647 7.647 0 0 1 .463-5.184 11.225 11.225 0 0 1 2.864-3.935zm.136.19a6.422 6.422 0 0 0 -1.946 4.082 8.381 8.381 0 0 0 .653 4.082 4.885 4.885 0 0 0 1.048 1.537 5.061 5.061 0 0 0 .707.585l.966.694a12.245 12.245 0 0 0 3.674 2.082 3.687 3.687 0 0 0 3.483-.98 14.109 14.109 0 0 0 3.225-3.265 6.476 6.476 0 0 0 .857-2.082 5.238 5.238 0 0 0 0-2.2 10.4 10.4 0 0 0 -2.1-3.864l.109.136a9.647 9.647 0 0 0 -2.2-1.483 7.932 7.932 0 0 0 -2.612-.667 10.245 10.245 0 0 0 -5.864 1.347z" fill="#cecece" transform="matrix(.588 .809 -.809 .588 199.948057 -110.651499)"/><path d="m83.325 143.2c2.6-3.034 5.442-3.157 6.925.884 1.116 2.952 2.435 3.987.721 6.626s-6.381 3.646-7.823.571c-1.579-3.607-1.878-5.688.177-8.081z" fill="#eef2ed" transform="matrix(.588 .809 -.809 .588 200.149832 -109.433199)"/><path d="m83.435 143.329c.49-.531.952-1.1 1.5-1.633a4.34 4.34 0 0 1 2.123-1.252 3.184 3.184 0 0 1 2.721.762 4.925 4.925 0 0 1 1.361 2.123c.272.816.34 1.361.531 2.123s.435 1.361.6 2.163a4.34 4.34 0 0 1 -.122 2.354 7.986 7.986 0 0 1 -1.048 2.136 5.8 5.8 0 0 1 -4.2 2.476 4.776 4.776 0 0 1 -2.721-.476 4.422 4.422 0 0 1 -1.986-2.123 9.266 9.266 0 0 1 -.857-4.572 6 6 0 0 1 .776-2.272 13.008 13.008 0 0 1 1.333-1.81zm.19.15a4.082 4.082 0 0 0 -.925 1.864 3.851 3.851 0 0 0 .177 1.932c.463 1.184 1.034 2.395 1.619 3.633a2.449 2.449 0 0 0 2.272 1.361 5.674 5.674 0 0 0 3.374-1.129 3.116 3.116 0 0 0 1.361-3.361 9.144 9.144 0 0 0 -1.034-1.823c-.422-.571-.844-1.361-1.157-1.837a9.523 9.523 0 0 0 -1.007-1.361 2.326 2.326 0 0 0 -1.184-.776 2.721 2.721 0 0 0 -1.85.231 5.034 5.034 0 0 0 -1.66 1.265z" fill="#cecece" transform="matrix(.588 .809 -.809 .588 200.200212 -109.724509)"/><path d="m84.557 144.669c1.075-1.265 2.245-1.361 2.884.367.463 1.225 1.02 1.66.3 2.721s-2.653 1.524-3.265.231-.776-2.325.081-3.319z" fill="#666" transform="matrix(.588 .809 -.809 .588 199.790877 -108.241314)"/><path d="m84.706 144.8a6.027 6.027 0 0 0 .571-.776 1.959 1.959 0 0 1 .98-.83 1.674 1.674 0 0 1 1.551.313 2.014 2.014 0 0 1 .68 1.1 3.958 3.958 0 0 1 0 .966 6.8 6.8 0 0 0 .122.993 3.143 3.143 0 0 1 0 1.129 5.756 5.756 0 0 1 -.381 1.048 2.721 2.721 0 0 1 -3.524 1.224 2.463 2.463 0 0 1 -1.157-1.224 3.238 3.238 0 0 1 -.136-2.177 4.666 4.666 0 0 1 1.294-1.766zm.177.15a1.17 1.17 0 0 0 -.259.8 1.36 1.36 0 0 0 .354.708 4.313 4.313 0 0 1 .9 1.238v.082a.327.327 0 0 0 .218.15 2.327 2.327 0 0 0 1.156 0c.449-.163.871-.68.626-1.088a2.6 2.6 0 0 0 -.558-.653c-.245-.191-.517-.571-.667-.694a1.918 1.918 0 0 1 -.313-.381v-.327c-.26-.47-1.13-.293-1.457.169z" fill="#cecece" transform="matrix(.588 .809 -.809 .588 199.822958 -108.566306)"/><path d="m96.5 155.387c-1.048-.449-2.014-1.116-1.85-2.381.571-1.8 1.864-1.769 3.034-1.619s1.129 1.361 1.2 2.15a2.014 2.014 0 0 1 -2.381 1.85z" fill="#eef2ed" transform="matrix(.588 .809 -.809 .588 199.835886 -103.520177)"/><path d="m96.572 155.446a6.068 6.068 0 0 1 -1.51-.762 1.7 1.7 0 0 1 -.612-1.684 2.721 2.721 0 0 1 1.946-1.66 5.973 5.973 0 0 1 1.361-.1 1.361 1.361 0 0 1 1.279.694 3.415 3.415 0 0 1 .327 1.361 1.945 1.945 0 0 1 -.286 1.361 2.476 2.476 0 0 1 -2.5.789zm0-.068a1.918 1.918 0 0 0 1.878-1.1 1.687 1.687 0 0 0 .122-1.007 3.251 3.251 0 0 0 -.177-1.088.98.98 0 0 0 -.762-.544 3.266 3.266 0 0 0 -1.2-.122 1.361 1.361 0 0 0 -1.007.531 2.721 2.721 0 0 0 -.435 1.075 2.2 2.2 0 0 0 .34 1.361 2.722 2.722 0 0 0 1.241.894z" fill="#cecece" transform="matrix(.588 .809 -.809 .588 199.816498 -103.601286)"/><path d="m96.26 154.588c-1.048 0-1.537-.585-.966-1.565.422-.721.408-1.17 1.238-1.252s1.8.708 1.361 1.51-.803 1.319-1.633 1.307z" fill="#eef2ed" transform="matrix(.588 .809 -.809 .588 199.797807 -103.302099)"/><path d="m96.34 154.665a2.027 2.027 0 0 1 -1.211-.259.857.857 0 0 1 -.3-.68 1.429 1.429 0 0 1 .218-.653l.694-.925a1.538 1.538 0 0 1 1.116-.517 1.605 1.605 0 0 1 1.225.449 1.211 1.211 0 0 1 .259 1.361 2.476 2.476 0 0 1 -.8.925 1.932 1.932 0 0 1 -1.201.299zm0-.068a.939.939 0 0 0 .884-.49c.163-.286.313-.6.463-.925s-.19-1.007-.857-1.17a.789.789 0 0 0 -.9.259c-.163.3-.245.735-.381 1.061a1.238 1.238 0 0 0 -.1.8 1.007 1.007 0 0 0 .891.468z" fill="#cecece" transform="matrix(.588 .809 -.809 .588 199.791217 -103.396219)"/><path d="m96.2 153.551c-.435 0-.639-.245-.408-.653s.177-.49.517-.517.748.286.585.626-.35.557-.694.544z" fill="#4c4c4c" transform="matrix(.588 .809 -.809 .588 199.755801 -102.982257)"/><path d="m96.281 153.623a1.255 1.255 0 0 1 -.6 0 .5.5 0 0 1 -.1-.708c.259-.177.49-.571.912-.639a.667.667 0 0 1 .639.177.653.653 0 0 1 .163.8.83.83 0 0 1 -.435.395 1.075 1.075 0 0 1 -.579-.025zm0 0a.258.258 0 0 0 .272-.272 1.047 1.047 0 0 1 .1-.395.639.639 0 0 0 -.19-.231h-.313a4.442 4.442 0 0 0 0 .476c0 .15 0 .109-.082.177s.122.19.218.177z" fill="#eef2ed" transform="matrix(.588 .809 -.809 .588 199.746342 -103.071819)"/><path d="m88.749 157.925c-.816-.34-1.551-.871-1.361-1.85.435-1.361 1.442-1.361 2.354-1.265s.884 1.02.939 1.674a1.578 1.578 0 0 1 -1.932 1.442z" fill="#eef2ed" transform="matrix(.588 .809 -.809 .588 197.28893 -104.908285)"/><path d="m88.842 158.008a5.144 5.144 0 0 1 -1.211-.571 1.361 1.361 0 0 1 -.5-1.361 2.218 2.218 0 0 1 1.565-1.361 6.478 6.478 0 0 1 1.02-.1 1.156 1.156 0 0 1 1.048.558 2.844 2.844 0 0 1 .272 1.075 1.619 1.619 0 0 1 -.245 1.129 1.986 1.986 0 0 1 -1.946.626zm0-.068a1.361 1.361 0 0 0 1.361-.884 1.279 1.279 0 0 0 .082-.748 2.871 2.871 0 0 0 -.122-.816.708.708 0 0 0 -.476-.354 2.721 2.721 0 0 0 -.925-.109.98.98 0 0 0 -.762.408 1.973 1.973 0 0 0 -.3.83 1.973 1.973 0 0 0 .231.993 2.028 2.028 0 0 0 .925.68z" fill="#cecece" transform="matrix(.588 .809 -.809 .588 197.278962 -105.017259)"/><path d="m88.619 157.3c-.816 0-1.2-.449-.748-1.211s.313-.912.952-.98 1.361.558 1.1 1.184a1.364 1.364 0 0 1 -1.304 1.007z" fill="#eef2ed" transform="matrix(.588 .809 -.809 .588 197.260867 -104.744469)"/><path d="m88.7 157.387a1.878 1.878 0 0 1 -.98-.177.83.83 0 0 1 -.082-1.1c.2-.245.381-.435.585-.708a1.361 1.361 0 0 1 1.878-.082.98.98 0 0 1 .218 1.184 1.633 1.633 0 0 1 -.667.735 1.714 1.714 0 0 1 -.952.148zm0-.068a.68.68 0 0 0 .653-.408c.1-.245.2-.476.327-.735s-.109-.667-.6-.83a.6.6 0 0 0 -.68.177 7.638 7.638 0 0 0 -.2.844 1.361 1.361 0 0 0 -.1.558.708.708 0 0 0 .6.394z" fill="#cecece" transform="matrix(.588 .809 -.809 .588 197.250599 -104.833443)"/><path d="m88.574 156.506c-.34 0-.5-.19-.313-.517s.136-.367.395-.408.585.231.463.49-.273.435-.545.435z" fill="#4c4c4c" transform="matrix(.588 .809 -.809 .588 197.229765 -104.49808)"/><path d="m88.653 156.583c-.122 0-.272.109-.5 0a.422.422 0 0 1 -.1-.612c.231-.109.435-.422.776-.5a.544.544 0 0 1 .544.122.612.612 0 0 1 .15.721.68.68 0 0 1 -.381.3 1.129 1.129 0 0 1 -.49-.027zm0-.068a.2.2 0 0 0 .177-.245.449.449 0 0 1 0-.3.313.313 0 0 0 -.1-.19c0-.068-.2-.068-.231 0a3.541 3.541 0 0 0 0 .381c0 .109 0 0-.1.068s.131.299.254.286z" fill="#eef2ed" transform="matrix(.588 .809 -.809 .588 197.222954 -104.590803)"/><path d="m95.445 158.108c-.259.9-.707 1.755-1.782 1.755-1.524-.3-1.633-1.361-1.633-2.34s.966-1.061 1.66-1.2c1.02-.187 1.796.847 1.755 1.785z" fill="#eef2ed" transform="matrix(.588 .809 -.809 .588 197.832554 -103.221353)"/><path d="m95.546 158.214a6.028 6.028 0 0 1 -.449 1.361 1.442 1.442 0 0 1 -1.361.694 2.3 2.3 0 0 1 -1.674-1.551 5.51 5.51 0 0 1 -.218-1.048 1.2 1.2 0 0 1 .449-1.17 2.722 2.722 0 0 1 1.088-.422 1.7 1.7 0 0 1 1.225.109 2.1 2.1 0 0 1 .94 2.027zm0 0a1.524 1.524 0 0 0 -1.1-1.361 1.36 1.36 0 0 0 -.816 0 2.462 2.462 0 0 0 -.857.231.762.762 0 0 0 -.367.639 2.721 2.721 0 0 0 0 .993 1.129 1.129 0 0 0 .544.762 2.3 2.3 0 0 0 .912.218 1.945 1.945 0 0 0 1.034-.395 2.068 2.068 0 0 0 .585-1.1z" fill="#cecece" transform="matrix(.588 .809 -.809 .588 197.875605 -103.344135)"/><path d="m94.777 158.043c.082.871-.327 1.361-1.184.952-.639-.272-1.007-.231-1.157-.9s.408-1.551 1.1-1.361a1.483 1.483 0 0 1 1.241 1.309z" fill="#eef2ed" transform="matrix(.588 .809 -.809 .588 197.794996 -103.024672)"/><path d="m94.875 158.128a1.742 1.742 0 0 1 -.082 1.034.857.857 0 0 1 -1.129.231l-.83-.517a1.36 1.36 0 0 1 -.544-.884 1.279 1.279 0 0 1 .231-1.088 1.061 1.061 0 0 1 1.211-.367 1.9 1.9 0 0 1 .9.653 1.742 1.742 0 0 1 .245.939zm-.068 0a.776.776 0 0 0 -.5-.653l-.816-.258c-.286-.15-.721.218-.83.762a.64.64 0 0 0 .286.708c.259.1.639.1.925.177a1.17 1.17 0 0 0 .612 0 .776.776 0 0 0 .323-.736z" fill="#cecece" transform="matrix(.588 .809 -.809 .588 197.830833 -103.119956)"/><path d="m93.913 157.782c0 .367-.136.558-.5.395s-.408-.1-.476-.367.163-.653.463-.544.486.234.513.516z" fill="#4c4c4c" transform="matrix(.588 .809 -.809 .588 197.747051 -102.762332)"/><path d="m94.019 157.877c0 .136.136.272 0 .517a.422.422 0 0 1 -.612.163c-.15-.218-.517-.381-.626-.721a.571.571 0 0 1 0-.585.6.6 0 0 1 .708-.231.68.68 0 0 1 .367.34 1.238 1.238 0 0 1 .163.517zm0 0a.2.2 0 0 0 -.272-.163.653.653 0 0 1 -.327 0 .367.367 0 0 0 -.177.136v.245a3.924 3.924 0 0 0 .408 0c.109 0 0 0 .109.082s.218-.177.19-.3z" fill="#eef2ed" transform="matrix(.588 .809 -.809 .588 197.778042 -102.881294)"/><path d="m142.359 178.562s-1.361 12.177-14.422 5.2-6.232-6.15-14.8-9.81 1.143-3.987-14.586-4.2-14.286-7.905-22.082-.354-9.7 12.109-13.334 12.517-5.279-.912-6.123-3.932 2.218-12.245 2.218-12.245-1.361 1.143 8.245-2.367 8.994-6.681 18.681-6.544c2.857 0 5.007-1.048 11.334 1.361s2.191 7.96 11.742 3.551 13.47 9.892 23.334 4.68c5.317-.565 9.793 12.143 9.793 12.143z" fill="#203504" transform="matrix(.588 .809 -.809 .588 190.29199 -113.41913)"/><path d="m144.7 183c-6.272 16.722-9.13 32.246-24 25.021s-15.81-6.49-28.382-11.483-18.463-4.014-24.287-2.952-11.157-5.578-11.157-5.578a13.851 13.851 0 0 0 .721 15.837c7.361 9.524 2.83-1.293 23.715 10.422s12.028 10.191 26.545 9.919 4.218 8.164 19.7.585c16.572-8.164 16.558-9.755 19.375-17.579s-.517-3.973.912-14.245-3.142-9.947-3.142-9.947z" fill="#0c3804" transform="matrix(.588 .809 -.809 .588 182.137696 -108.440697)"/></svg>