<svg height="25.017" viewBox="0 0 25.005 25.017" width="25.005" xmlns="http://www.w3.org/2000/svg"><path d="m85.217 71.125c.212.029.291.138.292.357v1.366c0 .112.022.166.138.2a9.824 9.824 0 0 1 2.241.92.154.154 0 0 0 .225-.033c.315-.322.636-.638.955-.955.186-.186.289-.2.5-.056a12.687 12.687 0 0 1 3.289 3.3.3.3 0 0 1 -.047.458c-.324.328-.651.655-.979.978a.155.155 0 0 0 -.028.226 9.8 9.8 0 0 1 .918 2.231.173.173 0 0 0 .205.152c.444-.007.889 0 1.333 0 .258 0 .344.072.394.329a11.843 11.843 0 0 1 -.006 4.635.31.31 0 0 1 -.355.3h-1.386a.158.158 0 0 0 -.186.137 9.465 9.465 0 0 1 -.929 2.256.146.146 0 0 0 .037.211c.322.316.639.634.957.953.186.186.2.3.051.511a12.668 12.668 0 0 1 -3.253 3.259.325.325 0 0 1 -.511-.046c-.319-.317-.639-.635-.952-.957a.155.155 0 0 0 -.226-.033 9.542 9.542 0 0 1 -2.242.929.158.158 0 0 0 -.14.186c.006.455 0 .912 0 1.367 0 .243-.076.33-.31.376a11.834 11.834 0 0 1 -4.647 0c-.22-.043-.3-.138-.3-.372v-1.375c0-.1-.02-.156-.131-.186a9.833 9.833 0 0 1 -2.258-.929.146.146 0 0 0 -.212.033c-.32.324-.643.645-.967.967a.315.315 0 0 1 -.5.046 12.7 12.7 0 0 1 -3.278-3.284.307.307 0 0 1 .048-.471c.321-.323.641-.651.966-.967a.153.153 0 0 0 .04-.224 9.774 9.774 0 0 1 -.929-2.241.165.165 0 0 0 -.2-.158c-.455.007-.911 0-1.366 0a.314.314 0 0 1 -.365-.3 11.867 11.867 0 0 1 0-4.668.3.3 0 0 1 .344-.288c.465 0 .923-.006 1.384 0a.167.167 0 0 0 .2-.145 9.406 9.406 0 0 1 .929-2.241.154.154 0 0 0 -.038-.225c-.323-.314-.639-.633-.957-.952a.321.321 0 0 1 -.05-.5 12.652 12.652 0 0 1 3.27-3.266.32.32 0 0 1 .5.045c.319.317.639.634.952.957a.163.163 0 0 0 .239.035 9.468 9.468 0 0 1 2.224-.923.166.166 0 0 0 .149-.193c-.007-.45 0-.9 0-1.35 0-.254.073-.337.318-.387a12.106 12.106 0 0 1 2.484-.231c.001-.014 1.449.138 2.166.236zm-4.393 22.987a.753.753 0 0 0 .078.023 11.328 11.328 0 0 0 3.911.012c.1-.018.122-.064.121-.156q-.006-.685 0-1.367c0-.231.06-.31.279-.372a9.788 9.788 0 0 0 2.637-1.09.311.311 0 0 1 .46.061c.233.231.465.465.7.7.118.123.226.256.34.386a12.6 12.6 0 0 0 2.931-2.927c-.359-.356-.705-.7-1.051-1.046a.322.322 0 0 1 -.065-.486 9.708 9.708 0 0 0 1.078-2.6c.061-.242.136-.3.388-.3.428 0 .856-.009 1.283 0 .165 0 .216-.05.241-.205a11.386 11.386 0 0 0 .127-2.51c-.03-.465-.093-.925-.147-1.4h-1.535c-.22 0-.3-.064-.357-.273-.037-.133-.071-.268-.11-.4a9.566 9.566 0 0 0 -.96-2.208c-.142-.239-.129-.327.069-.526.228-.229.454-.458.684-.683.114-.112.239-.213.365-.324a12.593 12.593 0 0 0 -2.915-2.923c-.049.046-.093.083-.129.121l-.9.9c-.214.215-.294.227-.551.073a9.166 9.166 0 0 0 -2.306-.982c-.593-.16-.566-.134-.563-.754v-1.18a.806.806 0 0 0 -.078-.024 11.356 11.356 0 0 0 -3.912-.011c-.1.017-.121.064-.12.156v1.367c0 .231-.06.31-.279.366a9.766 9.766 0 0 0 -2.638 1.1.315.315 0 0 1 -.459-.061c-.233-.231-.465-.465-.7-.7-.119-.123-.226-.256-.34-.386a12.615 12.615 0 0 0 -2.921 2.917c.358.357.7.7 1.049 1.047a.322.322 0 0 1 .065.486 9.748 9.748 0 0 0 -1.077 2.6c-.062.243-.137.3-.388.3-.428 0-.856.01-1.284 0-.165-.006-.215.05-.24.2a11.389 11.389 0 0 0 -.127 2.51c.03.465.093.929.146 1.4h1.53c.219 0 .3.063.356.272.038.134.072.269.111.4a9.59 9.59 0 0 0 .96 2.208c.142.239.129.327-.069.525-.228.229-.454.458-.684.683-.115.112-.239.213-.365.325a12.568 12.568 0 0 0 2.914 2.922c.05-.046.093-.082.129-.121q.449-.446.9-.9c.215-.214.295-.226.552-.073a9.2 9.2 0 0 0 2.306.983c.593.16.565.133.563.753-.004.406-.003.799-.003 1.192z" stroke="#000" transform="translate(-70.374 -70.389)"/><path d="m144.779 139.21a5.588 5.588 0 1 1 -1.631-3.957 5.594 5.594 0 0 1 1.631 3.957zm-.522 0a5.07 5.07 0 1 0 -5 5.067 5.074 5.074 0 0 0 5-5.067z" transform="translate(-126.682 -126.703)"/><circle cx="12.505" cy="12.501" fill="none" r="4.346" stroke="#000" stroke-miterlimit="10" stroke-width="2"/></svg>