<svg height="65.675" viewBox="0 0 69.872 65.675" width="69.872" xmlns="http://www.w3.org/2000/svg" xmlns:xlink="http://www.w3.org/1999/xlink"><filter id="a" filterUnits="userSpaceOnUse" height="65.675" width="69.872" x="0" y="0"><feOffset dy="3"/><feGaussianBlur result="blur" stdDeviation="3"/><feFlood flood-opacity=".161"/><feComposite in2="blur" operator="in"/><feComposite in="SourceGraphic"/></filter><g filter="url(#a)" transform="translate(0 -.001)"><path d="m307.548 285.182s1.061-3.827-1.222-5.293a8.585 8.585 0 0 0 -3.5-1.547s0-4.8-5.7-4.967c0 0-.977-5.456-7.573-4.235 0 0-4.641-4.561-9.2.326 0 0-3.583-2.768-7.166 3.258 0 0-5.048-1.628-7.41 5.7a6.349 6.349 0 0 0 -4.234 6.921s-4.071.9-1.384 6.433a122.99 122.99 0 0 0 11.616 12.932c.392 1.624 1.236 4.433 2.458 4.85a12.886 12.886 0 0 0 4.349.4c1.9 1.364 4.289 2.9 5.434 2.9 1.048 0 3.269-1.437 5.2-2.847a11.872 11.872 0 0 0 3.976-.411c1.221-.417 2.064-3.223 2.457-4.848 3.686-3.2 9.679-8.55 11.5-11.032 2.679-3.655 2.761-5.934.399-8.54z" fill="#fdb023" stroke="#fff" stroke-width="2" transform="translate(-249.23 -260.19)"/></g><g fill="#bc7e0f"><path d="m280.94 438.19c.627.991 1.272 1.961 1.925 2.922.294.5.576 1.007.885 1.5l.456.742c.15.248.312.49.467.735.314.488.625.979.955 1.457l.487.722.244.36.252.355 1.011 1.419 1.046 1.39c1.417 1.839 2.878 3.648 4.441 5.367.761.877 1.574 1.711 2.373 2.55.358.462.749.892 1.125 1.34l.566.669.561.678-.687-.548-.682-.555c-.452-.374-.91-.742-1.343-1.138-.805-.849-1.624-1.685-2.391-2.567-1.574-1.731-3.047-3.554-4.474-5.406l-1.052-1.4-1.018-1.43-.255-.357-.246-.364-.491-.727c-.333-.482-.642-.976-.962-1.468-.157-.247-.321-.49-.472-.74l-.459-.749c-.154-.249-.308-.5-.453-.749-.074-.126-.148-.252-.225-.378s-.157-.247-.222-.379a35.045 35.045 0 0 1 -1.362-3.251z" transform="translate(-268.607 -413.26)"/><path d="m320.85 373c.183.635.416 1.252.642 1.868l.36.917.384.907q.321.927.68 1.843l.37.911c.124.3.244.608.38.908l.4.9c.134.3.259.6.4.9l.844 1.78c.6 1.17 1.176 2.353 1.818 3.5l.476.864.235.428.246.428.987 1.711c.321.573.673 1.129 1.015 1.691l1.031 1.681q1.069 1.662 2.145 3.315c.662 1.139 1.327 2.279 1.967 3.44-.856-1.014-1.674-2.049-2.5-3.084q-1.081-1.662-2.155-3.326l-1.035-1.69c-.344-.564-.7-1.123-1.021-1.7l-.991-1.711-.244-.435-.237-.436-.473-.872c-.642-1.154-1.229-2.341-1.829-3.52l-.856-1.8c-.145-.3-.272-.6-.407-.906l-.4-.909c-.137-.3-.259-.61-.384-.917l-.373-.921c-.126-.306-.234-.62-.352-.929-.058-.155-.115-.311-.176-.465a4.034 4.034 0 0 1 -.167-.469l-.251-.962c-.076-.321-.151-.648-.22-.973s-.125-.653-.184-.98l-.072-.493c-.021-.173-.037-.335-.053-.494z" transform="translate(-304.249 -355.042)"/><path d="m388.417 323.37c.118 1.415.313 2.813.545 4.2.029.174.041.35.056.524s.034.35.053.525c.043.349.093.7.14 1.046s.089.7.149 1.045l.174 1.041a79.314 79.314 0 0 0 1.9 8.229l.625 2.018.155.5q.079.253.164.5l.349 1 .35 1 .174.5c.058.166.114.333.181.5l.772 1.968.386.984.428.968.838 1.937c.061.166.116.335.182.5l.2.491.394.985.389.988.383.995-.544-.913-.535-.92c-.18-.307-.354-.616-.535-.924l-.265-.463c-.09-.154-.167-.314-.25-.471l-.855-1.951-.428-.975-.379-.99-.78-1.987c-.067-.164-.124-.332-.183-.5l-.175-.5-.352-1.005-.351-1c-.061-.167-.113-.337-.165-.507l-.157-.508-.63-2.032a80.43 80.43 0 0 1 -1.913-8.3l-.175-1.051c-.061-.35-.1-.7-.151-1.056s-.1-.7-.141-1.057c-.019-.176-.037-.354-.06-.535s-.048-.352-.057-.535a31.285 31.285 0 0 1 .094-4.264z" transform="translate(-364.613 -310.348)"/><path d="m454.758 288.51c-.007.189-.009.378-.005.566v.282l.011.282c.009.376.032.749.053 1.127.047.749.1 1.5.17 2.246.03 1.5.124 3 .221 4.5.214 2.994.511 5.989.844 8.983l.269 2.24c.093.749.174 1.5.278 2.239l.3 2.237c.1.749.2 1.5.307 2.236l.321 2.234q.159 1.116.329 2.233c.134 1.5.271 3 .373 4.513-.357-1.468-.681-2.942-1.008-4.417-.041-.185-.063-.372-.088-.558l-.08-.559-.161-1.12-.321-2.237c-.107-.749-.214-1.5-.308-2.239l-.3-2.246c-.107-.749-.185-1.5-.278-2.246l-.271-2.246c-.334-2.994-.635-6-.847-9.01-.1-1.507-.185-3.014-.228-4.526.012-.379.025-.757.049-1.136l.033-.567.017-.283.025-.283a19.47 19.47 0 0 1 .295-2.245z" transform="translate(-423.646 -279.216)"/><path d="m511.159 292.57c.043 1.5.017 3-.017 4.5l-.2 2.235-.214 2.233c-.3 2.977-.626 5.95-.974 8.92s-.722 5.937-1.1 8.9l-.592 4.446c-.3 1.468-.6 2.936-.933 4.4.077-1.5.189-2.994.3-4.485l.591-4.442c.382-2.963.758-5.928 1.1-8.9s.678-5.936.973-8.908c.146-1.487.292-2.973.414-4.461z" transform="translate(-470.832 -282.842)"/><path d="m531.253 325.36c-.064 1.42-.239 2.831-.428 4.24-.027.177-.071.348-.107.521s-.076.347-.113.52l-.247 1.037c-.081.345-.156.691-.243 1.036l-.257 1.032c-.693 2.749-1.486 5.477-2.353 8.18l-.674 2.018c-.114.336-.222.673-.341 1.009l-.359 1-.721 2-.764 1.987-.382.994c-.13.329-.268.657-.4.985l-.81 1.969-.236.478-.248.473-.5.945-.5.941-.51.937.344-1.009.352-1 .357-1 .18-.5.168-.5.806-1.96c.134-.328.271-.653.4-.981l.38-.99.764-1.98.718-1.994.358-1c.118-.333.226-.669.339-1l.672-2.009c.856-2.691 1.648-5.4 2.337-8.141l.257-1.027c.086-.343.16-.687.241-1.031l.236-1.031c.036-.172.074-.345.107-.518s.062-.347.107-.517q.574-2.044 1.07-4.114z" transform="translate(-483.332 -312.125)"/><path d="m550.953 377.5a34.413 34.413 0 0 1 -.749 3.855c-.042.158-.1.31-.156.464s-.107.309-.157.464c-.1.311-.214.618-.321.925l-.335.922c-.107.308-.236.609-.353.913-.24.607-.474 1.218-.737 1.818l-.385.9-.192.45-.2.443-.826 1.776-.885 1.75-.22.437c-.075.145-.156.288-.233.428l-.47.856c-.321.571-.617 1.151-.962 1.711l-1 1.688c-.161.283-.348.553-.522.828l-.535.822-.535.822c-.09.136-.173.277-.269.409l-.278.4-1.129 1.6c-.214.252-.413.508-.642.749s-.435.489-.658.729l-.661.724-.667.717.525-.829.535-.821c.35-.549.724-1.078 1.047-1.644l1.121-1.587.279-.4c.1-.132.179-.271.267-.405l.528-.816.527-.815c.174-.274.358-.54.519-.821l.993-1.67c.34-.551.642-1.126.951-1.693l.466-.856c.077-.143.157-.283.231-.428l.214-.433.874-1.736.819-1.762.2-.441.191-.446.382-.893c.261-.592.493-1.2.73-1.8.116-.3.243-.6.35-.906l.332-.912c.23-.605.418-1.224.627-1.837.489-1.197.951-2.411 1.369-3.649z" transform="translate(-497.574 -359.061)"/><path d="m566.358 439.11c-.017.148-.047.294-.075.442l-.1.438c-.037.145-.08.289-.121.433s-.078.291-.128.428-.094.284-.142.428-.094.287-.15.428l-.328.84a3.064 3.064 0 0 1 -.209.4c-.074.13-.144.263-.214.395-.144.262-.279.535-.436.785l-.458.771-.23.385-.244.375-.488.749-.244.376-.258.366c-.346.486-.684.977-1.038 1.458l-1.088 1.419c-.091.118-.179.238-.274.353l-.284.344-.569.689c-.749.93-1.556 1.8-2.343 2.7l-.3.334-.308.321-.616.642-1.234 1.3c-.856.831-1.7 1.669-2.553 2.494-.942.734-1.881 1.467-2.84 2.174.788-.9 1.6-1.769 2.4-2.639.856-.82 1.691-1.653 2.537-2.479l1.225-1.283.612-.642.306-.321.294-.332c.781-.885 1.586-1.752 2.324-2.674l.564-.682.282-.341c.094-.113.181-.233.272-.35l1.076-1.4c.35-.475.683-.962 1.026-1.441l.255-.361.241-.37.481-.741.241-.37.226-.379.45-.758c.155-.25.287-.513.428-.77.07-.129.14-.259.206-.389s.133-.262.2-.39l.449-.76c.149-.255.279-.518.428-.775a14.586 14.586 0 0 0 .749-1.62z" transform="translate(-508.488 -414.082)"/><path d="m430.08 626.5a5.7 5.7 0 0 1 .535-.876 7.6 7.6 0 0 1 .666-.8 9.928 9.928 0 0 1 1.741-1.113 8.918 8.918 0 0 1 4.007-.928c.172 0 .344.014.518.02a4.625 4.625 0 0 1 .515.043l.514.07.508.107a8.611 8.611 0 0 1 1.945.724 8.2 8.2 0 0 1 1.7 1.186 7.613 7.613 0 0 1 .614.842c.093.145.174.3.256.449l.107.233c.034.078.064.158.094.237a6.477 6.477 0 0 0 -.72-.7 8.539 8.539 0 0 0 -.781-.59 7.612 7.612 0 0 0 -1.573-1.094 7.9 7.9 0 0 0 -1.8-.667l-.469-.1-.477-.064a4.5 4.5 0 0 0 -.48-.04c-.16-.005-.321-.022-.482-.019a8.275 8.275 0 0 0 -3.719.862 8.576 8.576 0 0 0 -1.62 1.043 10.661 10.661 0 0 0 -1.599 1.175z" transform="translate(-402 -578.118)"/></g></svg>