<svg height="56.285" viewBox="0 0 59.925 56.285" width="59.925" xmlns="http://www.w3.org/2000/svg" xmlns:xlink="http://www.w3.org/1999/xlink"><filter id="a" filterUnits="userSpaceOnUse" height="56.285" width="59.925" x="0" y="0"><feOffset dy="3"/><feGaussianBlur result="blur" stdDeviation="3"/><feFlood flood-opacity=".161"/><feComposite in2="blur" operator="in"/><feComposite in="SourceGraphic"/></filter><g filter="url(#a)" transform="translate(-.003 .003)"><path d="m299.747 282.279s.889-3.209-1.025-4.438a7.2 7.2 0 0 0 -2.935-1.3s0-4.028-4.779-4.164c0 0-.819-4.575-6.35-3.551 0 0-3.891-3.825-7.714.273 0 0-3-2.321-6.008 2.732 0 0-4.233-1.365-6.213 4.779a5.323 5.323 0 0 0 -3.55 5.8s-3.414.751-1.161 5.394a103.124 103.124 0 0 0 9.74 10.844c.329 1.362 1.036 3.717 2.061 4.067a10.8 10.8 0 0 0 3.647.339c1.59 1.144 3.6 2.434 4.557 2.434.879 0 2.741-1.205 4.358-2.387a9.955 9.955 0 0 0 3.334-.344c1.024-.35 1.731-2.7 2.06-4.065 3.091-2.684 8.115-7.169 9.64-9.25 2.249-3.067 2.318-4.978.338-7.163z" fill="#fdb023" transform="translate(-250.24 -261.21)"/></g><g fill="#bc7e0f"><path d="m280.94 438.19c.525.831 1.066 1.645 1.614 2.45.247.419.483.845.742 1.255l.382.622c.126.208.262.411.392.616.264.409.524.82.8 1.221l.408.605.2.3.212.3.847 1.19.877 1.166c1.188 1.542 2.413 3.059 3.724 4.5.638.735 1.32 1.435 1.99 2.138.3.387.628.748.943 1.124l.474.561.471.569-.576-.459-.572-.465c-.379-.314-.763-.622-1.126-.954-.675-.712-1.362-1.413-2.005-2.152-1.32-1.452-2.555-2.98-3.752-4.533l-.882-1.177-.854-1.2-.213-.3-.206-.3-.412-.61c-.279-.4-.538-.819-.807-1.231-.132-.207-.269-.411-.4-.621l-.385-.628c-.129-.209-.258-.418-.38-.628-.062-.106-.124-.212-.188-.317s-.132-.207-.187-.317a29.386 29.386 0 0 1 -1.131-2.725z" transform="translate(-269.995 -417.169)"/><path d="m320.85 373c.153.533.349 1.05.538 1.567l.3.768.322.76q.269.777.57 1.545l.31.764c.1.255.2.51.318.761l.333.755c.112.251.217.506.338.753l.707 1.492c.5.981.986 1.973 1.524 2.932l.4.725.2.359.206.359.828 1.435c.269.481.564.947.851 1.418l.864 1.41q.9 1.394 1.8 2.78c.555.955 1.113 1.911 1.649 2.885-.717-.85-1.4-1.718-2.1-2.586q-.907-1.393-1.807-2.789l-.868-1.417c-.289-.473-.584-.942-.856-1.425l-.831-1.435-.2-.365-.2-.366-.4-.731c-.538-.968-1.03-1.963-1.533-2.951l-.717-1.512c-.122-.249-.228-.506-.342-.759l-.334-.762c-.115-.253-.217-.511-.322-.768l-.313-.772c-.106-.257-.2-.52-.3-.779-.048-.13-.1-.261-.148-.39a3.374 3.374 0 0 1 -.14-.394l-.211-.807c-.064-.269-.126-.543-.185-.816s-.1-.548-.154-.821l-.06-.413c-.01-.141-.024-.276-.037-.41z" transform="translate(-306.326 -357.825)"/><path d="m388.4 323.37c.1 1.186.263 2.358.457 3.523.024.146.034.293.047.439s.029.293.045.44c.036.292.078.585.117.877s.074.585.125.876l.146.873a66.492 66.492 0 0 0 1.59 6.9l.524 1.692.13.423c.044.142.09.282.137.421l.292.837.293.836.146.419c.048.139.1.279.152.416l.647 1.65.324.825.359.812.7 1.624c.051.139.1.281.152.418l.166.412.33.826.326.829.321.834-.456-.766-.448-.771c-.151-.257-.3-.517-.448-.775l-.222-.388c-.075-.129-.14-.264-.21-.395l-.717-1.636-.359-.818-.317-.83-.654-1.666c-.057-.137-.1-.278-.153-.419l-.147-.421-.3-.843-.295-.844c-.051-.14-.1-.282-.138-.425l-.132-.426-.528-1.7a67.45 67.45 0 0 1 -1.6-6.958l-.147-.881c-.051-.293-.083-.59-.126-.885s-.083-.59-.118-.886c-.016-.148-.031-.3-.05-.448s-.04-.3-.047-.448a26.225 26.225 0 0 1 .086-3.573z" transform="translate(-367.833 -312.334)"/><path d="m454.691 288.51c-.006.159-.007.317 0 .474v.237l.009.237c.007.316.027.628.045.945.039.628.083 1.255.143 1.883.025 1.255.1 2.515.186 3.772.179 2.511.429 5.022.707 7.532l.226 1.879c.078.628.146 1.255.233 1.878l.25 1.876c.083.628.165 1.255.257 1.875l.269 1.873q.134.936.276 1.872c.112 1.26.227 2.519.313 3.784-.3-1.231-.571-2.467-.846-3.7-.034-.155-.053-.312-.074-.468l-.067-.469-.135-.939-.269-1.876c-.09-.628-.179-1.255-.258-1.878l-.25-1.883c-.09-.628-.155-1.255-.233-1.883l-.227-1.883c-.28-2.511-.533-5.03-.71-7.555-.084-1.263-.155-2.527-.191-3.795.01-.317.021-.635.041-.952l.028-.475.014-.238.021-.238a16.321 16.321 0 0 1 .242-1.885z" transform="translate(-427.999 -280.6)"/><path d="m510.507 292.57c.036 1.255.014 2.515-.014 3.772l-.171 1.874-.179 1.872c-.247 2.5-.525 4.989-.817 7.479s-.605 4.979-.926 7.466l-.5 3.728c-.253 1.231-.5 2.461-.782 3.688.065-1.255.159-2.511.249-3.761l.5-3.725c.32-2.485.636-4.97.925-7.459s.568-4.978.816-7.47c.123-1.246.245-2.493.347-3.74z" transform="translate(-476.088 -284.296)"/><path d="m529.607 325.36c-.054 1.191-.2 2.374-.359 3.555-.022.148-.059.292-.09.437s-.064.291-.1.436l-.207.87c-.068.289-.131.58-.2.869l-.215.865c-.581 2.3-1.246 4.592-1.973 6.859l-.565 1.692c-.1.282-.186.565-.286.846l-.3.84-.6 1.679-.64 1.666-.32.833c-.109.276-.225.55-.337.826l-.679 1.651-.2.4-.208.4-.417.792-.421.789-.428.785.289-.846.295-.842.3-.839.151-.419.141-.423.676-1.644c.112-.275.227-.548.336-.823l.318-.83.64-1.66.6-1.672.3-.836c.1-.279.189-.561.284-.842l.563-1.684c.717-2.256 1.382-4.531 1.959-6.826l.215-.861c.072-.287.135-.576.2-.864l.2-.864c.03-.145.062-.289.09-.434s.052-.291.09-.434q.481-1.707.898-3.447z" transform="translate(-488.821 -314.145)"/><path d="m548.679 377.5a28.85 28.85 0 0 1 -.628 3.233c-.035.133-.084.26-.131.389s-.09.259-.132.389c-.084.261-.179.518-.269.776l-.281.773c-.09.258-.2.51-.3.766-.2.509-.4 1.021-.618 1.524l-.32.75-.161.378-.171.371-.692 1.489-.742 1.467-.185.367c-.063.122-.131.241-.2.359l-.394.717c-.269.479-.517.965-.807 1.435l-.84 1.415c-.135.238-.292.464-.438.694l-.448.69-.448.69c-.075.114-.145.232-.226.343l-.233.336-.947 1.345c-.179.212-.346.426-.538.628s-.365.41-.551.612l-.554.607-.56.6.44-.695.448-.689c.293-.46.607-.9.878-1.378l.94-1.331.234-.333c.08-.11.15-.227.224-.34l.443-.684.442-.683c.146-.23.3-.453.435-.689l.833-1.4c.285-.462.538-.944.8-1.42l.391-.717c.065-.12.132-.238.194-.359l.179-.363.733-1.455.687-1.478.17-.369.161-.374.32-.749c.219-.5.413-1 .612-1.509.1-.253.2-.5.293-.76l.278-.765c.193-.508.351-1.027.525-1.54.416-1.007.803-2.025 1.154-3.063z" transform="translate(-503.317 -361.922)"/><path d="m563.569 439.11c-.014.124-.039.247-.063.37l-.083.368c-.031.122-.067.242-.1.363s-.065.244-.108.359-.079.239-.119.359-.079.24-.125.359l-.275.7a2.57 2.57 0 0 1 -.175.334c-.062.109-.121.221-.179.331-.121.22-.234.448-.366.658l-.384.647-.193.323-.2.315-.409.628-.2.316-.216.307c-.291.407-.574.82-.871 1.222l-.912 1.19c-.076.1-.15.2-.23.3l-.238.289-.477.578c-.628.78-1.3 1.512-1.965 2.261l-.249.28-.258.269-.516.538-1.035 1.09c-.717.7-1.422 1.4-2.14 2.091-.79.615-1.577 1.23-2.382 1.823.661-.753 1.338-1.483 2.012-2.213.717-.688 1.418-1.386 2.127-2.079l1.027-1.076.513-.538.256-.269.247-.278c.655-.742 1.33-1.469 1.949-2.242l.472-.572.237-.286c.079-.1.151-.2.228-.293l.9-1.177c.293-.4.573-.807.86-1.208l.213-.3.2-.31.4-.621.2-.31.189-.317.378-.636c.13-.21.24-.43.359-.646.058-.109.117-.217.173-.326s.111-.22.17-.327l.377-.638c.125-.213.234-.434.359-.65a12.247 12.247 0 0 0 .622-1.356z" transform="translate(-514.441 -418.007)"/><path d="m430.08 625.9a4.781 4.781 0 0 1 .448-.734 6.384 6.384 0 0 1 .559-.667 8.326 8.326 0 0 1 1.46-.933 7.477 7.477 0 0 1 3.36-.778c.144 0 .289.012.434.017a3.88 3.88 0 0 1 .432.036l.431.058.426.09a7.217 7.217 0 0 1 1.631.607 6.872 6.872 0 0 1 1.428.994 6.376 6.376 0 0 1 .515.706c.078.122.146.251.214.377l.09.2c.029.065.054.133.079.2a5.433 5.433 0 0 0 -.6-.583 7.165 7.165 0 0 0 -.655-.495 6.382 6.382 0 0 0 -1.319-.917 6.625 6.625 0 0 0 -1.506-.56l-.394-.085-.4-.054a3.8 3.8 0 0 0 -.4-.033c-.134 0-.269-.019-.4-.016a6.938 6.938 0 0 0 -3.119.723 7.191 7.191 0 0 0 -1.359.874 8.942 8.942 0 0 0 -1.355.973z" transform="translate(-405.931 -585.215)"/></g></svg>