<svg enable-background="new 0 0 2000 2000" viewBox="0 0 2000 2000" xmlns="http://www.w3.org/2000/svg"><path d="m-1409.66 1078.4 148.1 430.13-157.37 6.81 115.73 384.27-383.89-448.21 120.08-13.36-262.83-345.41z" fill="#fcc735"/><path d="m-1708.66 1072.4 210.1 407.13-131.37 9.47 326.73 410.61-383.89-448.21 120.08-13.36-262.83-345.41z" fill="#f7bf23"/><path d="m-966.93 1108.34-90.58 261.76 108.41 4.28-6.42 249.64 180.45-289.58-78.45-8.56 128.38-238.94-226.81 20.69z" fill="#fcc735"/><path d="m-966.93 1108.34-90.58 261.76 108.41 4.28-6.42 249.64 40.45-274.54-75.45-11.6 84.38-238.94-45.81 8.69z" fill="#f7bf23"/><path d="m-1418.66 1078.4 148.1 430.13-157.37 6.81 115.73 384.27-383.89-448.21 120.08-13.36-262.83-345.41z" fill="none" stroke="#dea509" stroke-miterlimit="10" stroke-width="7"/><path d="m-977.93 1114.34-90.58 261.76 108.41 4.28-6.42 249.64 180.45-289.58-78.45-8.56 128.38-238.94-226.81 20.69z" fill="none" stroke="#dea509" stroke-miterlimit="10" stroke-width="7"/><path d="m-1934.83 1140.16c15.22 2.35 1367.97-1.73 1367.97-1.73s160.36-17.93 145.39-220.81c-8.89-120.4-127.69-115.31-156.88-139.24 0-28.85 22-203.78-155.6-281.53-182.99-80.12-233.84-64.87-340.34-26.23-65.49-60.32-125.86-136.52-240.81-172.21s-271.87-44.11-394.12 37.1c-138.76 92.18-168.81 233.34-168.81 233.34s-105.78-19.4-197.05 58.55-125.59 206.92-105.13 286.83c54.44 212.61 245.38 225.93 245.38 225.93z" fill="#8ba8b3"/><path d="m-1921.63 1140.52c-138.85-115.58-116.41-498.46 221.25-498.46 99-310.98 376.62-377.3 628.3-171.09-65.49-60.32-114.86-136.52-229.81-172.21s-278.87-48.11-401.12 33.1c-138.76 92.18-174.81 240.34-174.81 240.34s-101.78-28.4-193.05 49.55-127.59 218.92-107.13 298.83c54.44 212.63 256.37 219.94 256.37 219.94z" fill="#7998a3"/><path d="m-1934.83 1112.18c15.22 2.35 1367.97-1.73 1367.97-1.73s160.36-17.93 145.39-220.81c-8.89-120.4-127.69-115.31-156.88-139.24 0-28.85 22-203.78-155.6-281.53-182.99-80.12-233.84-64.87-340.34-26.23-65.49-60.32-125.86-136.52-240.81-172.21s-271.87-44.11-394.12 37.1c-138.76 92.18-168.81 233.34-168.81 233.34s-105.78-19.4-197.05 58.55-125.59 206.92-105.13 286.83c54.44 212.61 245.38 225.93 245.38 225.93z" fill="none" stroke="#587580" stroke-miterlimit="10" stroke-width="8"/><path d="m341.33 675.12c21.28-8.94 224.67-183.04 939.39-31.98 165.36 34.95 141.67 177.28 71.51 222.29 0 0-182.51 101.74-160.78 298s89.71 272.03 118.79 294.65l24.83 61.71-51.78.71-97.89 7.09s-233.12-29.69-485.84-282.4c0 0-228.03-248.74-376.27-482.7-.01.02-22.1-70.51 18.04-87.37z" fill="#e1eef2"/><path d="m693.45 643.42s-257.1 49.72-185.49 94.61c76.16 47.74 204.16 45.44 204.16 45.44s-64.72-13.52-109.31-43.47c-1.73-1.16-1.12-3.84.94-4.16 62.76-9.65 218.79-15.46 244.48-14.32 35.43 1.57 335.64-9.47 236.11 29.26-89.33 34.76-143.92 41.27-146.77 42.38s211.46 10.15 248.67-38.95c18.35-24.21 14.02-34.9 14.02-34.9s58.99 22.22 10.28 55.78-388.82 95.68-726.1-7.47c-140.56-42.99 6.16-91.1 16.03-94.62 9.87-3.53 192.98-29.58 192.98-29.58z" fill="#7998a3"/><path d="m684.55 1219.83c-2.79-3.9 70.34 99.25 224.26 93.13l1.67-14.62s119.55 55.75 215.91 27.56c0 0-7.1 11.12-18.38 21.3 0 0 81.52 1.41 114.43-7.52 0 0-148.66 69.62-315.72 35.5-167.06-34.11-222.17-155.35-222.17-155.35z" fill="#7998a3"/><path d="m874.56 1407.35c97.44 25.41 124.42 48.53 235.09 21.39 0 0-10.14 12.53-21.68 15.36s38.18 14.74 135.73-9.19l48.86-5.01s-210.3 67.44-305.7 37.17c0 0-73.4-25.86-92.3-59.72z" fill="#7998a3"/><path d="m1144.98 1518.53c30.02-10.17 100.59 8.59 146.25-59.68 0 0 17.13 16.88-14.81 37.29 0 0 47.74-22.89 56.4-40 0 0 8.01 33.14-2.84 45.46 0 0 23.98 41.11 69.97 41.11 0 0-52.33 14.33-101.27-18.54.01.01-94.03 34.42-153.7-5.64z" fill="#7998a3"/><path d="m346.1 659.23s-70.02 233.36 600.82 233.36c-128.16-51.49-108.18-43.01-116.82-51.64 0 0 299.99 24.05 389.35-4.22 94.95-30.03 162.37-58.09 127-112.06-36.52-55.72-89.61-99.6-109.34-104.17 0 0 196.98 43.07 188.07 146.27s-242.84 197.75-466.9 197.75c-212.73 0-359.2-28.9-521.68-72.55s-130.8-189.58-122.32-203.07c14.9-23.71 31.82-29.67 31.82-29.67z" fill="#7998a3"/><path d="m346.1 659.23s-229.23 283.36 633.82 283.36c70.53-9.2 148.55-14.42 13.18-61.64 0 0 175.99 29.05 265.35.78 94.95-30.03 162.37-117.09 127-171.06-36.52-55.72-128.61-85.6-148.34-90.17 0 0 196.98 43.07 188.07 146.27s-242.84 197.75-466.9 197.75c-212.73 0-359.2-28.9-521.68-72.55s-130.8-189.58-122.32-203.07c14.9-23.71 31.82-29.67 31.82-29.67z" fill="#5b7d8a"/><path d="m394.27 910.22c67.89 35.3 189.9 70.95 306.37 95.16 31.98 6.65 58.43 9.77 73.88 6.93 0 0-36.01 11.55-52.95 11.55s332.97 141.73 566.63-41.61c0 0-53.43 157.26-419.96 126.72s-473.97-198.75-473.97-198.75z" fill="#7998a3"/><path d="m394.27 910.22c67.89 35.3 80.9 77.14 197.37 101.35 31.98 6.65 80.43 16.59 95.88 13.74 0 0-9.73 10.78-14.95 11.55-16.76 2.47 364.14 169.51 615.63-54.61 0 0-53.43 157.26-419.96 126.72s-473.97-198.75-473.97-198.75z" fill="#5b7d8a"/><path d="m556.24 1088.44s146.69 67.31 225.1 58.59c-35.37-38.37-1.45-14.11 64.2-.32 85.58 17.98 214.38 42.35 255.27 35.83 68.99-11-77.35 30.94-105.16 28.68s173.03 28.14 234.52-58.19c-30.93 116.45-348.18 100.89-524.11 30.34-107.04-42.92-149.82-94.93-149.82-94.93z" fill="#7998a3"/><g fill="none" stroke="#4f7380" stroke-miterlimit="10" stroke-width="6"><path d="m682.45 634.42s-257.1 49.72-185.49 94.61c76.16 47.74 204.16 45.44 204.16 45.44s-64.72-13.52-109.31-43.47c-1.73-1.16-1.12-3.84.94-4.16 62.76-9.65 218.79-15.46 244.48-14.32 35.43 1.57 335.64-9.47 236.11 29.26-89.33 34.76-143.92 41.27-146.77 42.38s211.46 10.15 248.67-38.95c18.35-24.21 14.02-34.9 14.02-34.9s58.99 22.22 10.28 55.78-388.82 95.68-726.1-7.47c-140.56-42.99 6.16-91.1 16.03-94.62 9.87-3.53 192.98-29.58 192.98-29.58z"/><path d="m673.55 1210.83c-2.79-3.9 70.34 99.25 224.26 93.13l1.67-14.62s119.55 55.75 215.91 27.56c0 0-7.1 11.12-18.38 21.3 0 0 81.52 1.41 114.43-7.52 0 0-148.66 69.62-315.72 35.5-167.06-34.11-222.17-155.35-222.17-155.35z"/><path d="m863.56 1398.35c97.44 25.41 124.42 48.53 235.09 21.39 0 0-10.14 12.53-21.68 15.36s38.18 14.74 135.73-9.19l48.86-5.01s-210.3 67.44-305.7 37.17c0 0-73.4-25.86-92.3-59.72z"/><path d="m1133.98 1509.53c30.02-10.17 100.59 8.59 146.25-59.68 0 0 17.13 16.88-14.81 37.29 0 0 47.74-22.89 56.4-40 0 0 8.01 33.14-2.84 45.46 0 0 23.98 41.11 69.97 41.11 0 0-52.33 14.33-101.27-18.54.01.01-94.03 34.42-153.7-5.64z"/><path d="m335.1 650.23s-70.02 233.36 600.82 233.36c-128.16-51.49-108.18-43.01-116.82-51.64 0 0 299.99 24.05 389.35-4.22 94.95-30.03 162.37-58.09 127-112.06-36.52-55.72-89.61-99.6-109.34-104.17 0 0 196.98 43.07 188.07 146.27s-242.84 197.75-466.9 197.75c-212.73 0-359.2-28.9-521.68-72.55s-130.8-189.58-122.32-203.07c14.9-23.71 31.82-29.67 31.82-29.67z"/><path d="m390.27 901.22c67.89 35.3 189.9 70.95 306.37 95.16 31.98 6.65 58.43 9.77 73.88 6.93 0 0-36.01 11.55-52.95 11.55s332.97 141.73 566.63-41.61c0 0-53.43 157.26-419.96 126.72s-473.97-198.75-473.97-198.75z"/><path d="m545.24 1079.44s146.69 67.31 225.1 58.59c-35.37-38.37-1.45-14.11 64.2-.32 85.58 17.98 214.38 42.35 255.27 35.83 68.99-11-77.35 30.94-105.16 28.68s173.03 28.14 234.52-58.19c-30.93 116.45-348.18 100.89-524.11 30.34-107.04-42.92-149.82-94.93-149.82-94.93z"/></g></svg>