<svg height="50.246" viewBox="0 0 45.621 50.246" width="45.621" xmlns="http://www.w3.org/2000/svg" xmlns:xlink="http://www.w3.org/1999/xlink"><filter id="a" filterUnits="userSpaceOnUse" height="45.621" width="45.621" x="0" y="4.625"><feOffset dy="3"/><feGaussianBlur result="blur" stdDeviation="3"/><feFlood flood-opacity=".161"/><feComposite in2="blur" operator="in"/><feComposite in="SourceGraphic"/></filter><g transform="translate(-211.173 -167.73)"><circle cx="233.984" cy="192.166" fill="#f9f5f2" r="12.771"/><path d="m235.454 295.362a12.779 12.779 0 0 1 12.509-15.362c1.932 0 7.162.738 5.408 1.2-19.284 5.056-16.719 19.974-17.917 14.162z" fill="#e0d4ca" transform="translate(-13.98 -100.606)"/><path d="m343.6 261.95h-3.32l.312-2.13h2.7z" fill="#c49318" transform="translate(-108.151 -82.522)"/><path d="m341.733 224.87h1.745a.794.794 0 0 1 .793.793v2.537h-3.331v-2.539a.794.794 0 0 1 .793-.791z" fill="#e5bb33" transform="translate(-108.742 -51.203)"/><path d="m328.37 241.613a8.506 8.506 0 0 1 5.9 0l-.9 1.143-3.429.3z" fill="#e5bb33" transform="translate(-97.478 -65.759)"/><g filter="url(#a)" transform="translate(211.17 167.73)"><path d="m239.011 297.621a13.81 13.81 0 1 1 13.81-13.811 13.826 13.826 0 0 1 -13.81 13.811zm0-25.542a11.732 11.732 0 1 0 11.732 11.732 11.732 11.732 0 0 0 -11.732-11.732z" fill="#d6a41a" transform="translate(-216.2 -259.37)"/></g><path d="m314.929 182.7a4.829 4.829 0 1 1 4.829-4.829 4.829 4.829 0 0 1 -4.829 4.829zm0-8.618a3.79 3.79 0 1 0 3.79 3.79 3.79 3.79 0 0 0 -3.79-3.792z" fill="#d6a41a" transform="translate(-81.106 -4.758)"/><path d="m232.613 174.504h.366v1.086h-.366z" fill="#595959"/><path d="m233.332 174.504h.366v1.086h-.366z" fill="#595959"/><path d="m233.98 174.504h.366v1.086h-.366z" fill="#595959"/><path d="m234.771 174.504h.366v1.086h-.366z" fill="#595959"/><circle cx="233.858" cy="192.053" fill="#a09d9c" r="1.245"/><path d="m361.122 356.147-.672-.715 4.94-4.229a.134.134 0 0 1 .185.01l.07.074a.134.134 0 0 1 0 .186z" fill="#a09d9c" transform="translate(-126.225 -164.382)"/><path d="m315.949 394.981-.061.994-3.674-.691a.187.187 0 1 1 .046-.369z" fill="#a09d9c" transform="translate(-82.835 -203.577)"/><g fill="#595959"><rect height="3.184" rx=".405" width=".81" x="233.452" y="181.718"/><rect height="3.184" rx=".405" width=".81" x="233.452" y="199.101"/><rect height="3.184" rx=".405" transform="matrix(.8660254 .5 -.5 .8660254 238.652 182.904)" width=".81"/><rect height="3.184" rx=".405" transform="matrix(.5 .8660254 -.8660254 .5 242.662 186.561)" width=".81"/><rect height="3.184" rx=".405" transform="matrix(0 1 -1 0 244.171 191.641)" width=".81"/><rect height="3.184" rx=".405" transform="matrix(-.5 .8660254 -.8660254 -.5 242.974 196.829)" width=".81"/><rect height="3.184" rx=".405" transform="matrix(-.8660254 .5 -.5 -.8660254 239.353 200.787)" width=".81"/><rect height="3.195" rx=".407" transform="matrix(-.86700983 .49829103 -.49829103 -.86700983 230.602 185.699)" width=".813"/><rect height="3.184" rx=".405" transform="matrix(-.5 .8660254 -.8660254 -.5 227.882 188.168)" width=".81"/><rect height="3.184" rx=".405" transform="matrix(0 1 -1 0 226.801 191.654)" width=".81"/><rect height="3.184" rx=".405" transform="matrix(.5 .8660254 -.8660254 .5 227.575 195.212)" width=".81"/><rect height="3.184" rx=".405" transform="matrix(.8660254 .5 -.5 .8660254 229.981 198.019)" width=".81"/></g><path d="m233.744 206.015a14.075 14.075 0 0 1 -14.154-13.965 13.843 13.843 0 0 1 3.5-9.2 14.2 14.2 0 0 1 8.552-4.615l.231-.855a4.961 4.961 0 0 1 -3.341-4.682 5.038 5.038 0 0 1 10.076 0 4.952 4.952 0 0 1 -3.411 4.707l.216.773a13.956 13.956 0 0 1 -1.671 27.833zm-.172-37.973a4.653 4.653 0 0 0 -1.461 9.093l.141.046-.359 1.338-.1.015a13.891 13.891 0 0 0 -8.464 4.528 13.533 13.533 0 0 0 -3.423 8.989 13.843 13.843 0 1 0 15.375-13.57l-.1-.011-.353-1.268.145-.045a4.644 4.644 0 0 0 3.327-4.457 4.7 4.7 0 0 0 -4.726-4.661z" fill="#ad7e14"/></g></svg>