<svg viewBox="0 0 711.64 711.64" xmlns="http://www.w3.org/2000/svg"><circle cx="358.13" cy="402.93" fill="#f9f5f2" r="122.92"/><path d="m237.73 427.86a123 123 0 0 1 120.4-147.86c18.6 0 68.93 7.1 52.05 11.53-185.61 48.68-160.92 192.27-172.45 136.33z" fill="#e0d4ca"/><path d="m372.23 280.32h-31.95l3-20.5h25.95z" fill="#c49318"/><path d="m348.57 224.87h16.8a7.64 7.64 0 0 1 7.63 7.63v24.44a0 0 0 0 1 0 0h-32.06a0 0 0 0 1 0 0v-24.44a7.64 7.64 0 0 1 7.63-7.63z" fill="#e5bb33"/><path d="m328.37 245.92c.52-.11 22.12-10.76 56.81 0l-8.64 11-33 2.88z" fill="#e5bb33"/><path d="m358.13 535.85c-73.3 0-132.93-59.63-132.93-132.92s59.63-132.93 132.93-132.93 132.92 59.63 132.92 132.92-59.63 132.93-132.92 132.93zm0-245.84a112.92 112.92 0 1 0 112.92 112.92 113 113 0 0 0 -112.92-112.93z" fill="#d6a41a"/><path d="m356.58 266a46.48 46.48 0 1 1 46.48-46.48 46.53 46.53 0 0 1 -46.48 46.48zm0-82.95a36.48 36.48 0 1 0 36.48 36.47 36.51 36.51 0 0 0 -36.48-36.47z" fill="#d6a41a"/><path d="m344.94 232.93h3.52v10.45h-3.52z" fill="#595959"/><path d="m351.86 232.93h3.52v10.45h-3.52z" fill="#595959"/><path d="m358.09 232.93h3.52v10.45h-3.52z" fill="#595959"/><path d="m365.71 232.93h3.52v10.45h-3.52z" fill="#595959"/><circle cx="356.92" cy="401.84" fill="#a09d9c" r="11.98"/><path d="m366.92 399.06-6.47-6.88 47.55-40.7a1.29 1.29 0 0 1 1.78.1l.67.71a1.29 1.29 0 0 1 0 1.79z" fill="#a09d9c"/><path d="m349.76 395.59-.59 9.57-35.36-6.65a1.8 1.8 0 1 1 .44-3.55z" fill="#a09d9c"/><g fill="#595959"><rect height="30.65" rx="3.9" width="7.8" x="353.01" y="302.36"/><rect height="30.65" rx="3.9" width="7.8" x="353.01" y="469.68"/><rect height="30.65" rx="3.9" transform="matrix(.8660254 .5 -.5 .8660254 217.93 -155.31)" width="7.8" x="394.87" y="313.68"/><rect height="30.65" rx="3.9" transform="matrix(.5 .8660254 -.8660254 .5 526.96 -192.68)" width="7.8" x="426.44" y="344.7"/><rect height="30.65" rx="3.9" transform="matrix(0 1 -1 0 842.62 -39.08)" width="7.8" x="436.95" y="386.44"/><rect height="30.65" rx="3.9" transform="matrix(-.5 .8660254 -.8660254 -.5 1028.26 293.37)" width="7.8" x="425.54" y="428.19"/><rect height="30.65" rx="3.9" transform="matrix(-.8660254 .5 -.5 -.8660254 981.41 686.2)" width="7.8" x="394.87" y="459.26"/><rect height="30.65" rx="3.9" transform="matrix(-.87 .5 -.5 -.87 754.57 459.05)" width="7.8" x="311.88" y="315.3"/><rect height="30.65" rx="3.9" transform="matrix(-.5 .8660254 -.8660254 -.5 738.17 294.13)" width="7.8" x="280.28" y="344.83"/><rect height="30.65" rx="3.9" transform="matrix(0 1 -1 0 675.58 128.23)" width="7.8" x="269.77" y="386.58"/><rect height="30.65" rx="3.9" transform="matrix(.5 .8660254 -.8660254 .5 526.46 -25.29)" width="7.8" x="281.23" y="427.96"/><rect height="30.65" rx="3.9" transform="matrix(.8660254 .5 -.5 .8660254 279.48 -94.09)" width="7.8" x="311.42" y="459.15"/></g><path d="m355.82 536.22c-75.12 0-136.23-60.29-136.23-134.41a133.24 133.24 0 0 1 33.71-88.51 136.71 136.71 0 0 1 82.31-44.42l2.22-8.23a47.75 47.75 0 0 1 -32.16-45.06c0-26.39 21.75-47.86 48.49-47.86s48.49 21.47 48.49 47.86a47.66 47.66 0 0 1 -32.82 45.3l2.07 7.44c68.57 7.95 120.15 65.16 120.15 133.48 0 74.12-61.11 134.41-136.23 134.41zm-1.66-365.49c-25.09 0-45.49 20.12-45.49 44.86a44.8 44.8 0 0 0 31.43 42.66l1.36.44-3.46 12.88-1 .14a133.7 133.7 0 0 0 -81.47 43.58 130.26 130.26 0 0 0 -32.95 86.52c0 72.46 59.77 131.41 133.23 131.41s133.23-59 133.23-131.41c0-67.12-50.94-123.27-118.48-130.61l-1-.11-3.4-12.2 1.4-.43a44.7 44.7 0 0 0 32.09-42.87c0-24.74-20.41-44.86-45.49-44.86z" fill="#ad7e14"/></svg>