<svg height="56.04" viewBox="0 0 64.69 56.04" width="64.69" xmlns="http://www.w3.org/2000/svg" xmlns:xlink="http://www.w3.org/1999/xlink"><filter id="a" filterUnits="userSpaceOnUse" height="53.267" width="62.612" x="1.784" y="2.743"><feOffset dy="3"/><feGaussianBlur result="blur" stdDeviation="3"/><feFlood flood-opacity=".161"/><feComposite in2="blur" operator="in"/><feComposite in="SourceGraphic"/></filter><filter id="b" filterUnits="userSpaceOnUse" height="56.04" width="64.69" x="0" y="0"><feOffset dy="3"/><feGaussianBlur result="blur-2" stdDeviation="3"/><feFlood flood-opacity=".161"/><feComposite in2="blur-2" operator="in"/><feComposite in="SourceGraphic"/></filter><g filter="url(#a)" transform="translate(.001 .003)"><path d="m71.883 119.982s9.77 4.955 13.18 4.595 12.35-.185 12.994-.6 1.384 3.393 1.384 3.393.923-3.867 1.751-4.3 3.6-1.782 3.6-1.782l1.291 7.554v10.574l3.488-.721 1.307 6.535s-4.906 9.645-16.129 7.087a22.058 22.058 0 0 0 -2.307-3.821s.461 3.547-.185 3.822h-12.264s.185-3.815-.553-5c0 0-.368 4.273-1.014 4.4 0 0-10.321-1.637-12.166-4.075 0 0 .331-5.825.331-7.76s2.711-6.288 2.527-9.974.645-7.682.553-8.633 0-3.8 0-3.8z" fill="#d6a41a" transform="translate(-55.48 -108.75)"/></g><path d="m550.449 108.69s-.369-4.939 0-5.305 2.383-3.411 5.254-1.384l1.567 2.6s-.83 25.074-.461 25.707a27.333 27.333 0 0 1 -1.845-2.332s-2.581-1.307-3.963 0a6.074 6.074 0 0 0 -1.659 2.178s2.674-13.854 1.107-21.464z" fill="#ad7e14" transform="translate(-501.415 -93.812)"/><path d="m549.064 452.92s.341 1.99 2.949 1.582c1.868-.293 2.2-1.283 2.212-1.98.014-.727-.008-2.407-1.726-2.575-1.059-.1-1.724 1.619-1.288 2.679 0 0 .415-1.807 1.143-1.724s.673.294 1.119.9c.315.424-.148 1.482-.714 1.764a3.578 3.578 0 0 1 -1.777.5c-.56-.1-1.375-.5-1.413-2.149a8.21 8.21 0 0 1 .15-1.967 7.631 7.631 0 0 0 -.655 2.97z" fill="#ad7e14" transform="translate(-501.137 -415.623)"/><path d="m96.75 470.533s2.135-.512 1.054-1.672c-.329-.352-1.707-.989-2.057-.289s-.752 1.827-.377 2.4 2.037.759 2.5.809 1.514-.175 1.664-.576a15.219 15.219 0 0 0 .846-2.8c-.13-.118-.235-.06-.635 1.392s-.759 1.332-1.059 1.432a3.3 3.3 0 0 1 -2.279-.271c-.952-.5-.881-.637-.756-.763s.55-1.461.876-1.413 1.136.454 1.186.73-.963 1.021-.963 1.021z" fill="#ad7e14" transform="translate(-82.21 -432.545)"/><path d="m51.88 90.577s1.534 13.3 1.432 14.122.215 7.821 0 8.282-.384 4.449-.681 5.215.755 1.739.755 1.739-.028-3.278 2.5-3.225 3.861.412 4.014 1.485.512.1.461-.511-.973-25.225-.56-27.108-4.342-3.946-7.921.001z" fill="#ad7e14" transform="translate(-42.202 -81.826)"/><path d="m198.034 220.57c.087 0 .173 0 .26.008a2.749 2.749 0 0 1 1.735.717 2.868 2.868 0 0 1 .9 1.479 2.945 2.945 0 0 1 -.39 2.4 2.753 2.753 0 0 1 -3.953.739 2.9 2.9 0 0 1 -1.126-1.659c-.022-.082-.035-.165-.052-.248 0-.021-.012-.042-.018-.062l-.029-.288c0-.022 0-.043 0-.065v-.253a2.938 2.938 0 0 1 .585-1.633 2.742 2.742 0 0 1 1.554-1.046c.084-.022.168-.04.252-.06zm.432 5.618a2.691 2.691 0 1 0 -2.845-2.412 2.647 2.647 0 0 0 2.845 2.412z" fill="none" stroke="#635249" stroke-miterlimit="10" stroke-width=".2" transform="translate(-174.651 -203.902)"/><path d="m202.448 226.465 1.717.3v.015l-1.624.638.659.947-.006.012-1.028-.48c-.092.6-.183 1.189-.274 1.781h-.013l-.627-1.691-.909.677-.011-.007.455-1.063-1.717-.3v-.014l1.623-.637-.658-.948.006-.012 1.028.48.274-1.781h.013l.627 1.691.909-.676.01.007zm-.913-.081a.653.653 0 0 0 .181 1.294.653.653 0 0 0 .521-.749.626.626 0 0 0 -.7-.545z" fill="none" stroke="#635249" stroke-miterlimit="10" stroke-width=".4" transform="translate(-178.076 -207.419)"/><path d="m227.923 253.907a.4.4 0 0 1 -.346.444.41.41 0 0 1 -.437-.368.4.4 0 0 1 .35-.444.4.4 0 0 1 .433.368z" fill="none" stroke="#635249" stroke-miterlimit="10" stroke-width=".4" transform="translate(-203.986 -234.335)"/><g filter="url(#b)" transform="translate(.001 .003)"><path d="m92.136 115.028c-.263-2.439.5-25.51.5-25.51l-1.567-2.6c-2.867-2.027-4.885 1.014-5.254 1.384a10.141 10.141 0 0 0 -.123 3.175c-.8.391-2.561 1.258-3.2 1.585-.83.426-1.751 4.3-1.751 4.3s-.737-3.8-1.384-3.393-9.585.235-12.994.6c-2.711.286-9.442-2.786-12.087-4.059a23.594 23.594 0 0 1 .1-3.019c.408-1.888-4.348-3.951-7.926 0 0 0 1.534 13.3 1.432 14.122-.088.7.131 5.935.065 7.715a3.164 3.164 0 0 0 -.061.568c-.209.461-.384 4.449-.681 5.216a1.525 1.525 0 0 0 .415 1.362c-.038.715-.065 1.183-.065 1.183 1.845 2.434 12.166 4.075 12.166 4.075.645-.13 1.014-4.4 1.014-4.4.737 1.181.553 5 .553 5h12.269c.645-.275.185-3.822.185-3.822a22.029 22.029 0 0 1 2.307 3.82c10.824 2.469 15.771-6.415 16.111-7.05.068.077.084.077.018-.036z" fill="none" stroke="#3f3935" stroke-miterlimit="10" stroke-width=".5" transform="translate(-37.2 -78.97)"/></g><path d="m442.346 313.977c-1.263.008-3.391-.257-3.181.632s.351.631.584 1.426-1.123.983-.07 1.356 2.2.8 2.666.374-1.286-.374.982-.725 4.163-.231 3.929-.912-2.432-1.239-3.11-1.307-.725-.4-.8-.607-.79-.238-1-.237z" fill="#917c6f" transform="translate(-399.698 -290.099)"/><path d="m439.975 312.4c-1.262.008-3.391-.257-3.18.632s.351.631.584 1.426-1.123.982-.07 1.356 2.2.795 2.666.374-1.286-.374.983-.725 4.163-.231 3.929-.912-2.433-1.239-3.111-1.307-.725-.4-.8-.608-.79-.236-1.001-.236z" fill="none" stroke="#635249" stroke-miterlimit="10" stroke-width=".5" transform="translate(-397.51 -288.641)"/><path d="m194.7 353.636c-.351.2-2.858.271-2.46 1.355a4.522 4.522 0 0 0 .936 1.946c.69.887.2.64.615 1.7s-1.233 1.531.91 1.377 2.365 1.109 2.34-.344-2.119-1.823-1.5-2.439-.271-.345 1.133-.692 1.774.567 1.651-.665.394-2.07-.615-1.7-1.8 1.655-2.1 1.381-.615.271-.517-.567.3-1.009.077-1.355-.176-.17-.47.003z" fill="#917c6f" transform="translate(-171.73 -326.551)"/><path d="m193.869 351.971c-.351.205-2.858.271-2.46 1.355a4.522 4.522 0 0 0 .936 1.946c.69.887.2.64.615 1.7s-1.23 1.528.912 1.38 2.364 1.108 2.34-.345-2.118-1.823-1.5-2.439-.271-.344 1.133-.692 1.774.567 1.65-.665.394-2.069-.615-1.7-1.8 1.651-2.094 1.38-.615.271-.517-.567.3-1.01.077-1.355-.182-.169-.477.002z" fill="none" stroke="#635249" stroke-miterlimit="10" stroke-width=".5" transform="translate(-170.964 -325.015)"/><path d="m310.4 406.275c1.684-.207 3.957.363 3.221 2.1s-1.409 1.58-.735 2.2 1.832.57.877 1.451-1.473 1.347-2.431 1.321-3.471 1-2.176-.524 3.9.16 1.429-1.781-2.23-2.072-2.957-1.761-2.072 1.295-1.994.052-.647-1.321.492-1.813a2.78 2.78 0 0 1 2.59.052c.647.337.751 2.02 1.218.362z" fill="#917c6f" transform="translate(-276.298 -375.291)"/><path d="m308.646 404.512c1.684-.208 3.957.363 3.221 2.1s-1.409 1.58-.735 2.2 1.832.57.877 1.451-1.473 1.348-2.431 1.323-3.471 1-2.176-.524 3.893.161 1.428-1.781-2.23-2.072-2.957-1.761-2.072 1.295-1.994.052-.647-1.321.492-1.813a2.781 2.781 0 0 1 2.59.052c.647.337.751 2.021 1.217.363z" fill="none" stroke="#635249" stroke-miterlimit="10" stroke-width=".5" transform="translate(-274.683 -373.664)"/><path d="m262.674 326.682s-11.763-1.626-13.264.742" fill="none" stroke="#000" stroke-dasharray="12" stroke-miterlimit="10" stroke-width=".5" transform="translate(-224.545 -301.353)"/><path d="m259.9 409.36s2.836 5.744 7.375 4.2" fill="none" stroke="#000" stroke-dasharray="12" stroke-miterlimit="10" stroke-width=".5" transform="translate(-234.229 -378.177)"/><path d="m420.49 434.941s8.2-1.8 9.909-1.529" fill="none" stroke="#000" stroke-dasharray="12" stroke-miterlimit="10" stroke-width=".5" transform="translate(-382.472 -400.354)"/><path d="m285.86 219.883.264-.023c.13.008.161.089.164.205 0 .141.022.281.034.421.143-.012.269-.018.393-.035a.171.171 0 0 1 .168.064.768.768 0 0 1 .008.976c-.3-.128-.376-.149-.475-.131l.022.253h.518a.145.145 0 0 1 .107.048 2.779 2.779 0 0 1 .181.354.59.59 0 0 1 -.161.7.3.3 0 0 1 -.207.092c-.108 0-.215.017-.33.027a1.9 1.9 0 0 1 .015.194c0 .068.028.088.091.088.132 0 .264.007.4.02a.139.139 0 0 1 .1.065 4.843 4.843 0 0 1 .2.533 1.013 1.013 0 0 1 -.181 1.024.265.265 0 0 1 -.143.077 2.813 2.813 0 0 1 -.281.027l.022.25c.273-.012.538-.022.809-.037.026 0 .061-.038.072-.066a.154.154 0 0 1 .154-.11c.193-.014.384-.035.579-.056.148-.015.162-.042.1-.2l-1 .085a1.211 1.211 0 0 0 .149-1.489l.755.006v-.077c-.009-.145-.009-.145-.154-.13s-.3.035-.446.043a.287.287 0 0 1 -.344-.246.667.667 0 0 0 -.038-.085c.272-.045.3-.283.345-.479a.748.748 0 0 0 -.179-.609c.048 0 .09-.012.133-.011.067 0 .1-.023.1-.095 0-.115.027-.231.029-.345 0-.168 0-.337-.007-.51l.364-.032-.038-.437c-.108 0-.2 0-.191.148 0 .021-.036.057-.062.068a.576.576 0 0 1 -.5-.135l.231-.008a.193.193 0 0 0 .189-.128.193.193 0 0 1 .113-.077.8.8 0 0 1 .162-.017c.179-.016.185-.012.2.163.012.141.025.281.037.431.125-.011.231-.027.334-.025a.2.2 0 0 1 .135.06.624.624 0 0 1 .081.8c-.008.014-.013.029-.022.048l.077.012c-.041.135-.023.154.108.209a5.6 5.6 0 0 1 .735.323c.527.308 1.039.647 1.556.974.059.038.1.054.154-.011a.145.145 0 0 1 .185-.035l.007.081a1.629 1.629 0 0 1 -.121.121l-1.672 1.37a.308.308 0 0 0 -.065.077 4.355 4.355 0 0 1 -.36.554c-.328.371-.68.722-1.022 1.082a.285.285 0 0 1 -.208.089c-.75.04-1.5.086-2.25.124-.461.024-.918.025-1.375.058a.482.482 0 0 1 -.442-.211c-.006-.008-.014-.015-.02-.023a3.153 3.153 0 0 1 -.551-1.226 2.8 2.8 0 0 0 -.226-.538c-.162.055-.314.1-.461.161-.071.027-.134.073-.2.105a.489.489 0 0 1 -.1.025v-.062c.035-.109.072-.218.107-.327a.188.188 0 0 1 .154-.131c.105-.029.206-.077.308-.115l-.033-.036.053-.115c.032.023.077.04.094.071.068.114.128.231.2.359a2.691 2.691 0 0 0 .375-1.484l.424.449a1.778 1.778 0 0 0 .018-1.136l.352-.031-.047-.545h-.072c-.091 0-.173.014-.158.142a.126.126 0 0 1 -.055.077.56.56 0 0 1 -.5-.135 1.142 1.142 0 0 0 .206 0c.062-.013.158-.035.173-.077.048-.128.145-.137.251-.145.251-.018.251-.018.272.234.013.148.026.3.038.437l.04.006c.061 0 .122-.005.183-.014s.094.015.123.077a2.72 2.72 0 0 1 .208 1.164c0 .077-.035.1-.105.1s-.128.01-.192.015a.375.375 0 0 0 .154.055c.192.007.256.12.287.293a1.559 1.559 0 0 1 .016.746.127.127 0 0 1 -.135.108c-.108 0-.215.017-.323.026l.017.2c.161-.014.314-.025.466-.042.022 0 .042-.024.064-.036l-.052-.053a1.8 1.8 0 0 0 .107-1.864l.753.03-.022-.256-.973.083c.321-.422.524-.84.183-1.3.047-.034.111-.057.114-.086a1.653 1.653 0 0 0 0-.979v-.022l.5-.043-.018-.214-.018-.206-.041-.012c-.029.051-.056.1-.088.154-.02.032-.042.077-.071.085a2.152 2.152 0 0 1 -.344.041c-.119 0-.188-.068-.205-.2l.4-.035zm2.84 4.917c.195-.027.379-.049.563-.077a.345.345 0 0 0 .145-.062c.266-.2.529-.4.793-.608l.324-.251a.5.5 0 0 0 -.217.015c-.26.088-.517.184-.776.277a.292.292 0 0 0 -.211.211.56.56 0 0 1 -.1.161.324.324 0 0 1 -.291.154 1.866 1.866 0 0 0 -.241.018zm.7-.919c.185-.317-.013-.778-.35-1.153-.008.025-.018.046-.023.068a.21.21 0 0 1 -.225.189 2.114 2.114 0 0 0 -.257.034l.02.231c.175.005.342.008.507.018a.121.121 0 0 1 .088.058c.083.186.161.374.238.553zm.953-.5a3.466 3.466 0 0 0 -1.393-1.532c.024.1.045.164.058.231a.255.255 0 0 0 .119.164 5.638 5.638 0 0 1 .521.423c.239.229.463.474.694.713zm.9-.138a.811.811 0 0 0 -.76.3l.154.169zm-6.834 1.806.417.01-.077-.863a1.315 1.315 0 0 1 -.341.852zm2.081-.154-.461.04c.017.048.019.108.046.123a.514.514 0 0 0 .435.058zm-2.97-.288-.015.011c.057.109.113.218.171.327a.058.058 0 0 0 .039.025c.142.017.284.032.427.048l.006-.022zm2.22-3h.494l-.022-.258a.615.615 0 0 0 -.472.257zm-.774 3.05a.934.934 0 0 0 -.077-.907zm-.242-.672.024-.01-.026-.308-.269.023zm3.514-2.383-.018-.21-.315.208.015.029zm.16-.009.317-.028.008-.024-.337-.136z" fill="#635147" transform="translate(-255.183 -203.247)"/><path d="m399.05 282.706s5.352-.417 6.079 1.721" fill="none" stroke="#000" stroke-dasharray="12" stroke-miterlimit="10" stroke-width=".5" transform="translate(-362.68 -261.231)"/><g fill="#496d8e"><path d="m493.354 254.6.061-.01.015.023a.934.934 0 0 1 -.087.077 1.834 1.834 0 0 1 -.828.286 5.574 5.574 0 0 1 -1.724-.108 5.228 5.228 0 0 0 -1.23-.092c-.332.021-.663.07-.994.105a2.236 2.236 0 0 1 -.757-.033 3.436 3.436 0 0 0 .837-.148 2.409 2.409 0 0 0 .866-.454c.353-.3.687-.615 1.023-.931a1.779 1.779 0 0 1 1.734-.469c.072.018.143.038.2.054a6.487 6.487 0 0 0 -.654.077 1.665 1.665 0 0 0 -1.01.658.581.581 0 0 0 .085.816 1.4 1.4 0 0 0 .358.231 2.574 2.574 0 0 0 1.758.072c.077-.026.158-.048.231-.077a.739.739 0 0 0 .116-.077z" transform="translate(-444.616 -233.638)"/><path d="m485.654 250.955c-.235.044-.467.094-.7.129a2.756 2.756 0 0 1 -.357.007s0 0 0-.006a.007.007 0 0 1 0-.007 2.209 2.209 0 0 0 .737-.171 2.343 2.343 0 0 0 .956-.688c.109-.131.215-.265.328-.394a3.2 3.2 0 0 1 1.028-.81 1.874 1.874 0 0 1 1.316-.131 2 2 0 0 1 .589.3c-.008.006-.01.01-.012.01-.019 0-.038-.009-.057-.015a1.927 1.927 0 0 0 -1.251-.035 2.338 2.338 0 0 0 -.87.575c-.294.278-.6.544-.91.8a2.781 2.781 0 0 1 -.797.436z" transform="translate(-441.644 -229.98)"/><path d="m528.077 255.261a1.384 1.384 0 0 0 -.8.321.69.69 0 0 0 .023.951 1.062 1.062 0 0 0 .583.3 2.731 2.731 0 0 0 .9.028c.054-.006.108 0 .162-.007a.476.476 0 0 1 -.088.056c-.065.025-.134.042-.2.061a3.232 3.232 0 0 1 -1.163.035 1.808 1.808 0 0 1 -.807-.308.519.519 0 0 1 -.109-.82 1.607 1.607 0 0 1 .21-.212 1.837 1.837 0 0 1 1.37-.437z" transform="translate(-480.267 -235.895)"/><path d="m539.893 259.19a.529.529 0 0 0 -.421.581.493.493 0 0 0 .271.419 3.914 3.914 0 0 0 .356.183c-.132.012-.25.025-.367.034a2.188 2.188 0 0 1 -.86-.1.872.872 0 0 1 -.385-.251c-.03-.035-.042-.059 0-.1.118-.134.231-.271.347-.41a1.01 1.01 0 0 1 .74-.408 2.618 2.618 0 0 1 .319.022z" transform="translate(-491.371 -239.507)"/><path d="m477.591 260.057h-.511v-.02c.1-.03.211-.055.313-.092a2.2 2.2 0 0 0 1.055-.809 1.183 1.183 0 0 1 .56-.458.923.923 0 0 1 .6-.008.528.528 0 0 0 -.405.344 1.307 1.307 0 0 0 -.04.241.165.165 0 0 1 -.058.141 2.393 2.393 0 0 1 -1.011.564c-.166.04-.335.065-.503.097z" transform="translate(-434.711 -239.03)"/><path d="m264.769 504.162.058-.008.014.022a.938.938 0 0 1 -.082.077 1.723 1.723 0 0 1 -.777.266 5.311 5.311 0 0 1 -1.624-.1 4.949 4.949 0 0 0 -1.158-.088c-.313.019-.624.065-.936.1a2.121 2.121 0 0 1 -.714-.032 3.186 3.186 0 0 0 .788-.139 2.275 2.275 0 0 0 .816-.427c.332-.28.647-.58.964-.877a1.668 1.668 0 0 1 1.633-.442c.068.016.135.035.191.051a6.021 6.021 0 0 0 -.615.077 1.568 1.568 0 0 0 -.95.62.549.549 0 0 0 .077.769 1.365 1.365 0 0 0 .338.215 2.4 2.4 0 0 0 1.656.068c.077-.025.148-.046.22-.077a.591.591 0 0 0 .101-.075z" transform="translate(-233.905 -464.112)"/><path d="m257.526 500.762c-.221.042-.441.089-.663.121a2.441 2.441 0 0 1 -.336.007v-.005a.029.029 0 0 1 0-.007 2.07 2.07 0 0 0 .692-.161 2.213 2.213 0 0 0 .9-.646c.1-.124.2-.25.308-.371a3.011 3.011 0 0 1 .968-.763 1.762 1.762 0 0 1 1.24-.123 1.952 1.952 0 0 1 .554.284l-.01.01c-.018 0-.036-.008-.054-.015a1.821 1.821 0 0 0 -1.179-.032 2.253 2.253 0 0 0 -.82.538c-.277.261-.564.514-.857.756a2.623 2.623 0 0 1 -.743.407z" transform="translate(-231.115 -460.698)"/><path d="m297.471 504.829a1.307 1.307 0 0 0 -.75.3.654.654 0 0 0 .022.9 1 1 0 0 0 .549.284 2.585 2.585 0 0 0 .85.027c.051-.006.1 0 .154-.007a.424.424 0 0 1 -.083.053c-.062.023-.125.039-.188.058a3.038 3.038 0 0 1 -1.1.033 1.7 1.7 0 0 1 -.76-.291.487.487 0 0 1 -.1-.769 1.62 1.62 0 0 1 .2-.2 1.731 1.731 0 0 1 1.291-.411z" transform="translate(-267.48 -466.279)"/><path d="m308.608 508.506a.5.5 0 0 0 -.4.547.469.469 0 0 0 .255.394 3.675 3.675 0 0 0 .336.172c-.125.012-.235.025-.346.032a2.051 2.051 0 0 1 -.81-.092.81.81 0 0 1 -.359-.236c-.028-.032-.039-.055 0-.1.112-.126.22-.256.328-.384a.951.951 0 0 1 .7-.384 2.325 2.325 0 0 1 .3.02z" transform="translate(-277.948 -469.658)"/><path d="m249.892 509.29h-.482v-.022c.1-.028.2-.052.294-.087a2.076 2.076 0 0 0 .994-.762 1.107 1.107 0 0 1 .527-.431.878.878 0 0 1 .564-.008.507.507 0 0 0 -.384.324 1.228 1.228 0 0 0 -.038.231.154.154 0 0 1 -.055.132 2.267 2.267 0 0 1 -.953.531c-.15.039-.31.061-.467.092z" transform="translate(-224.545 -469.176)"/><path d="m471.022 465.743.061-.009.014.023a.772.772 0 0 1 -.087.077 1.831 1.831 0 0 1 -.825.283 5.607 5.607 0 0 1 -1.725-.108 5.226 5.226 0 0 0 -1.23-.092c-.332.02-.662.069-.993.105a2.241 2.241 0 0 1 -.757-.034 3.392 3.392 0 0 0 .837-.148 2.414 2.414 0 0 0 .866-.454c.352-.3.687-.615 1.023-.931a1.778 1.778 0 0 1 1.733-.47l.2.055a6.324 6.324 0 0 0 -.654.077 1.668 1.668 0 0 0 -1.01.658.583.583 0 0 0 .085.816 1.428 1.428 0 0 0 .358.231 2.575 2.575 0 0 0 1.758.072c.077-.026.154-.049.231-.077a.628.628 0 0 0 .115-.074z" transform="translate(-424.003 -428.546)"/><path d="m463.3 462.169c-.231.044-.467.094-.7.128a2.616 2.616 0 0 1 -.357.008s0 0 0-.006v-.007a2.2 2.2 0 0 0 .738-.172 2.344 2.344 0 0 0 .955-.685c.109-.131.216-.265.328-.394a3.2 3.2 0 0 1 1.028-.81 1.872 1.872 0 0 1 1.317-.131 1.993 1.993 0 0 1 .588.3c-.007.007-.009.011-.011.01-.019 0-.038-.008-.057-.015a1.93 1.93 0 0 0 -1.252-.035 2.346 2.346 0 0 0 -.87.574q-.441.417-.91.8a2.769 2.769 0 0 1 -.797.435z" transform="translate(-421.012 -424.958)"/><path d="m505.72 466.439a1.392 1.392 0 0 0 -.8.32.692.692 0 0 0 .022.952 1.068 1.068 0 0 0 .583.3 2.738 2.738 0 0 0 .9.028c.053-.006.108 0 .161-.007a.491.491 0 0 1 -.088.056c-.065.024-.133.042-.2.061a3.239 3.239 0 0 1 -1.164.035 1.812 1.812 0 0 1 -.807-.308.519.519 0 0 1 -.108-.82 1.657 1.657 0 0 1 .209-.213 1.837 1.837 0 0 1 1.37-.436z" transform="translate(-459.628 -430.837)"/><path d="m517.529 470.409a.53.53 0 0 0 -.421.582.5.5 0 0 0 .271.419c.106.068.225.116.357.183-.133.012-.25.025-.367.033a2.19 2.19 0 0 1 -.86-.1.869.869 0 0 1 -.384-.251c-.03-.035-.042-.059 0-.1.118-.134.231-.272.347-.411a1.023 1.023 0 0 1 .741-.407 2.345 2.345 0 0 1 .319.022z" transform="translate(-470.726 -434.487)"/><path d="m455.241 471.22h-.511v-.02c.1-.031.211-.056.313-.092a2.21 2.21 0 0 0 1.056-.809 1.174 1.174 0 0 1 .56-.457.932.932 0 0 1 .6-.009.532.532 0 0 0 -.406.344 1.328 1.328 0 0 0 -.039.241.168.168 0 0 1 -.058.141 2.408 2.408 0 0 1 -1.012.564c-.166.042-.336.062-.503.097z" transform="translate(-414.079 -433.957)"/></g></svg>