<svg viewBox="0 0 500 500" xmlns="http://www.w3.org/2000/svg"><path d="m367.25 299.42c-5.89-23.83-16.5-45.86-28.24-67.34-1.08-2.26-2.05-4.58-3.24-6.77-23.04-42.31-49.07-82.77-76.77-122.16-1.92-2.73-4.07-5.29-6.58-8.53-2 2.44-3.5 4.07-4.7 5.93-23.51 36.64-47.52 73-70.27 110.09a378 378 0 0 0 -37.85 81c-8.07 24.91-6.75 49.34 3.42 73.38 1 2.54 1.82 5.16 3 7.6 37.66 77 141.73 90.23 196.73 24.45 23.62-28.2 33.57-60.95 24.5-97.65z" fill="#2cbde4"/><path d="m143 365.05c4.95 4.21 9.76 8.6 14.87 12.62 34.17 26.88 72.42 34.09 113.42 20.47 43.17-14.33 77.82-57.15 79-105.84.45-18.07-3.73-34.74-10.47-51.15-1.11-2.69-.63-6-.88-9.07 11.74 21.48 22.34 43.51 28.24 67.34 9.07 36.7-.88 69.45-24.48 97.68-55 65.78-159.07 52.58-196.73-24.45-1.12-2.44-1.97-5.06-2.97-7.6z" fill="#2babd8"/><path d="m282.59 360.11a75.1 75.1 0 0 1 15.63-34.75c7.28-8.91 16.06-16.6 24.33-24.67a14.75 14.75 0 0 1 5.87-3.37c2.27-.68 4.79-.52 7.21-.73.1 2.35.77 4.85.22 7-6.58 26-20.54 46.86-43.74 61-5.49 3.35-9.43 1.57-9.52-4.48z" fill="#b3e5fc"/><path d="m365.25 290.42c-5.89-23.83-16.5-45.86-28.24-67.34-1.08-2.26-2.05-4.58-3.24-6.77-23.04-42.31-49.07-82.77-76.77-122.16-1.92-2.73-4.07-5.29-6.58-8.53-2 2.44-3.5 4.07-4.7 5.93-23.51 36.64-47.52 73-70.27 110.09a378 378 0 0 0 -37.85 81c-8.07 24.91-6.75 49.34 3.42 73.38 1 2.54 1.82 5.16 3 7.6 37.66 77 141.73 90.23 196.73 24.45 23.62-28.2 33.57-60.95 24.5-97.65z" fill="none" stroke="#138ca8" stroke-miterlimit="10" stroke-width="5"/></svg>